<svg width="90" height="64" viewBox="0 0 90 64" fill="none" xmlns="http://www.w3.org/2000/svg">
<g clip-path="url(#clip0)">
<path opacity="0.1" d="M29.9213 63.8351C34.3042 63.8351 37.8573 63.2633 37.8573 62.558C37.8573 61.8528 34.3042 61.281 29.9213 61.281C25.5384 61.281 21.9853 61.8528 21.9853 62.558C21.9853 63.2633 25.5384 63.8351 29.9213 63.8351Z" fill="#5BC2F1"/>
<path opacity="0.1" d="M73.0602 63.871C78.5295 63.871 82.9632 63.2993 82.9632 62.594C82.9632 61.8887 78.5295 61.317 73.0602 61.317C67.591 61.317 63.1573 61.8887 63.1573 62.594C63.1573 63.2993 67.591 63.871 73.0602 63.871Z" fill="#5BC2F1"/>
<path opacity="0.1" d="M1.1272 27.5969H9.39305V38.8845H1.73234C1.71198 39.0003 1.69243 39.117 1.67125 39.2337H9.39305V48.3369C9.37921 48.3328 9.36699 48.328 9.35396 48.3231C9.13569 48.2366 8.91904 48.1452 8.7024 48.0473L8.56394 47.9844C8.34676 47.8816 8.12957 47.7728 7.91238 47.658C7.83664 47.618 7.7609 47.5764 7.68597 47.534C6.48024 46.8573 5.3849 45.9999 4.43794 44.9914C4.41025 44.9644 4.38419 44.9359 4.35649 44.9098C4.22455 44.7661 4.09506 44.6209 3.96963 44.4724L3.83117 44.3092C3.68294 44.1272 3.5396 43.9404 3.40033 43.7511C3.37997 43.7233 3.36042 43.6956 3.33925 43.6695C2.77283 42.8826 2.30253 42.0306 1.93839 41.1317C1.92699 41.1048 1.91722 41.0754 1.90663 41.0501C1.79478 40.7618 1.69569 40.4708 1.60935 40.177C1.57189 40.0538 1.53605 39.9322 1.5051 39.8041C1.4937 39.7666 1.48393 39.7298 1.47497 39.6931C1.01236 37.8841 0.957794 36.0048 0.957794 34.1387C0.957794 33.9208 0.957794 33.7021 0.957794 33.4859C0.957794 32.7311 0.966753 31.9714 0.979784 31.2125C0.979784 31.0159 0.987929 30.82 0.992001 30.6226C1.0034 30.1215 1.01969 29.6205 1.04087 29.1195C1.04575 28.98 1.05227 28.8413 1.0596 28.7025C1.0596 28.6226 1.06367 28.5426 1.07182 28.4626C1.09136 28.1721 1.10765 27.8841 1.1272 27.5969Z" fill="#5BC2F1"/>
<path opacity="0.1" d="M9.39305 15.0289H4.85901C5.59604 13.8731 6.40134 12.7625 7.27059 11.7029C7.94414 10.8739 8.65516 10.0661 9.39305 9.2876V15.0289Z" fill="#5BC2F1"/>
<path opacity="0.1" d="M9.39305 15.3782V27.2476H1.15326C1.15326 27.2133 1.15896 27.1782 1.1614 27.144C1.16873 27.0501 1.17606 26.9563 1.18421 26.8633C1.19317 26.7539 1.20294 26.6438 1.21353 26.5369C1.22412 26.43 1.23552 26.2994 1.24774 26.1811C1.25995 26.0628 1.27135 25.9428 1.2852 25.8245C1.29905 25.7062 1.31126 25.5879 1.32592 25.4704C1.34058 25.3529 1.35361 25.2337 1.36909 25.1162C1.38131 25.0183 1.39434 24.9212 1.40737 24.8233C1.4261 24.6854 1.44565 24.5467 1.46682 24.4096C1.46682 24.3892 1.47252 24.368 1.47578 24.3484C1.62443 23.3448 1.82698 22.3501 2.08255 21.3684C2.35006 20.3386 2.69167 19.3295 3.10468 18.3492C3.54364 17.3236 4.0576 16.332 4.64236 15.3823L9.39305 15.3782Z" fill="#5BC2F1"/>
<path opacity="0.1" d="M11.3665 27.5961V38.8845H29.0213V27.5961H11.3665ZM11.3665 39.2329V48.9269C11.4674 48.9481 11.5676 48.9685 11.667 48.9857C11.8022 49.0118 11.9366 49.0354 12.0742 49.0558C12.1003 49.0599 12.1272 49.064 12.1557 49.0665C12.2094 49.0754 12.2648 49.0828 12.3185 49.0901C12.4546 49.1089 12.5898 49.1244 12.7258 49.1366C12.7901 49.1432 12.8553 49.1489 12.9204 49.1538L13.0776 49.166C13.1631 49.1725 13.2478 49.1774 13.3317 49.1799C13.3838 49.1799 13.436 49.1848 13.4897 49.1864C13.5304 49.1864 13.5712 49.1864 13.6135 49.1864C13.6559 49.1864 13.7161 49.1864 13.7675 49.1864C13.8375 49.1864 13.9075 49.1864 13.9768 49.1864H14.0704C14.1405 49.1864 14.2105 49.1864 14.2797 49.1799H14.2846C14.3327 49.1799 14.3815 49.1799 14.4304 49.1734C14.444 49.1742 14.4576 49.1742 14.4711 49.1734C14.5119 49.1734 14.5526 49.1734 14.5917 49.1676H14.6202L14.893 49.1464C14.9826 49.1383 15.073 49.1277 15.1642 49.1179L15.3499 49.0958C16.1054 48.9898 16.8525 48.8305 17.5856 48.6193C19.2324 48.1591 20.8434 47.5153 22.4894 47.0436C24.6176 46.4357 26.9689 46.137 29.0254 46.8804V39.2329H11.3665ZM29.0213 15.029V0.000846179C27.0884 -0.0201349 25.1607 0.206368 23.2851 0.674856C18.8146 1.80011 14.8034 4.24074 11.3665 7.35783V15.0282H12.2526V15.3766H11.3665V27.2476H29.0213V15.3774H15.8907V15.029H29.0213ZM51.698 9.95269C50.592 9.91352 49.4925 9.56264 48.4981 9.02082C46.5963 7.98451 45.0774 6.38435 43.38 5.03389C39.8535 2.22116 35.4799 0.523897 30.9931 0.102845V15.029H56.1962L56.2589 14.9629L51.698 9.95269ZM53.994 9.54469L56.4284 12.2211V8.84294C55.6131 8.94412 54.8988 9.18484 53.9972 9.54143L53.994 9.54469ZM56.4284 51.3341V39.2329H51.2411C51.2273 39.1815 51.2134 39.1293 51.1971 39.0771C51.2126 39.1293 51.2256 39.1815 51.2403 39.2329H30.9963V47.9845C31.1885 48.1273 31.3783 48.2774 31.5664 48.43C31.7692 48.5932 31.9696 48.7654 32.1708 48.9343L32.3736 49.1024C32.4705 49.184 32.5682 49.2656 32.6668 49.3423C32.8622 49.5011 33.0596 49.6578 33.2589 49.8123C33.3574 49.8939 33.4584 49.9673 33.5586 50.044C35.149 51.2623 36.8267 52.3617 38.578 53.3333C38.9706 53.5509 39.3667 53.7633 39.7663 53.9706C40.0327 54.1068 40.3006 54.2423 40.5694 54.3737C40.9733 54.5711 41.3806 54.7615 41.7911 54.9449C45.5755 56.6469 49.5773 57.8148 53.682 58.4153C54.5937 58.5502 55.5088 58.6563 56.4275 58.7335V51.3333H56.509L56.4284 51.3341ZM30.9963 15.3774V27.2476H56.4316V15.3774H30.9963ZM30.9963 27.5961V38.8845H56.4316V27.5961H30.9963ZM58.4058 8.82825V12.5965L61.513 9.18076C60.4835 9.0143 59.4478 8.89543 58.4058 8.82417V8.82825ZM58.4058 27.6001V38.8845H83.1448V27.5961L58.4058 27.6001ZM83.0544 52.2301L83.1415 39.2329H58.4058V58.8633C59.9993 58.9303 61.5952 58.9113 63.1867 58.8061H63.2144C63.9745 58.7583 64.7311 58.6886 65.4842 58.5972H65.5013C69.5191 58.1288 73.4477 57.0785 77.1643 55.4793L83.0544 52.2301ZM87.915 29.4549C87.8222 29.2354 87.7252 29.0175 87.6267 28.8021C87.4426 28.3941 87.248 27.9975 87.0476 27.601H85.1174V38.8845H89.9975C89.9951 35.6891 89.188 32.4251 87.9174 29.4508L87.915 29.4549ZM85.1174 39.237V50.4161C86.4921 49.0958 87.6536 47.5854 88.49 45.8588C89.4958 43.7796 89.956 41.5283 89.9935 39.2354L85.1174 39.237ZM85.1174 24.3109V27.2485H86.8668C86.3376 26.2372 85.7544 25.2552 85.1198 24.3068L85.1174 24.3109ZM68.3397 11.0429C68.211 10.9939 68.0823 10.9441 67.9528 10.896C66.5871 10.3907 65.1914 9.97043 63.7739 9.63772L59.0191 14.8658L58.9279 14.9629L58.989 15.0298H75.9116C73.5548 13.4044 71.0139 12.0647 68.3421 11.0388L68.3397 11.0429ZM76.4076 15.3815H58.7528L58.4058 15.6997V27.2476H61.447H61.4519H83.148V21.654C81.1854 19.2759 78.9201 17.1657 76.4101 15.3774L76.4076 15.3815Z" fill="#5BC2F1"/>
<path opacity="0.1" d="M9.39305 21.3651V27.2476H1.15326C1.15326 27.2133 1.15896 27.1782 1.1614 27.144C1.16873 27.0501 1.17606 26.9563 1.18421 26.8633C1.19317 26.7539 1.20294 26.6438 1.21353 26.5369C1.22412 26.43 1.23552 26.2994 1.24774 26.1811C1.25995 26.0628 1.27135 25.9428 1.2852 25.8245C1.29905 25.7062 1.31126 25.5879 1.32592 25.4704C1.34058 25.3529 1.35361 25.2337 1.36909 25.1162C1.38131 25.0183 1.39434 24.9212 1.40737 24.8233C1.4261 24.6854 1.44565 24.5467 1.46682 24.4096C1.46682 24.3892 1.47252 24.368 1.47578 24.3484C1.62443 23.3448 1.82698 22.3501 2.08255 21.3684L9.39305 21.3651Z" fill="#5BC2F1"/>
<path opacity="0.1" d="M1.1272 27.5969H9.39305V38.8845H1.73234C1.71198 39.0003 1.69243 39.117 1.67125 39.2337H9.39305V48.3369C9.37921 48.3328 9.36699 48.328 9.35396 48.3231C9.13569 48.2366 8.91904 48.1452 8.7024 48.0473L8.56394 47.9844C8.34676 47.8816 8.12957 47.7728 7.91238 47.658C7.83664 47.618 7.7609 47.5764 7.68597 47.534C6.48024 46.8573 5.3849 45.9999 4.43794 44.9914C4.41025 44.9644 4.38419 44.9359 4.35649 44.9098C4.22455 44.7661 4.09506 44.6209 3.96963 44.4724L3.83117 44.3092C3.68294 44.1272 3.5396 43.9404 3.40033 43.7511C3.37997 43.7233 3.36042 43.6956 3.33925 43.6695C2.77283 42.8826 2.30253 42.0306 1.93839 41.1317C1.92699 41.1048 1.91722 41.0754 1.90663 41.0501C1.79478 40.7618 1.69569 40.4708 1.60935 40.177C1.57189 40.0538 1.53605 39.9322 1.5051 39.8041C1.4937 39.7666 1.48393 39.7298 1.47497 39.6931C1.01236 37.8841 0.957794 36.0048 0.957794 34.1387C0.957794 33.9208 0.957794 33.7021 0.957794 33.4859C0.957794 32.7311 0.966753 31.9714 0.979784 31.2125C0.979784 31.0159 0.987929 30.82 0.992001 30.6226C1.0034 30.1215 1.01969 29.6205 1.04087 29.1195C1.04575 28.98 1.05227 28.8413 1.0596 28.7025C1.0596 28.6226 1.06367 28.5426 1.07182 28.4626C1.09136 28.1721 1.10765 27.8841 1.1272 27.5969Z" fill="#5BC2F1"/>
<path opacity="0.1" d="M17.5815 17.0771V27.2476H11.3665V17.0771H12.2526V13.6336H15.8899V17.0771H17.5815Z" fill="#5BC2F1"/>
<path opacity="0.1" d="M17.5815 27.5961H11.3673V38.8837H17.5815V27.5961Z" fill="#5BC2F1"/>
<path opacity="0.1" d="M11.3665 39.2337H17.5815V48.6176C16.8484 48.8287 16.1013 48.9877 15.3459 49.0933L15.1602 49.1162C15.0689 49.1268 14.9785 49.1358 14.889 49.1448C14.7994 49.1537 14.7065 49.1603 14.6161 49.166H14.5876C14.5485 49.166 14.5062 49.1709 14.4679 49.1717H14.4263C14.3775 49.1717 14.3286 49.1766 14.2797 49.1782C14.2105 49.1823 14.1413 49.1831 14.0704 49.1839C14.0403 49.1839 14.0118 49.1839 13.9817 49.1839C13.9116 49.1839 13.8424 49.1839 13.7723 49.1839H13.6184C13.5769 49.1839 13.537 49.1839 13.4938 49.1839L13.3366 49.1782C13.2552 49.1782 13.1672 49.1692 13.0825 49.1635L12.9261 49.1521L12.7315 49.1341C12.5946 49.1219 12.4586 49.1064 12.3242 49.0876L12.1614 49.0648L12.0799 49.0534C11.9439 49.0321 11.8095 49.0093 11.6727 48.9832C11.5725 48.9661 11.4731 48.9448 11.3722 48.9244L11.3665 39.2337Z" fill="#5BC2F1"/>
<path opacity="0.1" d="M56.4316 15.876H51.3071V27.2468H56.4316V15.876Z" fill="#5BC2F1"/>
<path opacity="0.1" d="M56.4324 27.5961V38.8845H30.9963V34.0155H44.5447V36.8878H51.3071V27.5961H56.4324Z" fill="#5BC2F1"/>
<path opacity="0.1" d="M56.5131 51.3365H56.4316V58.7417C55.514 58.6639 54.5991 58.5581 53.6869 58.4242C49.5802 57.8218 45.5767 56.6514 41.7911 54.9465C40.6981 54.4536 39.6273 53.9156 38.5789 53.3324C36.8275 52.3603 35.1496 51.261 33.5586 50.0432C33.159 49.7364 32.7645 49.4225 32.3752 49.1015C32.1056 48.8788 31.8377 48.6503 31.5665 48.4283C31.3783 48.2757 31.1885 48.1256 30.9963 47.982V39.2337H51.2395C51.2256 39.1815 51.2118 39.1293 51.1971 39.0779C51.2126 39.1293 51.2273 39.1815 51.2411 39.2337H56.4316V51.3316C56.4593 51.3324 56.4862 51.3349 56.5131 51.3365Z" fill="#5BC2F1"/>
<path opacity="0.1" d="M69.7968 15.029H66.4575V13.9894H67.9545V10.8927C68.0842 10.94 68.2135 10.9887 68.3422 11.0388V13.9894H69.7968V15.029Z" fill="#5BC2F1"/>
<path opacity="0.1" d="M77.8419 27.2476H61.4487C61.4487 27.2476 61.4487 27.2476 61.4544 27.2517L61.447 27.2476H58.4059V15.8767H59.2676V24.2815H63.2054V19.3039H66.4584V15.3782H69.7976V19.3072H73.0505V24.2847H77.8419V27.2476Z" fill="#5BC2F1"/>
<path opacity="0.1" d="M58.4059 27.5961V38.8845H77.8419V27.5961H58.4059ZM83.1179 52.1721L83.1448 43.237H77.8419V39.2386H58.4059V58.8633C59.9994 58.9303 61.5953 58.9113 63.1867 58.8061H63.2144C63.9746 58.7583 64.7312 58.6886 65.4843 58.5972H65.5014C69.5191 58.1288 73.4477 57.0785 77.1643 55.4793" fill="#5BC2F1"/>
<path opacity="0.1" d="M85.4627 39.2337H89.9967C89.9568 41.5258 89.4975 43.7771 88.4924 45.8563C87.656 47.5838 86.4938 49.0942 85.1206 50.4136V43.2329H85.4627V39.2337Z" fill="#5BC2F1"/>
<path opacity="0.1" d="M89.9992 38.8845H85.4627V29.4508H87.9175C89.188 32.4251 89.9951 35.6891 89.9992 38.8845Z" fill="#5BC2F1"/>
<path opacity="0.1" d="M56.4324 19.0371H53.6869V22.6022H56.4324V19.0371Z" fill="#5BC2F1"/>
<path opacity="0.1" d="M56.4324 26.4267H53.6869V27.2476H56.4324V26.4267Z" fill="#5BC2F1"/>
<path opacity="0.1" d="M56.4324 27.5961H53.6869V29.991H56.4324V27.5961Z" fill="#5BC2F1"/>
<path opacity="0.1" d="M56.4324 33.8163H53.6869V37.3814H56.4324V33.8163Z" fill="#5BC2F1"/>
<path opacity="0.1" d="M56.4324 41.206H53.6869V44.7711H56.4324V41.206Z" fill="#5BC2F1"/>
<path opacity="0.1" d="M56.4316 51.3316C56.4593 51.3316 56.4862 51.3316 56.513 51.3365H56.4316V52.1647H53.6869V48.5956H56.4316V51.3316Z" fill="#5BC2F1"/>
<path opacity="0.1" d="M56.4316 55.9836V58.7376C55.514 58.6598 54.5991 58.554 53.6869 58.4201V55.9836H56.4316Z" fill="#5BC2F1"/>
<path opacity="0.1" d="M42.7627 38.6225H30.9963V38.8844H42.7627V38.6225Z" fill="#5BC2F1"/>
<path opacity="0.1" d="M42.7627 39.2329H30.9963V40.2366H42.7627V39.2329Z" fill="#5BC2F1"/>
<path opacity="0.1" d="M42.7627 43.5267H30.9963V45.1407H42.7627V43.5267Z" fill="#5BC2F1"/>
<path opacity="0.1" d="M42.7619 48.4308V50.0448H33.5586C33.159 49.7391 32.7643 49.4252 32.3744 49.1032C32.1048 48.8804 31.8377 48.6519 31.5657 48.4308H42.7619Z" fill="#5BC2F1"/>
<path opacity="0.1" d="M42.7619 53.334V54.9465H41.7902C40.6983 54.453 39.6279 53.9148 38.5789 53.3316L42.7619 53.334Z" fill="#5BC2F1"/>
<path opacity="0.1" d="M65.5038 28.6903H63.1875V31.011H65.5038V28.6903Z" fill="#5BC2F1"/>
<path opacity="0.1" d="M15.3516 17.8776H13.0353V20.1982H15.3516V17.8776Z" fill="#5BC2F1"/>
<path opacity="0.1" d="M15.3516 23.268H13.0353V25.5887H15.3516V23.268Z" fill="#5BC2F1"/>
<path opacity="0.1" d="M15.3516 28.6584H13.0353V30.9791H15.3516V28.6584Z" fill="#5BC2F1"/>
<path opacity="0.1" d="M15.3516 34.0481H13.0353V36.3688H15.3516V34.0481Z" fill="#5BC2F1"/>
<path opacity="0.1" d="M15.3516 39.4385H13.0353V41.7592H15.3516V39.4385Z" fill="#5BC2F1"/>
<path opacity="0.1" d="M15.3516 44.829H13.0353V47.1497H15.3516V44.829Z" fill="#5BC2F1"/>
<path opacity="0.1" d="M74.3463 28.6903H72.03V31.011H74.3463V28.6903Z" fill="#5BC2F1"/>
<path opacity="0.1" d="M65.5038 34.4145H63.1875V36.7352H65.5038V34.4145Z" fill="#5BC2F1"/>
<path opacity="0.1" d="M74.3463 34.4145H72.03V36.7352H74.3463V34.4145Z" fill="#5BC2F1"/>
<path opacity="0.1" d="M65.5038 40.1378H63.1875V42.4585H65.5038V40.1378Z" fill="#5BC2F1"/>
<path opacity="0.1" d="M74.3463 40.1378H72.03V42.4585H74.3463V40.1378Z" fill="#5BC2F1"/>
<path opacity="0.1" d="M65.5038 45.862H63.1875V48.1827H65.5038V45.862Z" fill="#5BC2F1"/>
<path opacity="0.1" d="M74.3463 45.862H72.03V48.1827H74.3463V45.862Z" fill="#5BC2F1"/>
<path opacity="0.1" d="M65.5038 51.5862H63.1875V53.9069H65.5038V51.5862Z" fill="#5BC2F1"/>
<path opacity="0.1" d="M74.3463 51.5862H72.03V53.9069H74.3463V51.5862Z" fill="#5BC2F1"/>
<path opacity="0.1" d="M63.1875 58.8061V57.3096H65.503V58.5931L63.1875 58.8061Z" fill="#5BC2F1"/>
<path opacity="0.1" d="M1.466 24.3467V25.6744H9.39305V24.3467H1.466ZM2.25602 25.5911H1.60935V24.4283H2.26091L2.25602 25.5911ZM3.04522 25.5911H2.39366V24.4283H3.04522V25.5911ZM3.8328 25.5911H3.18124V24.4283H3.8328V25.5911ZM4.622 25.5911H3.97125V24.4283H4.62281L4.622 25.5911ZM5.41038 25.5911H4.75882V24.4283H5.41038V25.5911ZM6.19959 25.5911H5.54803V24.4283H6.19959V25.5911ZM6.98879 25.5911H6.33723V24.4283H6.98879V25.5911ZM7.77718 25.5911H7.12562V24.4283H7.77718V25.5911ZM8.56556 25.5911H7.914V24.4283H8.56556V25.5911ZM9.35395 25.5911H8.70239V24.4283H9.35395V25.5911Z" fill="#5BC2F1"/>
<path opacity="0.1" d="M1.466 28.2097V29.5373H9.39305V28.2097H1.466ZM2.25602 29.4532H1.60935V28.2937H2.26091L2.25602 29.4532ZM3.04522 29.4532H2.39366V28.2937H3.04522V29.4532ZM3.8328 29.4532H3.18124V28.2937H3.8328V29.4532ZM4.622 29.4532H3.97125V28.2937H4.62281L4.622 29.4532ZM5.41038 29.4532H4.75882V28.2937H5.41038V29.4532ZM6.19959 29.4532H5.54803V28.2937H6.19959V29.4532ZM6.98879 29.4532H6.33723V28.2937H6.98879V29.4532ZM7.77718 29.4532H7.12562V28.2937H7.77718V29.4532ZM8.56556 29.4532H7.914V28.2937H8.56556V29.4532ZM9.35395 29.4532H8.70239V28.2937H9.35395V29.4532Z" fill="#5BC2F1"/>
<path opacity="0.1" d="M1.466 32.0742V33.4043H9.39305V32.0742H1.466ZM2.25602 33.3178H1.60935V32.1574H2.26091L2.25602 33.3178ZM3.04522 33.3178H2.39366V32.1574H3.04522V33.3178ZM3.8328 33.3178H3.18124V32.1574H3.8328V33.3178ZM4.622 33.3178H3.97125V32.1574H4.62281L4.622 33.3178ZM5.41038 33.3178H4.75882V32.1574H5.41038V33.3178ZM6.19959 33.3178H5.54803V32.1574H6.19959V33.3178ZM6.98879 33.3178H6.33723V32.1574H6.98879V33.3178ZM7.77718 33.3178H7.12562V32.1574H7.77718V33.3178ZM8.56556 33.3178H7.914V32.1574H8.56556V33.3178ZM9.35395 33.3178H8.70239V32.1574H9.35395V33.3178Z" fill="#5BC2F1"/>
<path opacity="0.1" d="M1.466 35.9387V37.2647H9.39305V35.9387H1.466ZM2.25602 37.1823H1.60935V36.0211H2.26091L2.25602 37.1823ZM3.04522 37.1823H2.39366V36.0211H3.04522V37.1823ZM3.8328 37.1823H3.18124V36.0211H3.8328V37.1823ZM4.622 37.1823H3.97125V36.0211H4.62281L4.622 37.1823ZM5.41038 37.1823H4.75882V36.0211H5.41038V37.1823ZM6.19959 37.1823H5.54803V36.0211H6.19959V37.1823ZM6.98879 37.1823H6.33723V36.0211H6.98879V37.1823ZM7.77718 37.1823H7.12562V36.0211H7.77718V37.1823ZM8.56556 37.1823H7.914V36.0211H8.56556V37.1823ZM9.35395 37.1823H8.70239V36.0211H9.35395V37.1823Z" fill="#5BC2F1"/>
<path opacity="0.1" d="M1.50021 39.8024C1.53198 39.9273 1.56781 40.0521 1.60528 40.1753V39.8857H2.25684V41.046H1.90825C1.91884 41.0729 1.92943 41.1023 1.94002 41.1276H9.39305V39.8024H1.50021ZM3.04767 41.046H2.39611V39.8857H3.04767V41.046ZM3.83524 41.046H3.18368V39.8857H3.83524V41.046ZM4.62444 41.046H3.97125V39.8857H4.62281L4.62444 41.046ZM5.41283 41.046H4.76127V39.8857H5.41283V41.046ZM6.20203 41.046H5.55047V39.8857H6.20203V41.046ZM6.99124 41.046H6.33968V39.8857H6.99124V41.046ZM7.77962 41.046H7.12806V39.8857H7.77962V41.046ZM8.56801 41.046H7.91645V39.8857H8.56801V41.046ZM9.3564 41.046H8.70484V39.8857H9.3564V41.046Z" fill="#5BC2F1"/>
<path opacity="0.1" d="M3.34088 43.667C3.36124 43.6931 3.38079 43.7225 3.40197 43.7486H3.83281V44.3059C3.87923 44.3614 3.92484 44.4169 3.97208 44.4691V43.7453H4.62364V44.9097H4.35976C4.38582 44.9367 4.41107 44.9652 4.4412 44.9913H9.3955V43.667H3.34088ZM5.4104 44.9097H4.75884V43.7502H5.4104V44.9097ZM6.1996 44.9097H5.54804V43.7502H6.1996V44.9097ZM6.9888 44.9097H6.33724V43.7502H6.9888V44.9097ZM7.77719 44.9097H7.12563V43.7502H7.77719V44.9097ZM8.56558 44.9097H7.91402V43.7502H8.56558V44.9097ZM9.35397 44.9097H8.70241V43.7502H9.35397V44.9097Z" fill="#5BC2F1"/>
<path opacity="0.1" d="M7.68921 47.5307C7.76332 47.5731 7.83907 47.6123 7.91563 47.6547V47.6139H8.56719V47.9811L8.70564 48.0456V47.6139H9.3572V48.3198C9.3697 48.326 9.3828 48.3309 9.3963 48.3345V47.5307H7.68921Z" fill="#5BC2F1"/>
<path opacity="0.1" d="M61.4487 27.2476H61.4535H61.4487ZM56.4316 51.3308H56.5131H56.4316ZM51.1972 39.077C51.2126 39.1293 51.2257 39.1815 51.2403 39.2329C51.2273 39.1815 51.2135 39.1293 51.1972 39.077ZM61.4487 27.2452H61.4535H61.4487ZM12.2559 15.0265V15.3749H15.894V15.0265H12.2559ZM56.4316 51.3308H56.5131H56.4316ZM51.1972 39.077C51.2126 39.1293 51.2257 39.1815 51.2403 39.2329C51.2273 39.1815 51.2135 39.1293 51.1972 39.077ZM61.4487 27.2452H61.4535H61.4487ZM56.4316 51.3284H56.5131H56.4316ZM51.1972 39.077C51.2126 39.1293 51.2257 39.1815 51.2403 39.2329C51.2273 39.1815 51.2135 39.1293 51.1972 39.077Z" fill="#5BC2F1"/>
<path d="M37.595 30.9808C37.595 30.9808 37.2741 30.9359 37.2741 30.4675C37.2741 29.9992 37.0444 29.1244 37.0444 29.1244C37.0444 29.1203 36.8457 27.601 36.5713 27.3594C36.2968 27.1179 35.9441 25.6997 35.9441 25.6997C35.9441 25.6997 35.8839 24.9302 35.7609 24.7646C35.6379 24.5989 35.4717 24.1934 35.2266 23.6148C34.9814 23.0363 33.9593 22.6356 33.9593 22.6356C33.9593 22.6356 32.1113 21.5618 31.5876 21.2117C31.54 21.183 31.4955 21.1493 31.4549 21.1114C31.3637 20.9914 30.9662 20.989 30.9662 20.989C30.9247 20.7262 30.8848 20.4243 30.8717 20.1509C30.8717 20.1216 30.8717 20.0922 30.8677 20.0628C31.4516 19.717 31.8915 19.1717 32.1064 18.5271C32.1162 18.4961 32.1244 18.4635 32.1333 18.4325C32.1683 18.4209 32.2005 18.4022 32.2278 18.3775C32.2552 18.3527 32.2771 18.3226 32.2921 18.2889C32.3394 18.1836 32.3402 18.0604 32.3988 17.9625C32.4672 17.8466 32.5976 17.7846 32.7002 17.6973C32.9592 17.4769 33.026 17.1057 33.0137 16.7678C33.0056 16.4945 32.9616 16.2187 32.9787 15.947L32.9836 15.8784C32.9885 15.8376 32.9942 15.7968 33.0015 15.7576C33.0414 15.5553 33.1286 15.3643 33.1774 15.1636C33.2263 14.9629 33.2312 14.7368 33.1172 14.5639C32.9502 14.3101 32.6024 14.2595 32.297 14.2334C31.9509 14.204 31.6414 14.2424 31.4199 13.9543C31.3162 13.8038 31.1995 13.6626 31.0713 13.5324C31.0257 13.49 30.5826 13.2191 30.5826 13.2011C30.1502 13.0005 29.66 12.9628 29.2021 13.0951C28.9724 13.162 28.7558 13.2713 28.5229 13.326C28.0203 13.4451 27.4421 13.3162 27.0153 13.6042C26.7775 13.7674 26.635 14.0269 26.5014 14.2799C26.3928 14.4882 26.2826 14.6963 26.1707 14.9041C25.9907 15.246 25.8075 15.5936 25.7317 15.9723C25.7158 16.0546 25.706 16.1381 25.7024 16.2219V16.226C25.7024 16.2562 25.7024 16.2864 25.7024 16.3166V16.355C25.7024 16.3835 25.7024 16.4113 25.7073 16.4366C25.7122 16.4618 25.7114 16.47 25.7138 16.4871C25.7163 16.5043 25.7203 16.5426 25.7252 16.5687C25.7301 16.5949 25.7399 16.6406 25.7497 16.6765C25.7537 16.692 25.7594 16.7066 25.7643 16.7213C25.7725 16.7491 25.7822 16.776 25.7928 16.8029C25.7985 16.8168 25.8042 16.8315 25.8107 16.8454C25.823 16.8739 25.8376 16.9017 25.8523 16.927C25.8588 16.9384 25.8637 16.949 25.8702 16.9596C25.8929 16.9976 25.9179 17.0341 25.9451 17.0689C26.1194 17.2868 26.376 17.4255 26.5657 17.6295C26.5657 17.6377 26.5657 17.6459 26.5657 17.6532C26.5657 17.676 26.5657 17.6981 26.5657 17.7209C26.5758 18.1759 26.6967 18.6215 26.9178 19.019C27.139 19.4165 27.4537 19.7538 27.8346 20.0016C27.8346 20.0326 27.8387 20.0645 27.8403 20.0955C27.8562 20.3377 27.8532 20.5808 27.8314 20.8225C27.7982 20.7834 27.7567 20.7522 27.7099 20.7313C27.6631 20.7104 27.6122 20.7003 27.561 20.7017C27.526 20.7 27.4909 20.7031 27.4567 20.7107L27.4494 20.705V20.7124C27.2702 20.7564 27.0495 20.9433 26.8386 21.4745C26.8386 21.4745 26.1968 22.1991 25.7081 22.1689C25.2194 22.1387 23.9823 22.9229 23.9823 22.9229C23.9823 22.9229 22.7753 23.7079 22.5163 24.5075C22.3715 24.961 22.198 25.4047 21.9967 25.836L20.5046 28.9163L20.2293 31.3602C20.2293 31.3602 20.3816 32.4471 20.3515 32.6128C20.3213 32.7784 20.9778 34.2725 20.9778 34.2725C20.9778 34.2725 23.1467 38.0905 24.0328 38.2864L24.0963 38.2415C24.1342 38.2613 24.1744 38.2764 24.216 38.2864L24.3985 38.1575C24.4094 38.3011 24.4048 38.4456 24.3846 38.5883C24.2625 38.9653 24.4302 41.4255 24.6436 41.9078C24.857 42.39 24.7813 48.7131 24.7813 48.7131L24.7511 49.2713C24.7511 49.2713 24.7511 49.2892 24.7585 49.3202L24.7511 49.4524L24.7731 49.4638C24.796 49.6409 24.7885 49.8205 24.7511 49.9951C24.6746 50.2398 24.6436 50.9318 24.6436 50.9318C24.6436 50.9318 24.0336 54.8388 24.3227 55.6238C24.6119 56.4088 24.8578 57.2688 24.8578 57.2688C24.8578 57.2688 25.1632 58.248 24.8725 58.4153C24.5817 58.5826 23.7551 58.8633 23.9253 59.2713C24.08 59.6482 24.6672 60.6584 24.7544 60.8061L24.7471 60.8837L24.6273 62.1835C24.6467 62.3552 24.6932 62.5226 24.765 62.6797C24.8961 62.9628 25.151 63.2566 25.6356 63.2247C25.7171 63.219 25.8116 63.2092 25.9028 63.197C26.7897 63.0779 27.8819 62.6813 27.8819 62.6813C27.8252 62.6452 27.7732 62.6022 27.7271 62.5532C27.6835 62.5109 27.649 62.4601 27.6256 62.404C27.6022 62.3479 27.5905 62.2876 27.5911 62.2268C27.6042 61.9901 27.1619 60.8624 27.052 60.585C27.0349 60.545 27.0259 60.5222 27.0259 60.5222C27.0259 60.5222 28.0342 59.4663 27.8664 58.5303C27.8664 58.5303 26.7506 57.8775 27.1179 57.5193C27.4852 57.1611 28.1417 56.1321 28.1417 56.1321C28.1417 56.1321 28.1718 52.2847 28.1417 51.7103C28.1103 51.3116 28.1291 50.9105 28.1979 50.5165C28.2101 50.4569 28.2248 50.399 28.2402 50.3419C28.7482 50.4178 29.2611 50.4568 29.7747 50.4585C29.962 50.4585 30.1526 50.4585 30.3448 50.4471C30.3448 50.5015 30.3472 50.5603 30.3521 50.6234C30.3945 51.5764 30.4735 53.2476 30.5378 53.8686C30.629 54.7588 31.1332 57.1578 31.1332 57.1578C31.1332 57.1578 30.1713 57.7764 31.3009 59.3006C31.3009 59.3006 31.3009 59.8531 31.226 59.933C31.146 60.1944 31.0816 60.4604 31.033 60.7294C30.9858 61.0167 30.9662 61.3072 31.0428 61.4581C31.226 61.8188 32.3255 61.7894 32.3255 61.7894L32.3524 61.7845C32.56 61.763 32.7697 61.783 32.9695 61.8434C33.1693 61.9038 33.3552 62.0033 33.5163 62.1362C33.9341 62.4724 35.5198 62.3247 36.3782 62.2178C36.7146 62.1754 36.9394 62.1362 36.9394 62.1362C36.9503 62.0981 36.9541 62.0582 36.9508 62.0187C36.9418 61.8074 36.7765 61.3439 35.6558 60.9302C35.6558 60.9302 34.6019 60.2203 34.6166 59.6017H34.5946H34.4724C34.5612 59.5968 34.6182 59.6017 34.6182 59.6017C34.6182 59.6017 34.2053 58.0921 34.3739 57.9697C34.5425 57.8473 34.0375 56.1746 34.0375 56.1746C34.0375 56.1746 33.7484 53.3675 33.7329 53.1709C33.7335 53.0021 33.7591 52.8344 33.8086 52.6731L33.7329 51.1342C33.7329 51.1342 33.7182 50.6225 33.7329 50.4561C33.7304 50.3116 33.7187 50.1674 33.6979 50.0244C33.6905 49.9673 33.6832 49.9077 33.6751 49.849C34.0701 49.7486 34.3266 49.6556 34.3266 49.6556L34.281 44.2986C34.6166 43.6458 34.6785 42.2138 34.6768 41.1978C34.6768 40.545 34.6475 40.062 34.6475 40.062L35.1061 39.3121C35.1061 39.3121 35.2119 38.4145 35.0442 38.2178C34.97 38.1289 35.0034 38.0367 35.0645 37.9608C35.0962 37.9356 35.1297 37.9127 35.1647 37.8923C35.1647 37.8923 35.1598 37.8849 35.1541 37.8743C35.1861 37.8475 35.2202 37.8232 35.2559 37.8017C35.2559 37.8017 35.093 37.5487 35.2388 37.4418C35.3756 37.5348 35.4978 37.605 35.5907 37.6621C35.5841 37.7217 35.5776 37.756 35.5776 37.756L35.6167 37.6744C35.7063 37.725 35.7609 37.756 35.7609 37.756C35.7609 37.756 36.4792 36.3223 36.4637 36.1109C36.4483 35.8996 36.9524 35.0094 36.9524 35.0094C36.9524 35.0094 37.0135 34.5418 37.2888 34.346C37.5641 34.1501 37.5022 32.7311 37.5022 32.7311C37.5022 32.7311 37.5787 31.9918 37.762 31.6899C37.9452 31.388 37.595 30.9808 37.595 30.9808ZM23.8504 30.3517L23.8642 30.6936C23.7828 30.5622 23.7241 30.4675 23.7241 30.4675L23.8504 30.3517Z" fill="url(#paint0_linear)"/>
<path d="M35.8 37.1366L35.6241 37.8873C35.6241 37.8873 34.2151 37.1668 33.961 36.2512C33.7069 35.3357 34.3861 34.9881 34.3861 34.9881L35.699 35.5454L35.8 37.1366Z" fill="#FDFDFF"/>
<path opacity="0.1" d="M35.8 37.1366L35.6241 37.8873C35.6241 37.8873 34.2151 37.1668 33.961 36.2512C33.7069 35.3357 34.3861 34.9881 34.3861 34.9881L35.699 35.5454L35.8 37.1366Z" fill="#FDFDFF"/>
<path d="M27.8925 62.6862C27.8925 62.6862 26.5893 63.166 25.6935 63.2263C25.2178 63.2582 24.9678 62.966 24.8391 62.6845C24.7688 62.528 24.7235 62.3614 24.7047 62.1909L24.8212 60.8975L24.8831 60.2088L26.7864 59.7135L27.056 60.5393L27.0813 60.6021C27.1896 60.8779 27.6237 61.9999 27.6107 62.2341C27.6101 62.2941 27.6217 62.3535 27.6446 62.4089C27.6676 62.4643 27.7015 62.5145 27.7442 62.5564C27.7879 62.6058 27.8378 62.6494 27.8925 62.6862Z" fill="#FDFDFF"/>
<path d="M36.7936 62.0285C36.7969 62.0677 36.793 62.1073 36.7822 62.1451C36.7822 62.1451 33.9952 62.6111 33.4251 62.1451C33.2643 62.009 33.0769 61.9081 32.875 61.8488C32.673 61.7895 32.4609 61.7731 32.2522 61.8008C32.2522 61.8008 31.1739 61.8302 30.9939 61.4744C30.919 61.3251 30.9385 61.0354 30.985 60.7498C31.0323 60.4822 31.0954 60.2176 31.1739 59.9575L31.2171 59.9232L31.4736 59.7168L34.4773 59.6278H34.5001C34.4855 60.2431 35.5198 60.9489 35.5198 60.9489C36.6185 61.3569 36.7806 61.8179 36.7936 62.0285Z" fill="#FDFDFF"/>
<path opacity="0.1" d="M36.7936 62.0284C36.7965 62.0677 36.7923 62.1072 36.7814 62.1451C36.7814 62.1451 33.9952 62.611 33.425 62.1451C33.2644 62.0091 33.0772 61.9082 32.8754 61.8489C32.6735 61.7896 32.4616 61.7732 32.2531 61.8008C32.2531 61.8008 31.1739 61.8301 30.9947 61.4744C30.9198 61.3242 30.9385 61.0354 30.985 60.7498C31.4003 60.7914 32.056 60.895 32.3133 61.1422C32.7026 61.5184 33.3623 61.8938 33.7671 61.9232C34.0839 61.9436 35.9792 62.0039 36.7936 62.0284Z" fill="#FDFDFF"/>
<path opacity="0.1" d="M27.8925 62.6861C27.8925 62.6861 26.5893 63.166 25.6934 63.2263C25.2178 63.2582 24.9678 62.966 24.8399 62.6837C25.1714 62.7955 25.6316 62.913 25.8734 62.8053C26.1601 62.678 27.1766 62.5956 27.7467 62.5605C27.7901 62.6081 27.839 62.6503 27.8925 62.6861Z" fill="#FDFDFF"/>
<path d="M29.826 24.0204C28.7509 23.6018 27.368 22.2187 27.7133 21.5724C27.79 21.4093 27.8356 21.2333 27.8477 21.0535C27.8699 20.8093 27.8732 20.5637 27.8574 20.3191C27.8332 19.9183 27.7851 19.5194 27.7133 19.1245C27.7133 19.1245 31.0696 19.2003 30.8742 19.6956C30.8172 19.8409 30.8082 20.093 30.8237 20.3754C30.8392 20.6577 30.8799 20.9768 30.9222 21.2468C30.9809 21.6173 31.0395 21.8996 31.0395 21.8996C31.0395 21.8996 30.8343 22.1877 30.7137 22.2032C30.5932 22.2187 31.3685 24.6169 29.826 24.0204Z" fill="#CF6F80"/>
<path opacity="0.1" d="M27.0788 60.6021L27.0536 60.6299C26.0502 59.414 24.8366 60.9293 24.8366 60.9293L24.8187 60.8975L24.8806 60.2088L26.784 59.7135L27.0536 60.5393L27.0788 60.6021Z" fill="#FDFDFF"/>
<path opacity="0.1" d="M34.5009 59.7135C34.5009 59.7135 33.7679 59.698 33.377 60.044C32.986 60.39 31.0965 60.1191 31.178 60.044C31.2021 60.0068 31.2167 59.9642 31.2203 59.92L31.4769 59.7135L34.4806 59.6246C34.492 59.6792 34.5009 59.7135 34.5009 59.7135Z" fill="#FDFDFF"/>
<path d="M28.3274 50.1655C28.2728 50.3008 28.2313 50.4409 28.2036 50.5841C28.1357 50.9763 28.1168 51.3754 28.1474 51.7722C28.1775 52.3434 28.1474 56.1712 28.1474 56.1712C28.1474 56.1712 27.5032 57.192 27.144 57.5519C26.7848 57.9117 27.877 58.558 27.877 58.558C28.0399 59.4882 27.0528 60.5392 27.0528 60.5392C26.0494 59.3234 24.8358 60.8395 24.8358 60.8395C24.8358 60.8395 24.1761 59.6971 24.0116 59.2891C23.8471 58.8811 24.6558 58.5988 24.9401 58.4332C25.2243 58.2675 24.9262 57.2908 24.9262 57.2908C24.9262 57.2908 24.686 56.4348 24.4009 55.6539C24.1159 54.873 24.7153 50.9856 24.7153 50.9856C24.7153 50.9856 24.7462 50.2953 24.8204 50.0546C24.8578 49.8809 24.8652 49.702 24.8424 49.5258C24.8375 49.4662 24.8318 49.4165 24.8277 49.383C24.8236 49.3495 24.8204 49.334 24.8204 49.334L24.8318 49.3145L25.239 48.554C25.239 48.554 28.5229 49.6866 28.3274 50.1655Z" fill="#5BC2F1"/>
<path d="M34.5009 59.6237C34.5009 59.6237 33.7679 59.6082 33.377 59.9501C32.986 60.292 31.0965 60.0252 31.178 59.9501C31.2594 59.875 31.2529 59.3193 31.2529 59.3193C30.1444 57.8032 31.09 57.188 31.09 57.188C31.09 57.188 30.5948 54.8012 30.5052 53.9158C30.4425 53.2973 30.3651 51.6351 30.3236 50.6861C30.3057 50.2781 30.2951 49.9974 30.2951 49.9974L31.2008 49.8147L31.3172 49.791L33.5016 49.352C33.5016 49.352 33.5619 49.76 33.6026 50.0937C33.6229 50.2362 33.6343 50.3798 33.6368 50.5238C33.6221 50.687 33.6368 51.1978 33.6368 51.1978L33.7109 52.7294C33.6625 52.89 33.6375 53.0569 33.6368 53.2247C33.6515 53.4197 33.9357 56.212 33.9357 56.212C33.9357 56.212 34.4301 57.8783 34.2615 57.9982C34.0929 58.1182 34.5009 59.6237 34.5009 59.6237Z" fill="#5BC2F1"/>
<path opacity="0.1" d="M30.8742 19.6956C30.8172 19.8409 30.8082 20.093 30.8237 20.3754C30.3741 20.6466 29.8573 20.7853 29.3326 20.7755C28.8079 20.7656 28.2966 20.6077 27.8575 20.3199C27.8333 19.9189 27.7852 19.5197 27.7133 19.1245C27.7133 19.1245 31.0697 19.1987 30.8742 19.6956Z" fill="#FDFDFF"/>
<path d="M32.1716 17.8923C32.1723 18.1863 32.1261 18.4786 32.0348 18.7581C31.8308 19.3842 31.4123 19.918 30.8535 20.2649C30.2947 20.6119 29.6314 20.7498 28.9809 20.6542C28.3304 20.5586 27.7346 20.2357 27.2988 19.7425C26.8629 19.2494 26.6151 18.6177 26.5992 17.9592C26.5992 17.9364 26.5992 17.9151 26.5992 17.8923C26.5928 17.5216 26.6602 17.1534 26.7974 16.8092C26.9346 16.4649 27.1389 16.1514 27.3983 15.887C27.6577 15.6227 27.967 15.4127 28.3083 15.2694C28.6495 15.1261 29.0158 15.0522 29.3858 15.0522C29.7558 15.0522 30.1221 15.1261 30.4634 15.2694C30.8046 15.4127 31.1139 15.6227 31.3733 15.887C31.6327 16.1514 31.837 16.4649 31.9742 16.8092C32.1114 17.1534 32.1788 17.5216 32.1724 17.8923H32.1716Z" fill="#CF6F80"/>
<path opacity="0.1" d="M29.826 24.0204C28.7509 23.6018 27.368 22.2186 27.7133 21.5724C27.79 21.4093 27.8356 21.2333 27.8477 21.0534L29.3194 22.2652L30.2299 23.0134L30.9222 21.2476C30.9809 21.6181 31.0395 21.9004 31.0395 21.9004C31.0395 21.9004 30.8343 22.1885 30.7137 22.204C30.5932 22.2195 31.3685 24.6169 29.826 24.0204Z" fill="#FDFDFF"/>
<path d="M33.6319 29.3757L32.4029 50.0611L30.8 50.1664L26.6496 38.1721L27.3305 23.9322L27.4738 20.9236L29.3194 22.4422L30.2307 23.1905L30.9434 21.3733L32.2685 22.5303L33.6319 29.3757Z" fill="#5BC2F1"/>
<path opacity="0.1" d="M28.3274 50.1656C28.2728 50.3008 28.2313 50.441 28.2036 50.5842C27.0373 50.4038 25.9045 50.0492 24.8432 49.5324L24.8212 49.521L24.8285 49.3896L24.8326 49.3211L25.2398 48.5605C25.2398 48.5605 28.5228 49.6866 28.3274 50.1656Z" fill="#FDFDFF"/>
<path opacity="0.1" d="M31.2195 50.5875C30.9214 50.6383 30.6206 50.6726 30.3187 50.6903C30.3008 50.2823 30.2902 50.0016 30.2902 50.0016L31.1959 49.8188L31.2195 50.5875Z" fill="#FDFDFF"/>
<path opacity="0.1" d="M33.5977 50.0978C33.0187 50.2488 32.1244 50.4185 31.3238 50.3124L31.3124 49.7951L33.4967 49.3561C33.4967 49.3561 33.557 49.76 33.5977 50.0978Z" fill="#FDFDFF"/>
<path opacity="0.1" d="M31.3091 50.4071C27.9698 50.9783 24.9116 49.3406 24.9116 49.3406L24.9409 48.7857C24.9409 48.7857 25.0166 42.4953 24.8065 42.013C24.5964 41.5308 24.4327 39.0852 24.5516 38.7099C24.6705 38.3345 24.1175 32.7058 24.1175 32.7058L24.0279 30.421L20.7489 29.0901L22.2149 26.0285C22.4129 25.5993 22.5832 25.1577 22.7248 24.7066C22.9797 23.9119 24.1631 23.131 24.1631 23.131C24.1631 23.131 25.3766 22.3509 25.8563 22.3802C26.336 22.4096 26.9648 21.6899 26.9648 21.6899C27.429 20.5043 27.8493 21.0412 27.8493 21.0412C27.8493 21.0975 27.8493 21.0412 27.8265 21.2166C27.6636 22.5181 30.4604 26.6307 30.5003 26.7034L30.7666 33.2036L31.0362 41.4296L31.3091 50.4071Z" fill="#FDFDFF"/>
<path d="M31.2195 50.4071C27.8802 50.9783 24.8211 49.3406 24.8211 49.3406L24.8513 48.7857C24.8513 48.7857 24.927 42.4952 24.7161 42.013C24.5051 41.5307 24.3422 39.0852 24.462 38.7098C24.5817 38.3345 24.0279 32.7058 24.0279 32.7058L23.9375 30.421L20.6569 29.0852L22.1229 26.0236C22.3204 25.5942 22.4907 25.1527 22.6327 24.7017C22.8868 23.9069 24.071 23.126 24.071 23.126C24.071 23.126 25.2846 22.3459 25.7635 22.3753C26.2424 22.4047 26.8719 21.685 26.8719 21.685C27.337 20.4993 27.8493 21.0363 27.8493 21.0363C27.8493 21.0926 27.8004 21.1179 27.8265 21.2117C28.1848 22.474 30.3708 26.6258 30.4107 26.6984L30.6803 33.1986L30.9499 41.4246L31.2195 50.4071Z" fill="#FDFDFF"/>
<path opacity="0.1" d="M30.3195 26.8837C29.9604 26.7335 28.0578 24.5573 28.0578 24.5573V24.062C27.9886 23.8988 27.5773 23.9983 27.2433 24.1126L27.3867 21.104L27.5496 21.2395C27.9063 22.501 30.278 26.8111 30.3195 26.8837Z" fill="#FDFDFF"/>
<path d="M30.4099 26.7033C30.05 26.5532 28.1474 24.3769 28.1474 24.3769V23.8816C28.0782 23.7184 27.6669 23.818 27.3329 23.9322L27.4771 20.9236L27.64 21.0591C27.9975 22.3206 30.37 26.6315 30.4099 26.7033Z" fill="#FDFDFF"/>
<path opacity="0.1" d="M24.9116 37.5569C24.9564 37.5569 27.2336 37.317 27.2336 37.317C27.2336 37.317 28.6124 40.0334 28.522 40.6944C28.4316 41.3553 28.2679 41.9404 27.7133 41.8367C27.1587 41.7331 24.7283 41.9183 24.7283 41.9183L24.9116 37.5569Z" fill="#FDFDFF"/>
<path d="M24.8212 37.3765C24.866 37.3765 27.1432 37.1366 27.1432 37.1366C27.1432 37.1366 28.5212 39.8539 28.4316 40.514C28.3421 41.1741 28.1767 41.76 27.6229 41.6564C27.0691 41.5528 24.6379 41.738 24.6379 41.738L24.8212 37.3765Z" fill="#FDFDFF"/>
<path d="M26.5372 36.1011C26.5372 36.1011 28.6271 37.2264 28.6719 37.5699C28.7167 37.9135 27.6082 37.4198 27.3688 37.3602C27.2112 37.3222 27.0507 37.2971 26.8891 37.2851L25.2919 37.3284L26.5372 36.1011Z" fill="#CF6F80"/>
<path opacity="0.1" d="M29.7364 27.024C29.8578 27.024 29.9563 26.9254 29.9563 26.8037C29.9563 26.682 29.8578 26.5834 29.7364 26.5834C29.6149 26.5834 29.5165 26.682 29.5165 26.8037C29.5165 26.9254 29.6149 27.024 29.7364 27.024Z" fill="#FDFDFF"/>
<path d="M29.7364 26.9343C29.8578 26.9343 29.9563 26.8356 29.9563 26.714C29.9563 26.5923 29.8578 26.4937 29.7364 26.4937C29.6149 26.4937 29.5165 26.5923 29.5165 26.714C29.5165 26.8356 29.6149 26.9343 29.7364 26.9343Z" fill="#3F3D56"/>
<path opacity="0.1" d="M30.1412 36.5613C30.2626 36.5613 30.3611 36.4627 30.3611 36.341C30.3611 36.2193 30.2626 36.1207 30.1412 36.1207C30.0197 36.1207 29.9213 36.2193 29.9213 36.341C29.9213 36.4627 30.0197 36.5613 30.1412 36.5613Z" fill="#FDFDFF"/>
<path d="M30.1412 36.4707C30.2626 36.4707 30.3611 36.3721 30.3611 36.2504C30.3611 36.1287 30.2626 36.0301 30.1412 36.0301C30.0197 36.0301 29.9213 36.1287 29.9213 36.2504C29.9213 36.3721 30.0197 36.4707 30.1412 36.4707Z" fill="#3F3D56"/>
<path opacity="0.1" d="M29.9555 31.7927C30.0769 31.7927 30.1754 31.694 30.1754 31.5724C30.1754 31.4507 30.0769 31.3521 29.9555 31.3521C29.834 31.3521 29.7356 31.4507 29.7356 31.5724C29.7356 31.694 29.834 31.7927 29.9555 31.7927Z" fill="#FDFDFF"/>
<path d="M29.9555 31.703C30.0769 31.703 30.1754 31.6043 30.1754 31.4826C30.1754 31.361 30.0769 31.2623 29.9555 31.2623C29.834 31.2623 29.7356 31.361 29.7356 31.4826C29.7356 31.6043 29.834 31.703 29.9555 31.703Z" fill="#3F3D56"/>
<path d="M35.0246 37.2394C35.0246 37.2394 35.1744 37.4646 35.0246 37.5699C34.8747 37.6752 35.0392 37.9298 35.0392 37.9298C35.0392 37.9298 34.6654 38.1493 34.8299 38.3467C34.9945 38.5442 34.8902 39.4361 34.8902 39.4361L34.4406 40.1819C34.4406 40.1819 34.4675 40.6625 34.4691 41.312C34.4691 42.3255 34.4097 43.7502 34.0806 44.3998L34.1262 49.729C34.1262 49.729 32.5519 50.3051 31.2341 50.1297L31.0387 41.5781C31.0387 41.5781 31.3237 36.7286 31.4288 35.7984C31.4903 35.3154 31.5153 34.8286 31.5037 34.3418C31.5037 34.3418 31.4589 32.8861 31.3083 32.2105C31.3083 32.2105 31.1454 29.2835 31.1291 28.4732C31.1217 28.0856 31.1421 26.9547 31.1649 25.8792C31.1902 24.7033 31.2187 23.5944 31.2187 23.5944L30.9214 21.2378C30.9214 21.2378 31.2187 21.2076 31.3083 21.3276C31.3484 21.3651 31.392 21.3988 31.4386 21.4279C31.9517 21.7756 33.7646 22.8445 33.7646 22.8445C33.7646 22.8445 34.768 23.2443 35.0083 23.8172C35.2486 24.39 35.4155 24.7964 35.532 24.9596C35.6485 25.1228 35.712 25.8898 35.712 25.8898C35.712 25.8898 36.0573 27.3015 36.3269 27.5405C36.5965 27.7796 36.7936 29.3006 36.7936 29.3006L34.4113 31.1774C34.4113 31.1774 34.202 34.2994 34.1572 34.4202C34.1124 34.5409 35.0246 37.2394 35.0246 37.2394Z" fill="#FDFDFF"/>
<path d="M35.115 37.2394C35.115 37.2394 35.2641 37.4646 35.115 37.5699C34.966 37.6752 35.1289 37.9297 35.1289 37.9297C35.1289 37.9297 34.7575 38.1517 34.9204 38.3492C35.0833 38.5466 34.9806 39.4385 34.9806 39.4385L34.5311 40.1843C34.5311 40.1843 34.5579 40.6649 34.5604 41.3145C34.5604 42.3279 34.5009 43.7527 34.1719 44.4022L34.2167 49.7314C34.2167 49.7314 32.6399 50.3075 31.3238 50.1321L31.1291 41.5805C31.1291 41.5805 31.4142 36.731 31.5192 35.8008C31.5808 35.3179 31.6055 34.831 31.5933 34.3443C31.5933 34.3443 31.5485 32.8885 31.3987 32.2129C31.3987 32.2129 31.2358 29.2859 31.2187 28.4757C31.2114 28.0881 31.2325 26.9571 31.2545 25.8816C31.2798 24.7058 31.3083 23.5968 31.3083 23.5968L30.9157 21.2084C30.9157 21.2084 31.3083 21.2084 31.3987 21.33C31.4384 21.368 31.4821 21.4017 31.529 21.4304C32.0421 21.778 33.8559 22.8469 33.8559 22.8469C33.8559 22.8469 34.8585 23.2468 35.0987 23.8196C35.339 24.3924 35.506 24.7988 35.6232 24.962C35.7405 25.1252 35.8024 25.8922 35.8024 25.8922C35.8024 25.8922 36.1477 27.3039 36.4173 27.543C36.6869 27.7821 36.8816 29.2998 36.8816 29.2998L34.4993 31.1766C34.4993 31.1766 34.29 34.2986 34.2444 34.4193C34.1988 34.5401 35.115 37.2394 35.115 37.2394Z" fill="#FDFDFF"/>
<path opacity="0.1" d="M32.262 24.2896L32.477 24.9179L31.3449 26.0603C31.3702 24.8853 31.3987 23.7756 31.3987 23.7756L31.0061 21.3871C31.0061 21.3871 31.3987 21.3871 31.4891 21.5087C31.5287 21.5466 31.5724 21.58 31.6194 21.6083L32.5821 24.3908L32.262 24.2896Z" fill="#FDFDFF"/>
<path d="M32.1716 24.1093L32.3874 24.7376L31.2553 25.88C31.2806 24.7042 31.3091 23.5953 31.3091 23.5953L30.9157 21.2068C30.9157 21.2068 31.3091 21.2068 31.3987 21.3284C31.4386 21.3662 31.4823 21.3998 31.529 21.4288L32.4925 24.2105L32.1716 24.1093Z" fill="#FDFDFF"/>
<path opacity="0.1" d="M32.1716 17.8923C32.1723 18.1863 32.1261 18.4786 32.0348 18.7581C32.0194 18.7605 32.0037 18.7598 31.9886 18.756C31.9735 18.7522 31.9593 18.7454 31.9468 18.736C31.9257 18.0016 31.5649 17.3121 31.121 16.7254C30.9964 16.5483 30.8453 16.3914 30.673 16.2603C30.4989 16.1293 30.2823 16.0679 30.0655 16.0881C29.8211 16.1216 29.6053 16.2881 29.3585 16.3093C29.0327 16.3362 28.7412 16.1102 28.4178 16.0988C28.2864 16.1 28.1567 16.1293 28.0375 16.1848C27.9182 16.2402 27.8122 16.3205 27.7264 16.4203C27.5565 16.6216 27.4303 16.8561 27.3558 17.109C27.2277 17.4923 27.158 17.8929 27.1489 18.297C27.1448 18.5255 27.1229 18.8119 26.9111 18.8952C26.927 18.7271 26.908 18.5576 26.8551 18.3973C26.8023 18.2371 26.7168 18.0896 26.6041 17.9641L26.5992 17.9592C26.5992 17.9364 26.5992 17.9152 26.5992 17.8923C26.5928 17.5216 26.6602 17.1534 26.7974 16.8092C26.9346 16.4649 27.1389 16.1514 27.3983 15.887C27.6577 15.6227 27.967 15.4127 28.3083 15.2694C28.6495 15.1261 29.0158 15.0522 29.3858 15.0522C29.7558 15.0522 30.1221 15.1261 30.4634 15.2694C30.8046 15.4127 31.1139 15.6227 31.3733 15.887C31.6327 16.1514 31.837 16.4649 31.9742 16.8092C32.1114 17.1534 32.1788 17.5216 32.1724 17.8923H32.1716Z" fill="#FDFDFF"/>
<path d="M30.5395 13.459C30.1162 13.2595 29.6349 13.2218 29.1858 13.3529C28.9602 13.4198 28.7477 13.5283 28.5188 13.583C28.0301 13.7013 27.46 13.5732 27.0406 13.8596C26.8076 14.0228 26.6676 14.2807 26.5372 14.5312L26.2115 15.153C26.0339 15.4932 25.8547 15.8392 25.7806 16.2138C25.7065 16.5883 25.7513 17.0077 25.9883 17.3088C26.161 17.5283 26.4159 17.6662 26.6032 17.8727C26.7154 17.9983 26.8006 18.1457 26.8533 18.3058C26.906 18.4658 26.9251 18.6351 26.9095 18.8029C27.122 18.7213 27.1424 18.4341 27.1473 18.2056C27.1563 17.8014 27.2261 17.4009 27.3541 17.0175C27.4285 16.7646 27.5547 16.53 27.7247 16.3288C27.8106 16.2291 27.9167 16.1489 28.0359 16.0935C28.1551 16.038 28.2848 16.0087 28.4162 16.0073C28.742 16.0187 29.0344 16.244 29.3569 16.217C29.6012 16.1966 29.8179 16.0294 30.0638 15.9967C30.2807 15.9762 30.4974 16.0376 30.6714 16.1689C30.8436 16.2998 30.9944 16.4567 31.1185 16.634C31.5632 17.2207 31.924 17.9086 31.9452 18.6446C32.0372 18.7123 32.17 18.6242 32.2156 18.5198C32.2612 18.4153 32.2628 18.2929 32.3207 18.1934C32.3874 18.0783 32.5153 18.0171 32.6155 17.9306C32.8696 17.7111 32.9331 17.3415 32.9234 17.0061C32.9136 16.6707 32.8484 16.3305 32.912 16.0008C32.9502 15.7984 33.0366 15.6091 33.0838 15.4092C33.131 15.2093 33.1367 14.9849 33.0252 14.8127C32.8623 14.5598 32.5194 14.51 32.2205 14.4863C31.8809 14.4569 31.5771 14.4945 31.3604 14.2081C31.2587 14.0586 31.1443 13.9183 31.0184 13.7886C30.9752 13.7462 30.5395 13.4769 30.5395 13.459Z" fill="#512E4E"/>
<path opacity="0.1" d="M21.6871 30.6666L20.8361 29.0901L20.5665 31.5226C20.5665 31.5226 20.7163 32.6029 20.6862 32.7686C20.6561 32.9342 21.3003 34.4193 21.3003 34.4193C21.3003 34.4193 23.4284 38.217 24.2975 38.4128L27.2336 36.3108L26.4549 35.3202C26.4549 35.3202 26.1854 35.2149 26.1178 35.3202C26.1178 35.3202 24.6721 32.8281 24.5222 32.6478C24.3724 32.4675 24.4017 32.1076 24.4017 32.1076C24.4017 32.1076 24.1769 31.8677 24.2519 31.6425C24.3268 31.4173 23.8178 30.6364 23.8178 30.6364L24.282 30.2015L21.6871 30.6666Z" fill="#FDFDFF"/>
<path d="M20.8808 28.9106L20.6561 29.0901L20.3865 31.5226C20.3865 31.5226 20.5363 32.6029 20.5062 32.7686C20.4761 32.9342 21.1211 34.4193 21.1211 34.4193C21.1211 34.4193 23.2485 38.217 24.1175 38.4128L27.0544 36.3108L26.275 35.3202C26.275 35.3202 26.0054 35.2149 25.9378 35.3202C25.9378 35.3202 24.4921 32.8282 24.3423 32.6478C24.1924 32.4675 24.2225 32.1076 24.2225 32.1076C24.2225 32.1076 23.9977 31.8677 24.0727 31.6425C24.1476 31.4173 23.6378 30.6364 23.6378 30.6364L24.102 30.2015L20.8808 28.9106Z" fill="#FDFDFF"/>
<path opacity="0.1" d="M34.83 38.4397C34.9928 38.638 34.8902 39.5283 34.8902 39.5283L34.4406 40.2741C34.4406 40.2741 34.4675 40.7555 34.4691 41.4042L33.7133 41.6409C33.645 41.6622 33.5726 41.6669 33.5021 41.6546C33.4316 41.6422 33.3651 41.6131 33.3081 41.5698C33.2512 41.5264 33.2053 41.47 33.1745 41.4053C33.1437 41.3406 33.1288 41.2695 33.131 41.1978L33.2613 36.9865L35.0246 37.6621C34.8747 37.7665 35.0393 38.0228 35.0393 38.0228C35.0393 38.0228 34.6654 38.2414 34.83 38.4397Z" fill="#FDFDFF"/>
<path d="M34.9204 38.3492C35.0833 38.5475 34.9806 39.4385 34.9806 39.4385L34.5311 40.1844C34.5311 40.1844 34.5579 40.665 34.5604 41.3145L33.7907 41.5552C33.7238 41.5761 33.6529 41.5806 33.5839 41.5684C33.5149 41.5562 33.4499 41.5277 33.3941 41.4853C33.3383 41.4428 33.2935 41.3876 33.2633 41.3242C33.2331 41.2609 33.2185 41.1913 33.2206 41.1211L33.3517 36.8967L35.1158 37.5724C34.9652 37.6768 35.1297 37.9322 35.1297 37.9322C35.1297 37.9322 34.7575 38.1517 34.9204 38.3492Z" fill="#FDFDFF"/>
<path d="M35.5043 36.3419C35.5043 36.3419 35.3846 37.1081 35.0849 37.153C34.7852 37.1978 34.6508 38.3925 34.3519 38.35C34.053 38.3076 34.2509 37.2395 34.2615 37.0322C34.2721 36.8249 33.9357 35.9665 34.1873 35.7715C34.439 35.5765 35.2355 35.7715 35.2355 35.7715L35.5043 36.3419Z" fill="#CF6F80"/>
<path opacity="0.1" d="M36.142 30.4414L36.7073 29.299C36.7073 29.299 36.9321 30.1697 36.9321 30.6348C36.9321 31.0999 37.2464 31.1456 37.2464 31.1456C37.2464 31.1456 37.5909 31.5536 37.4093 31.8506C37.2277 32.1476 37.1544 32.8869 37.1544 32.8869C37.1544 32.8869 37.2139 34.2978 36.9443 34.4928C36.6747 34.6878 36.6185 35.1538 36.6185 35.1538C36.6185 35.1538 36.1233 36.0391 36.1388 36.2496C36.1543 36.4602 35.4498 37.8857 35.4498 37.8857C35.4498 37.8857 35.7943 36.1142 33.7866 35.3488C33.7866 35.3488 33.7712 34.7474 33.921 34.5826C34.0709 34.4177 34.3046 34.3427 34.158 33.5095C34.0114 32.6764 34.1157 31.6809 34.1157 31.481C34.1157 31.2811 34.5653 30.0342 34.5653 30.0342L36.142 30.4414Z" fill="#FDFDFF"/>
<path d="M36.3864 29.1358L36.8799 29.299C36.8799 29.299 37.1055 30.1697 37.1055 30.6348C37.1055 31.0999 37.4199 31.1456 37.4199 31.1456C37.4199 31.1456 37.7644 31.5536 37.5828 31.8506C37.4012 32.1476 37.3287 32.8869 37.3287 32.8869C37.3287 32.8869 37.3882 34.2978 37.1186 34.4928C36.849 34.6878 36.7887 35.1537 36.7887 35.1537C36.7887 35.1537 36.2943 36.0391 36.3098 36.2496C36.3253 36.4601 35.62 37.8857 35.62 37.8857C35.62 37.8857 35.9653 36.1142 33.9569 35.3488C33.9569 35.3488 33.9422 34.7474 34.0921 34.5826C34.2419 34.4177 34.4757 34.3426 34.3291 33.5095C34.1825 32.6764 34.2867 31.6809 34.2867 31.481C34.2867 31.281 34.7363 30.0342 34.7363 30.0342L36.3864 29.1358Z" fill="#FDFDFF"/>
<path opacity="0.1" d="M25.485 58.7457C25.485 58.7457 26.2717 58.2504 26.7881 58.6102C27.3045 58.9701 25.485 58.7457 25.485 58.7457Z" fill="#FDFDFF"/>
<path opacity="0.1" d="M31.5982 57.2141C31.5982 57.2141 32.2946 57.1244 32.8793 57.7551C33.4641 58.3859 31.5982 57.2141 31.5982 57.2141Z" fill="#FDFDFF"/>
<g opacity="0.1">
<path opacity="0.1" d="M32.6171 17.7519C32.5169 17.8384 32.3883 17.9004 32.3215 18.0155C32.2645 18.1142 32.2628 18.2358 32.2172 18.3419C32.1716 18.448 32.0389 18.5344 31.9468 18.4675C31.9257 17.7331 31.564 17.0436 31.1202 16.4561C30.9961 16.2788 30.8452 16.1219 30.673 15.991C30.4987 15.8597 30.2818 15.7983 30.0646 15.8188C29.8203 15.8523 29.6053 16.0187 29.3585 16.0391C29.0327 16.0669 28.7403 15.8409 28.417 15.8294C28.2856 15.8307 28.156 15.8602 28.0369 15.9158C27.9178 15.9714 27.8119 16.0518 27.7264 16.1517C27.5563 16.3527 27.4301 16.587 27.3558 16.8396C27.2278 17.223 27.1581 17.6235 27.1489 18.0277C27.144 18.2554 27.1228 18.5393 26.9127 18.6242C26.9176 18.6845 26.9176 18.7451 26.9127 18.8054C27.1245 18.7238 27.1457 18.4365 27.1505 18.208C27.1596 17.8039 27.2294 17.4034 27.3574 17.02C27.4317 16.7671 27.558 16.5325 27.728 16.3313C27.8137 16.2316 27.9196 16.1514 28.0387 16.0959C28.1578 16.0405 28.2873 16.0111 28.4186 16.0098C28.7444 16.0212 29.0376 16.2464 29.3601 16.2195C29.6045 16.1991 29.8211 16.0318 30.0663 15.9992C30.2834 15.9786 30.5003 16.04 30.6747 16.1713C30.8468 16.3022 30.9977 16.4591 31.1218 16.6364C31.5657 17.2231 31.9273 17.911 31.9485 18.6471C32.0405 18.7148 32.1732 18.6267 32.2189 18.5222C32.2645 18.4178 32.2661 18.2954 32.3231 18.1958C32.3899 18.0808 32.5186 18.0196 32.6188 17.9331C32.8729 17.7136 32.9364 17.3439 32.9266 17.0085C32.9266 16.9979 32.9266 16.9873 32.9266 16.9775C32.9111 17.268 32.8338 17.5642 32.6171 17.7519Z" fill="#FDFDFF"/>
<path opacity="0.1" d="M26.6048 17.694C26.4175 17.4875 26.1618 17.3496 25.9899 17.1309C25.8452 16.9374 25.7626 16.7043 25.7529 16.4626C25.7273 16.7646 25.8115 17.0657 25.9899 17.3105C26.1618 17.53 26.4175 17.6679 26.6048 17.8743C26.7847 18.0763 26.8927 18.3322 26.9119 18.6022C26.9244 18.4379 26.9036 18.2728 26.8508 18.1167C26.7981 17.9606 26.7144 17.8169 26.6048 17.694Z" fill="#FDFDFF"/>
<path opacity="0.1" d="M33.0854 15.2305C33.0373 15.4304 32.9518 15.6205 32.9127 15.8221C32.8896 15.9567 32.8811 16.0935 32.8875 16.2301C32.8902 16.1523 32.8987 16.0748 32.9127 15.9983C32.9518 15.796 33.0373 15.6066 33.0854 15.4067C33.1134 15.2965 33.1225 15.1822 33.1123 15.0689C33.1072 15.1233 33.0982 15.1773 33.0854 15.2305Z" fill="#FDFDFF"/>
</g>
<path opacity="0.1" d="M10.8102 62.0635C15.1931 62.0635 18.7462 61.4918 18.7462 60.7865C18.7462 60.0812 15.1931 59.5095 10.8102 59.5095C6.42724 59.5095 2.87418 60.0812 2.87418 60.7865C2.87418 61.4918 6.42724 62.0635 10.8102 62.0635Z" fill="#5BC2F1"/>
<path d="M11.0659 36.3231H10.5553V47.8425H11.0659V36.3231Z" fill="#FDFDFF"/>
<path d="M14.2749 47.8074L14.2431 48.3263L14.1975 49.0607L14.1788 49.3659L14.134 50.1003L14.1144 50.4055L14.0688 51.1399L13.5541 59.4687C13.5317 59.8271 13.3739 60.1634 13.1127 60.4093C12.8516 60.6552 12.5067 60.7921 12.1484 60.7922H9.47207C9.11377 60.7921 8.76901 60.6551 8.50799 60.4092C8.24696 60.1633 8.08931 59.827 8.06714 59.4687L7.55485 51.1342L7.50924 50.3998L7.49051 50.0946L7.4449 49.3602L7.42617 49.055L7.38056 48.3206L7.34798 47.8016C7.34232 47.7018 7.35709 47.6018 7.39139 47.5078C7.42568 47.4138 7.47878 47.3279 7.54741 47.2552C7.61605 47.1826 7.69879 47.1247 7.79054 47.0852C7.88229 47.0458 7.98113 47.0255 8.08099 47.0256H13.5549C13.6544 47.0265 13.7526 47.0478 13.8436 47.0881C13.9345 47.1285 14.0163 47.1871 14.0837 47.2604C14.1512 47.3336 14.203 47.42 14.2359 47.514C14.2687 47.6081 14.282 47.7079 14.2749 47.8074Z" fill="#3F3D56"/>
<path d="M14.2431 48.3263L14.1975 49.0582H7.4229L7.37729 48.3263H14.2431Z" fill="#9D9CB5"/>
<path d="M14.1788 49.3635L14.134 50.0962H7.48723L7.44162 49.3635H14.1788Z" fill="#9D9CB5"/>
<path d="M14.1144 50.4022L14.0696 51.1342H7.55159L7.50598 50.4022H14.1144Z" fill="#9D9CB5"/>
<path d="M6.59786 40.6405C9.57142 42.7963 10.8126 46.168 10.8126 46.168C10.8126 46.168 7.22906 46.0448 4.25469 43.889C1.28031 41.7331 0.0415344 38.3622 0.0415344 38.3622C0.0415344 38.3622 3.62349 38.4846 6.59786 40.6405Z" fill="#5BC2F1"/>
<path d="M0.039093 38.3622C0.039093 38.3622 3.7595 40.4308 4.95267 42.1436C6.14584 43.8563 10.8126 46.168 10.8126 46.168" stroke="#FDFDFF" stroke-width="2" stroke-miterlimit="10"/>
<path d="M8.51753 36.2978C10.1358 37.4704 10.8127 39.3055 10.8127 39.3055C10.8127 39.3055 8.86204 39.2386 7.24291 38.066C5.62379 36.8935 4.94861 35.0575 4.94861 35.0575C4.94861 35.0575 6.8984 35.1244 8.51753 36.2978Z" fill="#5BC2F1"/>
<path d="M4.94861 35.0575C4.94861 35.0575 6.97333 36.1836 7.62245 37.1154C8.27157 38.0473 10.8127 39.3055 10.8127 39.3055" stroke="#FDFDFF" stroke-width="2" stroke-miterlimit="10"/>
<path d="M13.1623 39.2125C11.3029 41.2598 10.9095 43.9355 10.9095 43.9355C10.9095 43.9355 13.5313 43.2908 15.389 41.2427C17.2468 39.1945 17.6418 36.5197 17.6418 36.5197C17.6418 36.5197 15.0217 37.1652 13.1623 39.2125Z" fill="#5BC2F1"/>
<path d="M17.6434 36.5206C17.6434 36.5206 15.2212 38.6193 14.6055 40.0652C13.9898 41.5112 10.9095 43.9355 10.9095 43.9355" stroke="#FDFDFF" stroke-width="2" stroke-miterlimit="10"/>
<path d="M81.4181 38.4919C81.4181 38.4919 80.0735 31.7894 80.5882 30.9554C80.5882 30.9554 80.6069 30.1803 80.576 29.1921C80.576 29.1545 80.576 29.117 80.576 29.0787C80.6666 29.1392 80.761 29.1937 80.8586 29.2419C81.3329 29.486 81.8773 29.5564 82.3979 29.441L81.9907 28.9865C81.893 28.8779 81.7911 28.7604 81.77 28.6168C81.7488 28.4732 81.8074 28.3451 81.8579 28.217C82.2448 27.2378 82.2652 26.0064 81.5199 25.259C80.8904 24.6307 80.7373 23.8196 80.0539 23.246C79.5547 22.8257 79.2802 22.2096 79.0212 21.614C78.8021 21.1105 78.5814 20.6029 78.456 20.0693C78.3582 19.6523 78.3192 19.2207 78.1848 18.8135C78.0504 18.4063 77.7987 18.0105 77.4053 17.8286C77.2653 17.7641 77.1097 17.7274 76.9818 17.6417C76.814 17.5283 76.7131 17.3439 76.5917 17.1823C75.9752 16.3663 73.9105 16.8469 72.9332 17.1782C72.6675 17.2617 72.4214 17.3982 72.21 17.5797L72.2189 17.565C72.2262 17.5528 72.2352 17.5405 72.2434 17.5283C72.1364 17.615 72.044 17.7183 71.9697 17.8343C71.8272 18.0603 71.7677 18.3239 71.6488 18.5687C71.5055 18.8584 70.7081 19.667 71.051 19.9926C71.075 20.0145 71.1026 20.0321 71.1324 20.0448C71.2612 20.0985 71.4029 20.1127 71.5397 20.0856L71.525 20.1207C71.4079 20.408 71.3479 20.7153 71.3483 21.0256C71.3483 22.3663 72.4518 23.4532 73.8144 23.4532C74.0706 23.4535 74.3252 23.4141 74.5694 23.3365C74.5751 23.3675 74.58 23.3985 74.5857 23.4295C74.5857 23.4418 74.5898 23.454 74.5914 23.4663L74.5482 23.5267C74.5461 23.5229 74.5436 23.5194 74.5409 23.516L73.2622 25.3063C73.0668 25.4442 71.9412 26.2602 71.8777 26.8722C71.8109 27.5421 71.7441 28.3263 71.7441 28.3263L71.7351 28.4944C71.6793 28.5412 71.6139 28.5753 71.5436 28.5943C71.4733 28.6133 71.3997 28.6168 71.3279 28.6046C70.9288 28.5393 70.9288 30.0734 70.9288 30.0734C70.9288 30.0734 70.6633 30.3182 70.4809 30.106C70.2984 29.8938 69.8163 30.6127 69.8163 30.6127L66.7947 30.7433L66.7255 30.7474L66.5626 30.2423C66.545 30.189 66.5072 30.1448 66.4574 30.1193C66.4075 30.0938 66.3496 30.089 66.2962 30.106C66.2836 30.1102 66.2714 30.1153 66.2596 30.1215L66.2482 30.128L66.227 30.1427L66.2164 30.1525C66.2106 30.1578 66.2051 30.1635 66.2001 30.1696L66.1904 30.1811L66.1855 30.186C66.1667 30.212 66.1542 30.2421 66.1491 30.2739C66.144 30.3056 66.1464 30.3381 66.1562 30.3687L66.2962 30.802C65.7131 30.9195 65.1169 31.2508 65.6031 32.1631L63.1386 31.707L63.936 32.3777L68.0522 33.2288C67.9976 33.3267 68.0335 33.4687 68.2037 33.6686C68.9367 34.5311 70.2724 34.7653 70.8099 34.8257C70.9519 35.1438 71.1292 35.4449 71.3385 35.7233L71.2921 36.5825C71.2921 36.5825 69.9311 43.1317 69.6819 43.4638C69.8077 43.321 69.9229 43.169 70.0264 43.0093C69.6314 44.3549 69.0792 46.1965 68.9342 46.4724C68.7013 46.913 68.4855 48.6959 68.751 48.8102C68.8324 48.8453 69.0654 48.8281 69.3977 48.8028V48.9505L69.383 54.5474C69.383 54.5474 69.4498 57.9803 69.2665 58.3075C69.0833 58.6347 69.0344 59.321 69.0344 59.321C69.0344 59.321 68.3014 60.6747 67.7207 61.219C67.7168 61.2232 67.7124 61.227 67.7077 61.2304L67.6898 61.1031C67.6898 61.1031 66.9918 61.986 65.4476 61.9362C65.4476 61.9362 64.5183 62.5417 65.8963 62.5743C67.2744 62.607 69.0344 62.5254 69.0344 62.5254C69.0344 62.5254 70.2634 60.6486 71.2929 60.8934V62.3157H71.6081V60.8705C71.7543 60.7741 71.8794 60.649 71.9758 60.5027C72.0723 60.3564 72.1381 60.192 72.1692 60.0194C72.1962 59.8416 72.1765 59.6598 72.1119 59.4919C72.0473 59.3241 71.9402 59.176 71.8011 59.0623C71.7386 59.0057 71.6885 58.9367 71.6539 58.8598C71.6192 58.7828 71.6009 58.6995 71.5999 58.6151L71.5885 58.6249C71.5885 58.5964 71.5812 58.567 71.5779 58.5368C71.4875 57.8024 71.3743 56.2871 71.7742 55.1659C72.3224 53.6286 72.4885 51.4874 72.0894 50.2129C71.9607 49.8054 71.8549 49.3911 71.7726 48.9717C71.7628 48.9187 71.7539 48.8681 71.7457 48.8208C72.0185 48.8577 72.2887 48.9123 72.5545 48.984C73.4789 49.2394 75.5012 49.2867 77.2278 49.2728C77.2319 49.3202 77.2367 49.3699 77.2424 49.4197C77.2732 49.7657 77.3376 50.1079 77.4347 50.4413C77.6513 51.0941 77.7507 53.9721 77.7507 53.9721C77.7507 53.9721 78.03 56.3385 77.8777 57.3014C77.7963 57.8367 77.7148 58.3744 77.6684 58.9146V58.9252C77.6684 58.9252 77.2107 60.2308 76.8759 60.9399C76.8678 60.9578 76.8588 60.9758 76.8507 60.9929C76.7615 61.0011 76.6736 61.0205 76.5893 61.0509C76.5893 61.0509 76.1405 61.9485 75.6934 62.097C75.2462 62.2455 75.3945 62.7343 76.4068 62.5547C77.4192 62.3752 78.9479 62.2283 78.9479 62.2283L79.0139 61.3128L79.325 60.9228L79.2436 61.8358L79.575 61.7706L79.5311 60.66L80.0401 60.0219C80.0401 60.0219 80.655 59.4736 79.7412 58.3948V58.4185C79.7314 58.403 79.7224 58.3866 79.7119 58.3711V58.3662C79.5604 58.1312 79.4398 57.6931 79.6605 56.9154C80.0596 55.5103 80.2917 54.2349 80.2917 54.2349C80.2917 54.2349 81.1828 50.8183 80.1118 49.2018H80.159C80.0492 48.9744 79.9717 48.7327 79.9285 48.4838C79.9231 48.4544 79.9182 48.4242 79.9138 48.3932C80.7063 48.3475 81.4841 48.2039 82.1186 47.8938C82.1161 47.8905 81.7341 39.7828 81.4181 38.4919ZM71.3572 32.8371V32.8534L71.1943 32.8616L71.3572 32.8371ZM70.7985 32.9146C70.7717 32.9206 70.7467 32.9326 70.7252 32.9497C70.6552 33.049 70.6112 33.1643 70.5973 33.2851L70.3432 33.228C70.3432 33.228 70.1649 33.1896 69.9083 33.1464L69.787 33.024C70.1209 32.9962 70.4679 32.9554 70.7985 32.9146Z" fill="url(#paint1_linear)"/>
<path d="M79.2061 60.6715L79.1091 61.8278L79.4341 61.7625L79.3852 60.5083L79.2061 60.6715Z" fill="#1D2366"/>
<path d="M71.7922 55.1815C71.4004 56.2994 71.5112 57.8081 71.5991 58.5409C71.6317 58.8118 71.6619 58.9766 71.6619 58.9766C71.6619 58.9766 71.0763 60.3132 71.0274 60.3638C70.9785 60.4144 69.304 61.4385 69.304 61.4385L68.1337 62.1231C68.1337 62.1231 66.9462 61.6017 67.5155 61.4222C67.6318 61.3754 67.7366 61.3038 67.8225 61.2125C68.3927 60.6698 69.1086 59.321 69.1086 59.321C69.1086 59.321 69.1574 58.6364 69.3366 58.3108C69.5158 57.9852 69.4506 54.5638 69.4506 54.5638L69.4645 48.9865V48.2594L71.692 48.2757C71.706 48.5225 71.7382 48.768 71.7881 49.0101C71.8681 49.428 71.9717 49.841 72.0984 50.2472C72.491 51.5193 72.3281 53.6498 71.7922 55.1815Z" fill="#FFB0B1"/>
<path opacity="0.1" d="M71.6619 58.9766C71.6619 58.9766 71.0763 60.3132 71.0274 60.3638C70.9785 60.4144 69.304 61.4385 69.304 61.4385L68.1337 62.1231C68.1337 62.1231 66.9462 61.6017 67.5155 61.4222C67.6318 61.3754 67.7366 61.3039 67.8225 61.2125L67.873 61.5691L68.2632 61.5527L71.6024 58.5425C71.6317 58.8118 71.6619 58.9766 71.6619 58.9766Z" fill="#FDFDFF"/>
<path d="M71.6211 58.6184L68.2632 61.649L67.873 61.6653L67.7916 61.0941C67.7916 61.0941 67.1091 61.9738 65.5926 61.9248C65.5926 61.9248 64.682 62.5278 66.0316 62.5605C67.3811 62.5931 69.1045 62.5115 69.1045 62.5115C69.1045 62.5115 70.3082 60.6347 71.3157 60.8795V62.2969H71.6252V60.8665C71.7691 60.7694 71.8919 60.6442 71.9863 60.4984C72.0806 60.3525 72.1445 60.1891 72.1741 60.0178C72.2009 59.8415 72.182 59.6611 72.1191 59.4942C72.0562 59.3273 71.9514 59.1794 71.815 59.0648C71.754 59.0075 71.7054 58.9384 71.6721 58.8616C71.6387 58.7849 71.6214 58.7021 71.6211 58.6184Z" fill="#1D2366"/>
<path d="M79.5156 56.9244C79.2989 57.6996 79.417 58.1362 79.5653 58.3703V58.3752C79.7554 58.6644 79.8876 58.9878 79.9546 59.3275L79.9676 59.4009L78.4397 61.6327L77.6106 61.9591C77.6106 61.9591 76.2773 61.5029 76.5209 61.3724C76.5819 61.3406 76.6772 61.1708 76.7864 60.9366C77.1122 60.2308 77.5617 58.9285 77.5617 58.9285V58.9179C77.609 58.3801 77.6839 57.844 77.767 57.3104C77.916 56.3499 77.6424 53.9925 77.6424 53.9925C77.6424 53.9925 77.5446 51.126 77.3329 50.474C77.2373 50.1425 77.1737 49.8026 77.1431 49.4589C77.0991 49.0509 77.0893 48.7147 77.0893 48.7147C77.0893 48.7147 77.9673 47.4907 79.5767 48.8126C79.7054 48.9181 79.8186 49.0411 79.913 49.1782C81.0248 50.7628 80.1297 54.2537 80.1297 54.2537C80.1297 54.2537 79.9057 55.5233 79.5156 56.9244Z" fill="#FFB0B1"/>
<path opacity="0.1" d="M79.9701 59.401L78.4421 61.6327L77.613 61.9591C77.613 61.9591 76.2798 61.503 76.5233 61.3724C76.5844 61.3406 76.6797 61.1708 76.7888 60.9367C77.3532 60.9318 77.6456 61.4703 77.6456 61.4703L78.3607 61.3561C78.3607 61.3561 79.3038 59.4989 79.5156 59.3855C79.7273 59.272 79.5482 58.5376 79.5482 58.5376V58.3508C79.5539 58.3573 79.5588 58.3646 79.5653 58.3712V58.3761C79.7554 58.6652 79.8876 58.9886 79.9546 59.3283L79.9701 59.401Z" fill="#FDFDFF"/>
<path d="M77.6945 61.5185C77.6945 61.5185 77.2872 60.7694 76.507 61.046C76.507 61.046 76.068 61.9436 75.629 62.0889C75.19 62.2341 75.3366 62.7237 76.3286 62.545C77.3206 62.3663 78.816 62.2186 78.816 62.2186L78.8811 61.3055L79.8894 60.0187C79.8894 60.0187 80.4905 59.4728 79.5962 58.3981V58.585C79.5962 58.585 79.7754 59.3194 79.5636 59.4328C79.3519 59.5462 78.412 61.4042 78.412 61.4042L77.6945 61.5185Z" fill="#1D2366"/>
<path opacity="0.1" d="M71.6944 48.2741C71.7085 48.521 71.7406 48.7664 71.7905 49.0085C70.8735 48.8739 70.0224 48.9408 69.4645 48.9849V48.2578L71.6944 48.2741Z" fill="#FDFDFF"/>
<path opacity="0.1" d="M80.0034 49.3814C80.0034 49.3814 78.7003 49.445 77.1463 49.4581C77.1024 49.0501 77.0926 48.7139 77.0926 48.7139C77.0926 48.7139 77.9706 47.4899 79.5799 48.8118C79.7086 48.9173 79.8218 49.0403 79.9163 49.1774C79.9415 49.247 79.9706 49.3151 80.0034 49.3814Z" fill="#FDFDFF"/>
<path d="M80.0035 49.2345C80.0035 49.2345 74.2958 49.5111 72.5562 49.0224C70.8165 48.5336 69.0923 48.9571 68.8325 48.8437C68.5727 48.7302 68.7836 46.9538 69.0117 46.514C69.2397 46.0742 70.4907 41.6262 70.4907 41.6262L71.6945 35.3382L72.9626 34.9881L73.0522 34.9628L75.2618 34.3525L76.8809 33.9045C76.8809 33.9045 80.1004 46.4977 79.8243 47.4263C79.724 47.7819 79.7079 48.156 79.7771 48.5189C79.8192 48.7668 79.8954 49.0076 80.0035 49.2345Z" fill="#1D2366"/>
<path d="M67.4984 31.0379C67.4984 31.0379 66.3581 32.2619 67.2214 32.9441C68.0848 33.6262 68.6524 33.0093 68.6524 33.0093L67.4984 31.0379Z" fill="#C7DAF5"/>
<path opacity="0.1" d="M67.4984 31.0379C67.4984 31.0379 66.3581 32.2619 67.2214 32.9441C68.0848 33.6262 68.6524 33.0093 68.6524 33.0093L67.4984 31.0379Z" fill="#FDFDFF"/>
<path d="M76.7106 22.9906C76.7106 22.9906 76.5771 23.1179 76.3759 23.3056C76.0892 23.574 75.6649 23.9665 75.2886 24.2954C74.7674 24.7499 74.3373 25.0836 74.4913 24.7988C74.6452 24.5141 74.6159 24.0179 74.5393 23.5536C74.5336 23.5226 74.5287 23.4916 74.523 23.4614C74.4596 23.1204 74.3756 22.7836 74.2714 22.4529C74.2714 22.4529 75.1135 21.3627 75.5794 20.9327C75.7528 20.7695 75.8742 20.7026 75.8815 20.816C75.8897 20.9686 76.0037 21.3056 76.1454 21.663C76.1495 21.6744 76.1536 21.685 76.1584 21.6964C76.2529 21.9412 76.3596 22.1926 76.4533 22.4096C76.5966 22.7425 76.7106 22.9906 76.7106 22.9906Z" fill="#FFB0B1"/>
<path opacity="0.1" d="M76.1584 21.6964C76.0793 22.1229 75.8873 22.5202 75.6025 22.8469C75.3176 23.1736 74.9505 23.4177 74.5393 23.5536C74.4746 23.1811 74.385 22.8134 74.2714 22.4528C74.2714 22.4528 75.8571 20.4006 75.8815 20.8159C75.8872 20.9734 76.011 21.3227 76.1584 21.6964Z" fill="#FDFDFF"/>
<path opacity="0.1" d="M74.3813 24.1019L74.5865 23.8123C74.5865 23.8123 74.7225 24.6429 75.2226 24.2766C75.7227 23.9102 75.7471 27.0338 75.7471 27.0338L75.2104 35.0738L71.332 34.8412L71.4419 30.9563L71.8809 28.9979L72.9666 26.1509L73.6124 25.21L74.3813 24.1019Z" fill="#FDFDFF"/>
<path d="M75.7471 27.0836L75.2585 34.3533L75.2071 35.1236L73.0448 34.9938L72.9633 34.9889L71.3344 34.891L71.4444 31.0052L71.8834 29.0469L72.969 26.1999L73.6149 25.259L74.3837 24.1468L74.589 23.858C74.589 23.858 74.725 24.6887 75.2251 24.3223L75.2356 24.3149C75.7243 24.0048 75.7471 27.0836 75.7471 27.0836Z" fill="#1D2366"/>
<path d="M71.9379 28.3663C71.9379 28.3663 71.7432 28.7743 71.3523 28.7082C70.9614 28.6421 70.9622 30.177 70.9622 30.177C70.9622 30.177 70.7024 30.4218 70.5232 30.2097C70.344 29.9975 69.8716 30.7148 69.8716 30.7148L66.9119 30.8453C66.9119 30.8453 68.2289 31.4483 67.9707 33.2729C67.9707 33.2729 72.442 32.9955 72.5886 32.572C72.7352 32.1485 71.9379 28.3663 71.9379 28.3663Z" fill="#FDFDFF"/>
<path opacity="0.03" d="M71.9379 28.3663C71.9379 28.3663 71.7432 28.7743 71.3523 28.7082C70.9614 28.6421 70.9622 30.177 70.9622 30.177C70.9622 30.177 70.7024 30.4218 70.5232 30.2097C70.344 29.9975 69.8716 30.7148 69.8716 30.7148L66.9119 30.8453C66.9119 30.8453 68.2289 31.4483 67.9707 33.2729C67.9707 33.2729 72.442 32.9955 72.5886 32.572C72.7352 32.1485 71.9379 28.3663 71.9379 28.3663Z" fill="#FDFDFF"/>
<path d="M63.3365 31.8041L64.1168 32.4716L70.5395 33.8237L69.743 33.0093L63.3365 31.8041Z" fill="#FDFDFF"/>
<path d="M74.3935 24.359C74.2868 24.5222 73.9813 25.3578 73.7264 26.0873C73.5139 26.6952 73.3363 27.2297 73.3363 27.2297C73.3363 27.2297 72.9218 29.9339 72.71 30.4227C72.4982 30.9114 72.6131 32.8176 72.6131 32.8176L71.8239 37.5251C71.8239 37.5251 71.4663 39.9526 70.9141 41.4026C70.3693 42.8298 69.7625 43.4989 69.7438 43.5201C69.9881 43.1888 71.3197 36.6658 71.3197 36.6658L71.7595 28.439C71.7595 28.439 71.8239 27.6573 71.889 26.989C71.9542 26.3207 73.2736 25.4084 73.2736 25.4084L74.5458 23.5961C74.6736 23.7674 74.5881 24.0661 74.3935 24.359Z" fill="#FDFDFF"/>
<path d="M71.0763 34.9319C71.0763 34.9319 69.203 34.8503 68.2957 33.7585C67.3884 32.6667 70.3929 33.3227 70.3929 33.3227L71.174 33.5022L71.0763 34.9319Z" fill="#FFB0B1"/>
<path opacity="0.1" d="M79.8242 47.427C79.724 47.7826 79.7078 48.1567 79.777 48.5197C77.7336 48.6649 75.5476 48.1117 75.5476 48.1117C75.1404 48.487 74.0677 49.0403 74.0677 49.0403L73.483 41.7779C73.1091 40.7987 72.9625 35.6686 72.9625 35.6686C72.9625 35.6686 72.9959 35.4001 73.044 34.9978C73.044 34.9881 73.044 34.9774 73.048 34.9677C73.1938 33.844 73.483 31.7347 73.6247 31.4499C73.8201 31.0582 73.0236 30.0162 73.0236 30.0162L73.386 26.9195L73.43 26.5458C74.194 26.2039 74.7796 25.1121 74.7796 25.1121L75.2291 24.323C75.7178 24.0089 75.743 27.0876 75.743 27.0876L75.2544 34.3573L76.8735 33.9093C76.8735 33.9093 80.1003 46.4984 79.8242 47.427Z" fill="#FDFDFF"/>
<path d="M81.9215 47.9289C79.6939 49.037 75.6453 48.0105 75.6453 48.0105C75.2381 48.3858 74.1655 48.9391 74.1655 48.9391L73.5799 41.6768C73.2068 40.6976 73.0602 35.5674 73.0602 35.5674C73.0602 35.5674 73.531 31.7396 73.7265 31.3488C73.7835 31.2345 73.7558 31.0648 73.6882 30.882C73.3558 30.012 73.2336 29.0756 73.3315 28.1493L73.4878 26.8184L73.531 26.4455C74.2958 26.1027 74.8814 25.011 74.8814 25.011L75.2886 24.2961L76.0379 22.9791L76.393 22.3557L76.4532 22.4104L76.9134 22.8282C76.9134 22.8282 77.1089 22.9914 77.4021 23.2362C78.0398 23.7747 79.1417 24.7229 79.7102 25.3031C80.2103 25.8139 80.3683 27.8008 80.4139 29.2965C80.444 30.2814 80.4261 31.0534 80.4261 31.0534C79.922 31.8849 81.2406 38.5605 81.2406 38.5605C81.5476 39.8506 81.9215 47.9289 81.9215 47.9289Z" fill="#FDFDFF"/>
<path opacity="0.03" d="M77.6456 24.9946C77.6456 24.9946 76.1169 27.9102 76.2945 29.0183C76.472 30.1264 76.977 31.3806 76.7334 31.6735C76.6498 31.7845 76.5416 31.8746 76.4174 31.9367C76.2932 31.9989 76.1564 32.0314 76.0175 32.0317C75.7732 32.048 75.1216 32.5042 75.1216 32.5531C75.1216 32.6021 74.5198 32.6021 73.9814 32.8306C73.4431 33.0591 72.6482 33.1888 72.6482 33.1888C72.6482 33.1888 71.1007 33.1398 70.9566 33.2867C70.8124 33.4336 70.6642 34.3124 70.9728 35.0134C71.2815 35.7143 71.6244 36.2374 71.8834 36.3328C72.1424 36.4283 73.786 35.8767 75.1192 35.7461C76.4525 35.6156 77.8997 34.5572 77.8997 34.5572C77.8997 34.5572 79.4936 33.986 79.773 33.0256C80.0523 32.0652 79.4317 26.7865 79.4317 26.7865C79.4317 26.7865 78.9626 24.3263 77.6456 24.9946Z" fill="#FDFDFF"/>
<path opacity="0.03" d="M77.4502 24.7498C77.4502 24.7498 75.9214 27.6662 76.1006 28.7735C76.2798 29.8808 76.7831 31.1358 76.5388 31.4295C76.4554 31.5406 76.3474 31.6308 76.2233 31.693C76.0992 31.7552 75.9624 31.7876 75.8237 31.7878C75.5794 31.8041 74.9278 32.2602 74.9278 32.3092C74.9278 32.3581 74.3259 32.3581 73.7876 32.5858C73.2492 32.8135 72.4543 32.944 72.4543 32.944C72.4543 32.944 70.9069 32.8951 70.7635 33.0419C70.6202 33.1888 70.4703 34.0685 70.7798 34.7686C71.0893 35.4687 71.4314 35.9926 71.6904 36.088C71.9494 36.1835 73.5929 35.6319 74.9262 35.5021C76.2594 35.3724 77.7067 34.3124 77.7067 34.3124C77.7067 34.3124 79.2998 33.7412 79.5759 32.7816C79.852 31.822 79.2346 26.5417 79.2346 26.5417C79.2346 26.5417 78.7671 24.0823 77.4502 24.7498Z" fill="#FDFDFF"/>
<path d="M77.5976 24.8478C77.5976 24.8478 76.0688 27.7641 76.248 28.8714C76.4272 29.9787 76.9305 31.2337 76.687 31.5267C76.6036 31.6381 76.4956 31.7285 76.3713 31.7908C76.2471 31.8531 76.1101 31.8856 75.9711 31.8857C75.7268 31.902 75.0752 32.3582 75.0752 32.4063C75.0752 32.4545 74.4741 32.4553 73.935 32.6838C73.3958 32.9122 72.6017 33.042 72.6017 33.042C72.6017 33.042 71.0543 32.993 70.9101 33.1399C70.7659 33.2868 70.6177 34.1664 70.9264 34.8665C71.2351 35.5667 71.578 36.0905 71.837 36.186C72.0959 36.2815 73.7395 35.7299 75.0728 35.5993C76.406 35.4687 77.8533 34.4104 77.8533 34.4104C77.8533 34.4104 79.4472 33.8392 79.7265 32.8788C80.0059 31.9184 79.3894 26.6397 79.3894 26.6397C79.3894 26.6397 78.9137 24.1836 77.5976 24.8478Z" fill="#FDFDFF"/>
<path opacity="0.1" d="M77.5642 32.6699C77.5642 32.6699 76.3425 32.4251 76.7676 32.8331C77.1928 33.2411 77.1903 33.5985 77.7108 33.5822C78.2312 33.5658 77.5642 32.6699 77.5642 32.6699Z" fill="#FDFDFF"/>
<path opacity="0.1" d="M79.6288 41.4484C79.6288 41.4484 79.0766 41.8229 80.133 42.6862C81.1893 43.5495 79.6288 41.4484 79.6288 41.4484Z" fill="#FDFDFF"/>
<path opacity="0.1" d="M78.5749 44.5271C78.5749 44.5761 78.3795 46.3223 79.1108 46.7588C79.8422 47.1954 78.5749 44.5271 78.5749 44.5271Z" fill="#FDFDFF"/>
<path d="M66.9625 30.8412C66.3728 30.8616 65.099 31.042 65.7595 32.2766C66.3435 33.3692 67.3249 32.6389 67.8771 32.0848C67.7424 31.5683 67.415 31.1231 66.9625 30.8412Z" fill="#FFB0B1"/>
<path d="M67.8844 32.0767L67.9105 32.0497L67.8844 32.0767Z" fill="#FFB0B1"/>
<path opacity="0.1" d="M77.4021 23.286C76.7766 23.7144 76.2521 24.0758 76.1495 24.1509C75.8693 24.359 75.335 25.5805 74.9905 26.2039C74.716 26.7058 73.8242 26.8347 73.4879 26.8665L73.531 26.4936C74.2958 26.1509 74.8814 25.0591 74.8814 25.0591L76.393 22.4039L76.9134 22.878C76.9134 22.878 77.1089 23.0412 77.4021 23.286Z" fill="#FDFDFF"/>
<path d="M77.4021 23.237C76.7766 23.6654 76.2521 24.0269 76.1495 24.1028C75.8693 24.31 75.335 25.5316 74.9905 26.155C74.716 26.6568 73.8242 26.7858 73.4879 26.8176L73.531 26.4447C74.2958 26.102 74.8814 25.0102 74.8814 25.0102L76.393 22.3549L76.9134 22.8274C76.9134 22.8274 77.1089 22.9889 77.4021 23.237Z" fill="#DCE7FF"/>
<path d="M76.1983 21.1579C76.1987 21.6477 76.0504 22.1261 75.7732 22.5295C75.4458 23.0066 74.9585 23.3503 74.3999 23.4982C73.8412 23.6461 73.2481 23.5885 72.7282 23.3358C72.2083 23.083 71.796 22.652 71.5662 22.1208C71.3364 21.5896 71.3043 20.9934 71.4757 20.4405C71.647 19.8876 72.0106 19.4146 72.5003 19.1072C72.99 18.7999 73.5734 18.6786 74.1447 18.7654C74.7161 18.8522 75.2374 19.1413 75.6142 19.5802C75.991 20.0192 76.1982 20.5789 76.1983 21.1579Z" fill="#FFB0B1"/>
<path opacity="0.1" d="M80.4139 29.2974C80.0832 29.0935 79.8138 28.8036 79.6345 28.4585C79.4985 28.1893 79.4081 27.8784 79.1759 27.6874C78.9666 27.5161 78.6873 27.4745 78.4266 27.3978C77.5698 27.144 76.8515 26.3606 76.8246 25.4663C76.8116 25.0453 76.9427 24.625 76.8833 24.208C76.8495 23.9721 76.7558 23.7487 76.6112 23.5593C76.5395 23.4688 76.4608 23.3839 76.3759 23.3056C76.2618 23.1978 76.1421 23.0934 76.0379 22.9792C75.9722 22.9084 75.9148 22.8304 75.8668 22.7466C75.8281 22.678 75.7967 22.6055 75.7732 22.5304C75.6103 22.031 75.7585 21.4386 75.5793 20.9335L75.5696 20.9057C75.502 20.7262 75.3643 20.5467 75.1729 20.5328C74.9815 20.5189 74.8178 20.6781 74.6354 20.7491C74.2534 20.8976 73.8413 20.6446 73.5228 20.3868C73.2044 20.1289 72.8452 19.8343 72.4404 19.8914C72.1725 19.9298 71.9607 20.1126 71.714 20.2072C71.6582 20.2288 71.6007 20.2455 71.5421 20.257C71.751 19.7352 72.1347 19.3025 72.6273 19.0334C73.12 18.7642 73.6908 18.6753 74.2417 18.782C74.7927 18.8887 75.2894 19.1843 75.6464 19.618C76.0035 20.0517 76.1986 20.5965 76.1983 21.1587C76.1986 21.3284 76.1808 21.4978 76.1454 21.6638C76.1494 21.6752 76.1535 21.6858 76.1584 21.6972C76.2529 21.942 76.3596 22.1934 76.4532 22.4104L76.9134 22.8282C76.9134 22.8282 77.1089 22.9914 77.4021 23.2362C78.0398 23.7748 79.1417 24.7229 79.7102 25.3031C80.2103 25.8155 80.3667 27.8017 80.4139 29.2974Z" fill="#FDFDFF"/>
<path d="M71.6854 18.7164C71.8019 18.479 71.8597 18.213 71.999 17.9877C72.2034 17.6613 72.5602 17.4524 72.9267 17.326C73.8837 16.9955 75.9059 16.5157 76.5103 17.326C76.6292 17.4892 76.7277 17.6703 76.8922 17.7829C77.0177 17.8686 77.1691 17.9053 77.3068 17.9698C77.692 18.1509 77.938 18.5459 78.0691 18.949C78.2002 19.3521 78.2393 19.7846 78.3354 20.1999C78.4584 20.7327 78.6742 21.2378 78.8893 21.7397C79.1426 22.3321 79.4113 22.9465 79.9 23.3651C80.567 23.9363 80.7144 24.745 81.3334 25.3717C82.0664 26.1158 82.0428 27.3439 81.6649 28.319C81.6152 28.4471 81.559 28.5809 81.5786 28.7172C81.5981 28.8535 81.6991 28.9775 81.7944 29.086L82.1951 29.5389C81.2471 29.7682 80.1745 29.2721 79.733 28.4014C79.597 28.1322 79.5066 27.8221 79.2737 27.6303C79.0652 27.459 78.785 27.4182 78.5252 27.3415C77.6684 27.0869 76.9501 26.3027 76.9232 25.4084C76.9101 24.9881 77.0413 24.5679 76.9818 24.1517C76.9487 23.9142 76.8547 23.6893 76.709 23.4989C76.485 23.206 76.147 23.0094 75.9646 22.683C75.6559 22.1371 75.8905 21.428 75.6681 20.8421C75.5997 20.6626 75.4629 20.483 75.2715 20.4692C75.0801 20.4553 74.9164 20.6144 74.7331 20.6854C74.352 20.8339 73.9398 20.5818 73.6214 20.3231C73.3029 20.0644 72.9438 19.7707 72.5382 19.8286C72.2702 19.8662 72.0593 20.0489 71.8125 20.1444C71.6301 20.2146 71.2603 20.2774 71.1007 20.1232C70.7635 19.8123 71.5445 19.0069 71.6854 18.7164Z" fill="#591D4B"/>
<path opacity="0.1" d="M79.9595 28.1321C79.8227 27.8629 79.7331 27.5528 79.5001 27.3618C79.2916 27.1905 79.0115 27.1489 78.7508 27.0722C77.8949 26.8184 77.1765 26.0342 77.1488 25.1399C77.1358 24.7197 77.2669 24.2986 77.2083 23.8824C77.1742 23.6464 77.0802 23.4231 76.9354 23.2337C76.7106 22.9408 76.3726 22.7441 76.191 22.4177C75.8823 21.8727 76.1169 21.1636 75.8938 20.5769C75.8262 20.3982 75.6885 20.2186 75.4979 20.204C75.3073 20.1893 75.142 20.35 74.9596 20.421C74.5784 20.5695 74.1655 20.3166 73.8479 20.0587C73.5302 19.8009 73.1694 19.5063 72.7646 19.5634C72.4967 19.6018 72.2849 19.7845 72.039 19.8792C71.8565 19.9494 71.486 20.013 71.3263 19.8588C70.9908 19.5324 71.7718 18.7286 71.9119 18.4398C72.0284 18.2015 72.0862 17.9363 72.2263 17.7111C72.2336 17.6989 72.2418 17.6866 72.2499 17.6744C72.1451 17.7613 72.0547 17.8643 71.982 17.9796C71.8427 18.2048 71.7849 18.4692 71.6684 18.7082C71.5275 18.9971 70.7464 19.8033 71.0828 20.1272C71.2457 20.2823 71.6122 20.2186 71.7946 20.1485C72.039 20.053 72.2523 19.8702 72.5203 19.8327C72.9275 19.7747 73.2859 20.0693 73.6035 20.3272C73.9212 20.585 74.3365 20.838 74.7161 20.6895C74.8985 20.6185 75.0581 20.4585 75.2536 20.4732C75.4491 20.4879 75.5794 20.6666 75.6502 20.8461C75.8726 21.432 75.638 22.1411 75.9467 22.687C76.1291 23.0077 76.4671 23.2084 76.6911 23.503C76.8369 23.6933 76.9309 23.9182 76.9639 24.1558C77.0234 24.572 76.8923 24.9922 76.9053 25.4124C76.9322 26.31 77.6505 27.0909 78.5073 27.3455C78.7655 27.4222 79.0473 27.463 79.2558 27.6344C79.4895 27.8261 79.5816 28.1362 79.7152 28.4055C80.1566 29.2762 81.2292 29.7723 82.1772 29.543L81.9883 29.3292C81.1665 29.3414 80.3349 28.8731 79.9595 28.1321Z" fill="#FDFDFF"/>
<path opacity="0.1" d="M74.3446 24.408C74.238 24.5712 73.9325 25.4067 73.6776 26.1362C73.439 26.0432 73.2224 25.45 73.2224 25.45L74.4945 23.6368C74.6248 23.8164 74.5393 24.1142 74.3446 24.408Z" fill="#FDFDFF"/>
<path d="M74.3935 24.359C74.2868 24.5222 73.9814 25.3578 73.7264 26.0873C73.4878 25.995 73.2712 25.401 73.2712 25.401L74.5433 23.5887C74.6736 23.7674 74.5881 24.066 74.3935 24.359Z" fill="#DCE7FF"/>
<path d="M66.9967 32.6952L66.2913 30.4667C66.283 30.4406 66.2799 30.4131 66.2822 30.3858C66.2844 30.3585 66.2921 30.3319 66.3046 30.3076C66.3172 30.2832 66.3344 30.2616 66.3554 30.244C66.3763 30.2263 66.4005 30.213 66.4265 30.2047C66.479 30.1883 66.5359 30.1933 66.5847 30.2187C66.6335 30.2441 66.6703 30.2877 66.6872 30.3402L67.3925 32.5662L67.3224 33.0322L66.9967 32.6952Z" fill="#BE8B87"/>
<path opacity="0.1" d="M66.3582 30.2709C66.4108 30.2542 66.4678 30.2591 66.5168 30.2845C66.5658 30.3099 66.6028 30.3537 66.6196 30.4063L67.3249 32.6323L67.272 32.9816L67.3233 33.0354L67.3933 32.5695L66.6839 30.3435C66.6671 30.291 66.6303 30.2474 66.5815 30.222C66.5327 30.1966 66.4758 30.1916 66.4233 30.208C66.3792 30.2224 66.341 30.2511 66.315 30.2896C66.3288 30.2822 66.3433 30.2759 66.3582 30.2709Z" fill="#FDFDFF"/>
<path d="M66.9966 32.6952L67.3925 32.5695L67.3346 32.9514L67.3224 33.0355L67.2068 32.9147L66.9966 32.6952Z" fill="#EFC8C4"/>
<path d="M67.2068 32.9147C67.2137 32.906 67.2223 32.8988 67.232 32.8935C67.2378 32.8899 67.2444 32.8879 67.2512 32.8879C67.258 32.8879 67.2646 32.8899 67.2703 32.8935C67.2759 32.9002 67.2805 32.9076 67.2842 32.9155C67.2895 32.9245 67.2969 32.9322 67.3056 32.938C67.3143 32.9438 67.3243 32.9475 67.3346 32.949L67.3224 33.0306L67.2068 32.9147Z" fill="#727A9C"/>
<path d="M66.2873 31.2582C66.2873 31.2582 67.702 31.25 67.3689 31.853C67.0358 32.4561 66.5153 32.5287 66.5153 32.5287L66.2873 31.2582Z" fill="#FFB0B1"/>
<path d="M57.4887 4.19586H57.4277C54.9973 4.19586 52.848 5.48431 51.6117 7.38557C50.3753 5.48431 48.226 4.19586 45.7957 4.19586H45.7346C43.9107 4.21328 42.1674 4.95115 40.8834 6.24912C39.5995 7.5471 38.8787 9.30029 38.8777 11.1277C38.8777 13.397 39.8697 16.6169 41.8041 19.2664C45.4895 24.315 51.6117 28.7319 51.6117 28.7319C51.6117 28.7319 57.7339 24.3158 61.4185 19.2664C63.3536 16.6169 64.3448 13.397 64.3448 11.1277C64.3438 9.30043 63.6231 7.54736 62.3394 6.24941C61.0556 4.95145 59.3125 4.21349 57.4887 4.19586ZM56.6148 19.6548C56.3381 19.6538 56.0681 19.5689 55.8403 19.4113C55.6125 19.2538 55.4376 19.0309 55.3386 18.7719H53.8856C53.7899 18.7713 53.6968 18.7408 53.6193 18.6846C53.5418 18.6285 53.4837 18.5494 53.4531 18.4586L53.0068 17.1114L51.5946 22.0555C51.5671 22.1507 51.5095 22.2343 51.4305 22.2939C51.3515 22.3535 51.2553 22.3858 51.1564 22.386H51.1279C51.0247 22.381 50.9263 22.3406 50.8493 22.2717C50.7722 22.2028 50.721 22.1095 50.7044 22.0073L49.249 13.2371L48.1853 18.4268C48.1609 18.5254 48.1042 18.6129 48.0244 18.6755C47.9445 18.738 47.846 18.772 47.7447 18.7719H45.698C45.6366 18.7745 45.5754 18.7647 45.5179 18.7429C45.4604 18.7212 45.408 18.6881 45.3636 18.6455C45.3193 18.6029 45.284 18.5518 45.2599 18.4952C45.2358 18.4386 45.2234 18.3777 45.2234 18.3162C45.2234 18.2547 45.2358 18.1938 45.2599 18.1372C45.284 18.0806 45.3193 18.0295 45.3636 17.9869C45.408 17.9443 45.4604 17.9112 45.5179 17.8895C45.5754 17.8677 45.6366 17.8579 45.698 17.8605H47.3863L48.893 10.8829C48.9178 10.7798 48.9775 10.6884 49.062 10.6245C49.1465 10.5606 49.2506 10.528 49.3564 10.5325C49.4622 10.5369 49.5632 10.578 49.6421 10.6488C49.721 10.7196 49.7729 10.8156 49.7889 10.9205L51.2753 19.867L52.541 15.4435C52.5673 15.3503 52.623 15.2682 52.6998 15.2094C52.7766 15.1506 52.8703 15.1182 52.9669 15.1171H52.9759C53.0716 15.1171 53.1649 15.1474 53.2424 15.2037C53.3199 15.26 53.3777 15.3393 53.4075 15.4304L54.2147 17.8629H55.3207C55.3993 17.6236 55.5424 17.4106 55.7342 17.2476C55.926 17.0846 56.1591 16.9778 56.4076 16.9391C56.6561 16.9004 56.9105 16.9313 57.1426 17.0282C57.3748 17.1252 57.5757 17.2846 57.7231 17.4887C57.8706 17.6929 57.9588 17.9339 57.9782 18.1851C57.9976 18.4364 57.9473 18.6881 57.8329 18.9125C57.7185 19.1369 57.5445 19.3253 57.3299 19.4569C57.1154 19.5885 56.8688 19.6581 56.6173 19.6581L56.6148 19.6548Z" fill="#5BC2F1"/>
</g>
<defs>
<linearGradient id="paint0_linear" x1="29.0213" y1="63.2288" x2="29.0213" y2="13.0175" gradientUnits="userSpaceOnUse">
<stop stop-color="#808080" stop-opacity="0.25"/>
<stop offset="0.54" stop-color="#808080" stop-opacity="0.12"/>
<stop offset="1" stop-color="#808080" stop-opacity="0.1"/>
</linearGradient>
<linearGradient id="paint1_linear" x1="18179.8" y1="37885.1" x2="18179.8" y2="12111.2" gradientUnits="userSpaceOnUse">
<stop stop-color="#808080" stop-opacity="0.25"/>
<stop offset="0.54" stop-color="#808080" stop-opacity="0.12"/>
<stop offset="1" stop-color="#808080" stop-opacity="0.1"/>
</linearGradient>
<clipPath id="clip0">
<rect width="90" height="63.871" fill="white"/>
</clipPath>
</defs>
</svg>
