<svg width="329" height="137" viewBox="0 0 329 137" fill="none" xmlns="http://www.w3.org/2000/svg">
<path d="M325.577 136.867C236.05 98.5029 152.36 92.9554 97.9184 95.0574C38.9375 97.3345 0.648948 108.826 0.269232 108.942L0.0632494 108.19C0.444095 108.074 38.8228 96.5544 97.8962 94.2736C132.644 92.9373 167.412 94.9875 201.746 100.398C244.371 107.109 286.039 119.108 325.866 136.141L325.577 136.867Z" fill="#BAE8FD"/>
<g clip-path="url(#clip0_201_203)">
<path d="M52.1871 81.404C60.3656 81.404 66.9957 67.8986 66.9957 51.2389C66.9957 34.5792 60.3656 21.0739 52.1871 21.0739C44.0085 21.0739 37.3785 34.5792 37.3785 51.2389C37.3785 67.8986 44.0085 81.404 52.1871 81.404Z" fill="#BAE8FD"/>
<path d="M52.0511 51.5518C52.7898 38.4212 54.2781 29.5518 54.293 29.4638L53.9701 29.4092C53.9552 29.4973 52.4642 38.3809 51.7243 51.5284C51.0415 63.6629 50.8768 82.0169 53.97 100.545L54.2931 100.492C51.2052 81.9947 51.3695 63.6685 52.0511 51.5518Z" fill="#BAE8FD"/>
<path d="M65.4225 45.1215L52.0332 52.2759L52.1878 52.5642L65.5771 45.4098L65.4225 45.1215Z" fill="#BAE8FD"/>
<path d="M38.0531 48.7072L37.8986 48.9956L51.2898 56.1464L51.4443 55.858L38.0531 48.7072Z" fill="#BAE8FD"/>
<path d="M154.871 78.2681C165.482 78.2681 174.083 60.7472 174.083 39.1341C174.083 17.5209 165.482 0 154.871 0C144.261 0 135.66 17.5209 135.66 39.1341C135.66 60.7472 144.261 78.2681 154.871 78.2681Z" fill="#BAE8FD"/>
<path d="M154.638 39.5349C155.596 22.4974 157.528 10.9892 157.547 10.8749L157.241 10.8231C157.222 10.9375 155.288 22.4592 154.328 39.5127C153.442 55.2523 153.229 79.059 157.241 103.091L157.547 103.04C153.54 79.0378 153.753 55.2576 154.638 39.5349Z" fill="#BAE8FD"/>
<path d="M172.069 31.248L154.699 40.5297L154.845 40.803L172.216 31.5214L172.069 31.248Z" fill="#BAE8FD"/>
<path d="M136.508 35.8999L136.361 36.1733L153.734 45.4503L153.881 45.1769L136.508 35.8999Z" fill="#BAE8FD"/>
<path d="M131.724 88.8673C135.689 88.8673 138.902 82.321 138.902 74.2458C138.902 66.1705 135.689 59.6243 131.724 59.6243C127.76 59.6243 124.547 66.1705 124.547 74.2458C124.547 82.321 127.76 88.8673 131.724 88.8673Z" fill="#E6E6E6"/>
<path d="M131.718 74.8757L131.761 74.955L138.251 71.4871L138.104 71.2137L131.732 74.6188C132.084 68.1391 132.806 63.7893 132.82 63.7036L132.514 63.6519C132.498 63.7454 131.641 68.9109 131.337 76.3853L124.91 72.9509L124.763 73.2243L131.253 76.6922L131.331 76.5476C131.087 82.7167 131.224 90.4304 132.514 98.1579L132.82 98.107C131.414 89.6817 131.383 81.2723 131.718 74.8757Z" fill="#BAE8FD"/>
<path d="M82.1451 102.887C82.1451 102.887 82.2524 100.644 84.4505 100.905Z" fill="#BAE8FD"/>
<path d="M81.5241 100.753C82.1317 100.753 82.6242 100.261 82.6242 99.6543C82.6242 99.0478 82.1317 98.556 81.5241 98.556C80.9165 98.556 80.424 99.0478 80.424 99.6543C80.424 100.261 80.9165 100.753 81.5241 100.753Z" fill="#BAE8FD"/>
<path d="M81.6556 101.504H81.345V103.674H81.6556V101.504Z" fill="#BAE8FD"/>
<path d="M122.205 103.352C122.205 103.352 122.312 101.109 124.51 101.37Z" fill="#BAE8FD"/>
<path d="M121.584 101.218C122.192 101.218 122.684 100.726 122.684 100.119C122.684 99.5127 122.192 99.021 121.584 99.021C120.976 99.021 120.484 99.5127 120.484 100.119C120.484 100.726 120.976 101.218 121.584 101.218Z" fill="#BAE8FD"/>
<path d="M121.716 101.969H121.405V104.139H121.716V101.969Z" fill="#BAE8FD"/>
<path d="M56.2148 99.4769C56.2148 99.4769 56.3221 97.2339 58.5202 97.4946Z" fill="#BAE8FD"/>
<path d="M55.5938 97.3424C56.2014 97.3424 56.6939 96.8506 56.6939 96.2441C56.6939 95.6375 56.2014 95.1458 55.5938 95.1458C54.9862 95.1458 54.4937 95.6375 54.4937 96.2441C54.4937 96.8506 54.9862 97.3424 55.5938 97.3424Z" fill="#BAE8FD"/>
<path d="M55.7253 98.0935H55.4148V100.264H55.7253V98.0935Z" fill="#BAE8FD"/>
<path d="M73.1394 96.5316C73.1394 96.5316 73.2466 94.2886 75.4447 94.5493Z" fill="#BAE8FD"/>
<path d="M72.5184 94.3972C73.1259 94.3972 73.6185 93.9054 73.6185 93.2989C73.6185 92.6923 73.1259 92.2006 72.5184 92.2006C71.9108 92.2006 71.4182 92.6923 71.4182 93.2989C71.4182 93.9054 71.9108 94.3972 72.5184 94.3972Z" fill="#BAE8FD"/>
<path d="M72.6498 95.1483H72.3393V97.3185H72.6498V95.1483Z" fill="#BAE8FD"/>
<path d="M115.528 100.717C115.528 100.717 115.636 98.474 117.834 98.7347Z" fill="#BAE8FD"/>
<path d="M114.907 98.5825C115.515 98.5825 116.008 98.0907 116.008 97.4842C116.008 96.8776 115.515 96.3859 114.907 96.3859C114.3 96.3859 113.807 96.8776 113.807 97.4842C113.807 98.0907 114.3 98.5825 114.907 98.5825Z" fill="#BAE8FD"/>
<path d="M115.039 99.3336H114.728V101.504H115.039V99.3336Z" fill="#BAE8FD"/>
<path d="M163.275 96.2205L169.665 105.681L163.715 111.621L162.944 110.081L164.266 107.001C164.266 107.001 164.046 104.14 163.275 103.37C162.503 102.6 159.088 97.9805 159.088 97.9805L163.275 96.2205Z" fill="#FFB8B8"/>
<path d="M155.121 65.6404C155.121 65.6404 156.333 67.5551 153.799 75.8052C153.799 75.8052 165.619 95.7223 163.746 97.0423C161.873 98.3623 156.804 101.284 155.482 100.404C154.16 99.5236 144.543 69.7104 144.543 69.7104L155.121 65.6404Z" fill="#1B1B1B"/>
<path d="M168.508 103.975L170.437 105.9C171.428 106.89 172.089 108.32 170.216 109.53C168.343 110.74 161.842 115.251 159.639 113.821C157.435 112.39 162.283 111.07 162.283 111.07C162.283 111.07 163.085 108.103 163.51 108.762C163.936 109.42 163.936 110.74 163.936 110.74L168.508 103.975Z" fill="#1B1B1B"/>
<path d="M145.204 101.391C145.204 101.391 141.679 107.881 141.679 108.651C141.679 109.421 141.899 111.621 141.899 111.621L135.178 113.271L132.864 112.171L133.635 110.191C133.635 110.191 137.822 108.761 138.704 106.011C139.585 103.261 140.577 100.401 140.577 100.401L145.204 101.391Z" fill="#FFB8B8"/>
<path d="M149.281 36.8202C151.837 36.8202 153.909 34.7518 153.909 32.2002C153.909 29.6487 151.837 27.5802 149.281 27.5802C146.725 27.5802 144.653 29.6487 144.653 32.2002C144.653 34.7518 146.725 36.8202 149.281 36.8202Z" fill="#FFB8B8"/>
<path d="M148.069 36.1602L150.279 42.4979L155.121 40.3403C155.121 40.3403 151.815 35.2802 151.815 34.6202L148.069 36.1602Z" fill="#FFB8B8"/>
<path d="M147.408 58.7104H153.248C153.248 58.7104 157.435 65.0904 155.011 71.8004C154.64 72.828 154.271 74.2673 153.903 75.969C153.057 79.8826 152.215 85.1839 151.352 90.0552C150.14 96.8978 148.886 102.892 147.524 103.001C144.769 103.221 139.413 103.184 139.413 102.084C139.413 100.984 143.001 69.1604 143.001 69.1604L143.772 67.8404L143.918 62.0906C143.941 61.1833 144.319 60.3211 144.972 59.6892C145.624 59.0572 146.499 58.7058 147.408 58.7104V58.7104Z" fill="#1B1B1B"/>
<path d="M141.623 108.595C141.623 108.595 142.89 110.74 142.56 112.28C142.229 113.821 141.678 113.601 139.254 113.821C136.83 114.041 128.567 114.041 128.567 112.5C128.567 110.96 135.013 108.961 135.04 109.576C135.067 110.19 135.288 111.4 134.627 111.62C133.966 111.84 134.572 111.675 134.572 111.675L141.623 108.595Z" fill="#1B1B1B"/>
<path d="M148.07 72.4402C148.07 72.4402 147.591 80.2542 144.394 77.928C141.197 75.6017 145.64 71.3997 145.64 71.3997L148.07 72.4402Z" fill="white"/>
<path d="M154.451 62.149C154.604 62.2181 154.774 62.2442 154.941 62.2245C155.109 62.2047 155.267 62.1398 155.401 62.0367C155.594 61.8852 155.723 61.6662 155.761 61.4238C156.223 58.7637 156.786 51.3892 157.11 47.6602C157.517 42.981 155.485 39.3568 155.468 39.3348L154.271 37.6914C154.147 37.5197 153.968 37.395 153.763 37.3378C153.559 37.2805 153.341 37.294 153.146 37.376C153.146 37.376 149.408 41.2474 149.394 41.3968C149.336 42.0387 148.891 43.4611 146.572 45.7758C144.035 48.3085 144.021 50.519 144.077 51.1362C144.081 51.1768 144.083 51.2173 144.083 51.2578C144.078 51.5347 144.116 51.8107 144.195 52.0762C145.257 55.4207 144.425 59.4247 143.089 63.6043C143.038 63.7932 143.048 63.9931 143.116 64.1763C143.184 64.3596 143.308 64.5172 143.469 64.6272C143.86 64.8923 143.392 64.499 143.531 64.6693C144.452 65.7959 145.777 64.2257 147.293 62.5124C147.821 61.9155 148.42 61.239 149.125 60.5348C150.095 59.5664 151.949 61.7761 152.81 61.7761C153.377 61.7829 153.936 61.91 154.451 62.149V62.149Z" fill="#5BC2F1"/>
<path d="M154.964 41.0411C154.964 41.0411 157.385 43.0789 156.01 45.7218C154.635 48.3647 154.818 50.3139 154.818 50.3139C154.818 50.3139 154.451 68.4697 150.155 67.5876L148.2 72.9746L144.67 71.7027L146.711 66.9512C146.711 66.9512 145.077 66.8497 145.554 65.7376C145.89 64.9566 147.698 56.4805 148.744 51.5041C149.187 49.3953 149.494 47.915 149.494 47.915C149.494 47.915 150.885 40.4912 154.964 41.0411Z" fill="#5BC2F1"/>
<path opacity="0.2" d="M155.472 50.2675L154.111 59.182L154.845 49.6499L155.472 50.2675Z" fill="#BAE8FD"/>
<path d="M144.232 30.1532C144.232 30.1532 143.454 24.1085 149.802 26.0907C149.802 26.0907 154.336 25.2602 155.823 30.9218L157.328 36.8567L156.595 36.458L156.253 37.2044L155.064 37.505L154.555 36.4969L154.309 37.7211L144.571 38.6903C144.571 38.6903 148.932 36.1153 149.001 31.5001L148.171 32.3766L144.232 30.1532Z" fill="#1B1B1B"/>
<path opacity="0.2" d="M151.474 90.4028L153.646 75.9579L151.879 91.5518L151.474 90.4028Z" fill="#BAE8FD"/>
<path d="M155.023 28.5945C156.375 28.5945 157.472 27.5 157.472 26.1499C157.472 24.7998 156.375 23.7053 155.023 23.7053C153.671 23.7053 152.574 24.7998 152.574 26.1499C152.574 27.5 153.671 28.5945 155.023 28.5945Z" fill="#1B1B1B"/>
<path d="M152.5 25.5514C152.54 24.9312 152.815 24.3496 153.27 23.9251C153.725 23.5006 154.325 23.2651 154.947 23.2666C154.897 23.2602 154.847 23.2524 154.795 23.2491C154.474 23.2284 154.152 23.2709 153.848 23.3744C153.543 23.4779 153.262 23.6403 153.02 23.8522C152.779 24.0642 152.581 24.3217 152.439 24.6098C152.297 24.898 152.214 25.2113 152.193 25.5317C152.172 25.8522 152.215 26.1736 152.319 26.4775C152.423 26.7815 152.586 27.062 152.798 27.3032C153.01 27.5443 153.268 27.7413 153.557 27.8828C153.846 28.0244 154.16 28.1078 154.481 28.1282C154.532 28.1315 154.583 28.1302 154.634 28.1303C154.016 28.0522 153.452 27.742 153.055 27.2628C152.659 26.7837 152.46 26.1717 152.5 25.5514V25.5514Z" fill="#1B1B1B"/>
<path opacity="0.2" d="M148.035 53.0455L145.881 64.5729L148.673 51.8407L148.035 53.0455Z" fill="#BAE8FD"/>
<path d="M148.169 35.5296L146.914 36.4747C145.62 35.825 144.651 34.3218 144.298 32.8871L145.666 32.1979C145.774 33.6612 146.814 34.634 148.169 35.5296Z" fill="white"/>
<path d="M148.691 32.4061H145.562C145.534 32.4061 145.508 32.3951 145.488 32.3756C145.469 32.3561 145.458 32.3296 145.458 32.302C145.458 32.2744 145.469 32.2479 145.488 32.2284C145.508 32.2088 145.534 32.1979 145.562 32.1979H148.691C148.718 32.1979 148.745 32.2088 148.764 32.2284C148.784 32.2479 148.795 32.2744 148.795 32.302C148.795 32.3296 148.784 32.3561 148.764 32.3756C148.745 32.3951 148.718 32.4061 148.691 32.4061V32.4061Z" fill="white"/>
<path d="M148.065 35.5295C148.048 35.5296 148.031 35.5254 148.016 35.5174C148.001 35.5094 147.988 35.4979 147.979 35.4838C147.969 35.4697 147.963 35.4535 147.961 35.4366C147.96 35.4197 147.962 35.4026 147.968 35.3868L148.803 33.3045C148.808 33.2918 148.815 33.2802 148.825 33.2703C148.834 33.2605 148.846 33.2527 148.858 33.2473C148.871 33.2418 148.884 33.239 148.898 33.2388C148.912 33.2386 148.925 33.2411 148.938 33.2462C148.951 33.2513 148.962 33.2588 148.972 33.2684C148.982 33.278 148.99 33.2894 148.995 33.302C149.001 33.3146 149.004 33.3281 149.004 33.3418C149.004 33.3555 149.001 33.3691 148.996 33.3818L148.162 35.4641C148.154 35.4834 148.141 35.5 148.123 35.5116C148.106 35.5233 148.086 35.5296 148.065 35.5295V35.5295Z" fill="white"/>
<path d="M148.901 33.6364C149.324 33.6364 149.666 33.1576 149.666 32.5669C149.666 31.9763 149.324 31.4974 148.901 31.4974C148.479 31.4974 148.136 31.9763 148.136 32.5669C148.136 33.1576 148.479 33.6364 148.901 33.6364Z" fill="#FFB8B8"/>
<path d="M94.9828 35.7886L103.132 37.6504L106.576 31.167L99.6073 28.4509L94.9828 35.7886Z" fill="#1B1B1B"/>
<path d="M99.3128 70.6896C99.3128 70.6896 96.6931 76.683 96.6931 78.4265C96.6931 78.4265 97.73 83.1667 97.4026 84.4744L96.2565 86.9262L93.8551 85.9455L93.2002 79.4072L93.3094 68.946L99.3128 70.6896Z" fill="#FFB9B9"/>
<path d="M100.786 34.8383C100.786 34.8383 101.005 38.4343 100.568 39.524C100.131 40.6137 102.205 42.6842 102.205 42.6842L105.48 38.4343C105.48 38.4343 103.297 36.2549 103.843 33.8575L100.786 34.8383Z" fill="#FFB9B9"/>
<path d="M93.9643 59.738C93.9643 59.738 90.7989 65.6224 93.8551 65.1866C96.9114 64.7507 95.8745 59.5746 95.8745 59.5746" fill="#E6E6E6"/>
<path d="M95.8744 59.5747L96.9113 49.277L96.8568 43.0112L94.4554 43.447V49.2224L93.9642 59.7381" fill="#FFB9B9"/>
<path d="M93.2548 85.1827L97.9483 83.3302L98.4941 92.5927C98.4941 92.5927 99.4765 95.4259 99.149 96.5156C99.149 96.5156 99.3673 98.3681 98.8215 98.4771C98.2758 98.5861 96.7476 98.804 96.6385 98.695C96.5293 98.5861 96.5293 98.2592 96.5293 98.2592C96.5293 98.2592 95.4378 99.022 95.3287 99.8937C95.3287 99.8937 90.7442 101.31 90.6351 100.003C90.5259 98.695 92.9273 97.6053 92.9273 97.6053L94.7829 94.7721L93.2548 85.1827Z" fill="#1B1B1B"/>
<path d="M109.082 70.6896C109.082 70.6896 106.462 76.683 106.462 78.4265C106.462 78.4265 107.499 83.1667 107.172 84.4744L106.026 86.9262L103.624 85.9455L102.969 79.4072L103.079 68.946L109.082 70.6896Z" fill="#FFB9B9"/>
<path d="M103.188 85.1827L107.881 83.3302L108.427 92.5927C108.427 92.5927 109.409 95.4259 109.082 96.5156C109.082 96.5156 109.3 98.3681 108.754 98.4771C108.209 98.5861 106.681 98.804 106.571 98.695C106.462 98.5861 106.462 98.2592 106.462 98.2592C106.462 98.2592 105.371 99.022 105.262 99.8937C105.262 99.8937 100.677 101.31 100.568 100.003C100.459 98.695 102.86 97.6053 102.86 97.6053L104.716 94.7721L103.188 85.1827Z" fill="#1B1B1B"/>
<path d="M105.371 32.3325C105.371 33.1906 105.054 34.0185 104.48 34.6577C103.907 35.2969 103.117 35.7026 102.263 35.797C101.409 35.8915 100.549 35.6681 99.8495 35.1697C99.1498 34.6712 98.6587 33.9327 98.4703 33.0954C98.4128 32.8452 98.3842 32.5892 98.3848 32.3325C98.3854 31.4079 98.7537 30.5215 99.4088 29.8679C100.064 29.2144 100.952 28.8473 101.878 28.8473C102.804 28.8473 103.692 29.2144 104.347 29.8679C105.003 30.5215 105.371 31.4079 105.371 32.3325V32.3325Z" fill="#FFB9B9"/>
<path d="M102.314 39.3061L105.025 37.9009L106.244 38.8702C106.244 38.8702 109.191 38.7613 110.283 40.0689C111.374 41.3766 111.974 44.7002 111.974 44.7002C111.974 44.7002 108.372 43.9374 108.809 46.9885L108.154 45.245L107.554 46.7161L100.241 49.2224L96.9659 43.6649C96.9659 43.6649 94.7829 43.0111 94.0188 44.5367C94.0188 44.5367 94.1825 39.0337 96.311 38.8702C97.7425 38.7603 98.8215 38.7613 98.8215 38.7613L100.022 38.5433L100.791 38.2709L102.314 39.3061Z" fill="#5BC2F1"/>
<path d="M106.953 51.2384C106.953 51.2384 112.684 68.4013 111.047 70.7986C111.047 70.7986 104.934 73.8498 92.709 69.7089L97.6754 50.4756C100.726 49.8528 103.819 50.1071 106.953 51.2384Z" fill="#1B1B1B"/>
<path d="M106.953 51.2385L108.566 45.7054C106.632 43.6049 108.301 38.9472 108.301 38.9472L105.967 38.4478C105.967 38.4478 103.624 44.7547 101.223 43.9919C98.8215 43.2291 100.131 38.3254 100.131 38.3254L97.9483 38.5434L96.9659 42.3574L97.6754 50.4757C100.634 50.2223 103.738 50.5171 106.953 51.2385Z" fill="#5BC2F1"/>
<path d="M109.791 59.5747L110.555 49.2224L110.774 43.0112L108.373 43.447V49.2224L107.881 59.7381" fill="#FFB9B9"/>
<path d="M107.881 59.738C107.881 59.738 104.716 65.6224 107.772 65.1866C110.828 64.7507 109.791 59.5746 109.791 59.5746" fill="white"/>
<path d="M111.974 44.7001C111.974 44.7001 111.586 39.1038 108.342 39.1232V45.595C108.342 45.595 110.774 44.1552 111.974 44.7001Z" fill="#5BC2F1"/>
<path d="M102.995 33.2324C102.977 33.2324 102.959 33.2266 102.944 33.216C102.928 33.2053 102.917 33.1903 102.911 33.1729C102.905 33.1555 102.904 33.1366 102.909 33.1189C102.914 33.1012 102.925 33.0855 102.939 33.074L104.721 31.6512C104.73 31.6438 104.74 31.6383 104.752 31.635C104.763 31.6317 104.775 31.6306 104.787 31.6319C104.798 31.6331 104.81 31.6367 104.82 31.6423C104.83 31.648 104.839 31.6556 104.847 31.6647C104.854 31.6739 104.859 31.6844 104.863 31.6957C104.866 31.707 104.867 31.7188 104.865 31.7304C104.864 31.7421 104.861 31.7534 104.855 31.7636C104.849 31.7739 104.841 31.7829 104.832 31.7902L103.051 33.2129C103.035 33.2255 103.015 33.2324 102.995 33.2324Z" fill="white"/>
<path d="M103.13 35.3665C103.091 35.4145 103.051 35.4625 103.011 35.507C102.538 35.7209 102.023 35.8271 101.505 35.8176C100.986 35.8082 100.475 35.6835 100.011 35.4526C99.5463 35.2216 99.1391 34.8902 98.8189 34.4825C98.4987 34.0748 98.2735 33.6009 98.1597 33.0954L99.8477 32.7854L103.13 33.0954C102.378 34.0095 102.469 34.3261 103.13 35.3665Z" fill="white"/>
<path d="M99.9057 27.4513C99.9057 27.4513 98.1004 27.7903 97.6829 30.0381C97.6176 30.4172 97.6057 30.8035 97.6476 31.1859C97.6893 31.6186 97.6288 32.5324 96.6877 33.6085C96.0737 34.3064 95.5015 35.04 94.9742 35.8054V35.8054L96.8606 36.3067L97.7035 33.1865C98.1121 31.6738 98.7416 30.2293 99.5717 28.8997L99.5891 28.8719C99.5891 28.8719 100.216 30.5432 101.895 30.7723L101.377 30.0918C101.377 30.0918 103.34 31.2247 104.452 31.5708C104.579 31.6103 104.693 31.6836 104.781 31.7829C104.87 31.8822 104.929 32.0036 104.953 32.1341C104.978 32.2646 104.966 32.3993 104.919 32.5235C104.872 32.6478 104.792 32.757 104.688 32.8394C104.68 32.8456 104.672 32.8518 104.664 32.858C103.846 33.4783 102.177 34.9584 102.837 36.3902C103.496 37.822 102.727 38.083 102.727 38.083L104.145 37.5445L104.794 37.2671L104.728 37.7461L107.896 37.8124C107.896 37.8124 108.752 37.8072 107.231 35.526C107.231 35.526 106.865 34.6706 107.166 34.0171C107.407 33.5222 107.528 32.9771 107.517 32.4266C107.421 30.1267 106.451 25.4478 99.9057 27.4513Z" fill="#1B1B1B"/>
<path d="M55.4671 92.9627C55.4671 92.9627 55.4671 107.76 52.0652 111.642C52.0652 111.642 51.3362 113.582 51.0932 114.31C50.9574 114.725 50.795 115.13 50.6072 115.523V116.494C50.6072 116.494 44.0465 115.766 43.3175 114.068L44.5325 112.612C44.5325 112.612 44.7755 112.37 44.5325 111.642C44.2895 110.914 45.0184 110.914 45.0184 110.914L46.7194 107.033L46.4764 91.022L47.6914 68.9467L58.14 68.4615L55.4671 92.9627Z" fill="#1B1B1B"/>
<path d="M50.1213 115.038C50.1213 115.038 51.8222 120.132 50.1213 120.375C48.4203 120.617 33.5979 120.86 33.8408 118.919C34.0838 116.979 38.9437 117.221 38.9437 117.221L44.0465 114.068L50.1213 115.038Z" fill="#1B1B1B"/>
<path d="M65.1868 68.9467C65.1868 68.9467 65.6728 72.1003 63.7288 75.4965C61.7849 78.8927 62.9999 90.2942 62.9999 90.2942L80.2523 105.335C80.2523 105.335 76.8504 111.157 75.6354 110.914C74.4205 110.671 55.2241 95.1459 55.2241 95.1459L47.6914 69.917L65.1868 68.9467Z" fill="#1B1B1B"/>
<path d="M80.0151 104.692C80.0151 104.692 85.2358 105.985 84.5304 107.549C83.825 109.113 76.0951 121.742 74.5833 120.498C73.0715 119.254 75.8784 115.286 75.8784 115.286L75.9421 109.295L80.0151 104.692Z" fill="#1B1B1B"/>
<path d="M61.2989 23.8261C61.3008 25.1041 60.8607 26.3436 60.053 27.3351C59.4144 28.1253 58.5713 28.726 57.6152 29.0722C56.6591 29.4184 55.6264 29.4969 54.6288 29.2991C54.1293 29.2028 53.6458 29.0367 53.1927 28.8058C52.473 28.4437 51.8403 27.9303 51.3382 27.301C50.836 26.6718 50.4761 25.9414 50.2834 25.1602C50.1748 24.7238 50.1202 24.2757 50.121 23.8261C50.121 22.3463 50.7098 20.9271 51.7579 19.8807C52.8061 18.8343 54.2276 18.2465 55.7099 18.2465C57.1922 18.2465 58.6138 18.8343 59.6619 19.8807C60.71 20.9271 61.2989 22.3463 61.2989 23.8261V23.8261Z" fill="#A0616A"/>
<path d="M60.1075 25.7943L59.8603 32.9741L55.1577 34.829C55.1577 34.829 54.6965 27.4774 54.0456 27.0698C53.3946 26.6623 60.1075 25.7943 60.1075 25.7943Z" fill="#A0616A"/>
<path d="M54.0091 35.7124C54.0091 35.7124 60.5699 29.1625 62.2708 29.4051C63.9718 29.6477 63.9718 30.3755 63.9718 30.8607C63.9718 31.3458 63.4858 31.5884 63.9718 31.831C64.4578 32.0736 64.9437 31.831 64.9437 32.5588C64.9437 33.2865 69.3176 40.5641 67.8596 48.5694C66.4017 56.5747 64.7007 60.4561 65.4297 64.8227C66.1587 69.1892 65.6727 70.1596 65.6727 70.1596C65.6727 70.1596 47.4484 71.6151 47.2054 69.917C46.9624 68.2189 47.9343 69.1892 46.7194 67.9763C45.5044 66.7633 45.9904 66.7633 45.9904 66.0356C45.9904 65.3078 51.3362 35.7124 54.0091 35.7124Z" fill="#5BC2F1"/>
<path d="M57.411 68.7042C57.411 68.7042 54.4951 75.7391 52.3082 74.041C50.1213 72.3429 53.2802 66.5209 53.2802 66.5209L57.411 68.7042Z" fill="white"/>
<path d="M64.4578 36.1976C64.4578 36.1976 70.1669 36.8501 68.0413 47.3189C65.9158 57.7877 57.6541 69.917 57.6541 69.917L52.0652 67.2486L59.355 52.936L57.6541 43.9603C57.6541 43.9603 56.6821 35.4698 64.4578 36.1976Z" fill="#5BC2F1"/>
<path opacity="0.2" d="M59.4765 53.0574L51.4577 66.3996L52.1867 67.1273L59.4765 53.0574Z" fill="#BAE8FD"/>
<path opacity="0.2" d="M63.7209 59.2749L57.2896 69.7957H59.4765L63.7209 59.2749Z" fill="#BAE8FD"/>
<path opacity="0.2" d="M49.1932 78.3942L48.8701 78.5172L55.2644 95.2546L55.5875 95.1316L49.1932 78.3942Z" fill="#BAE8FD"/>
<path d="M54.0436 37.0443C54.2345 37.0443 54.3893 36.8898 54.3893 36.6992C54.3893 36.5086 54.2345 36.3541 54.0436 36.3541C53.8527 36.3541 53.6979 36.5086 53.6979 36.6992C53.6979 36.8898 53.8527 37.0443 54.0436 37.0443Z" fill="#D0CDE1"/>
<path d="M51.1054 46.3619C51.1423 46.3619 51.1783 46.3501 51.208 46.3282C51.2377 46.3063 51.2596 46.2754 51.2705 46.2402L54.2087 36.7502C54.2154 36.7285 54.2178 36.7057 54.2158 36.6831C54.2137 36.6606 54.2072 36.6386 54.1966 36.6185C54.186 36.5985 54.1716 36.5807 54.1541 36.5662C54.1366 36.5517 54.1165 36.5408 54.0948 36.5341C54.0731 36.5274 54.0502 36.525 54.0276 36.5271C54.005 36.5292 53.983 36.5358 53.9629 36.5464C53.9429 36.557 53.9251 36.5714 53.9106 36.5889C53.8961 36.6064 53.8852 36.6265 53.8785 36.6482L50.9403 46.1384C50.9324 46.1642 50.9306 46.1915 50.9351 46.2182C50.9397 46.2448 50.9504 46.27 50.9664 46.2917C50.9825 46.3134 51.0034 46.3311 51.0276 46.3433C51.0517 46.3555 51.0783 46.3618 51.1054 46.3619V46.3619Z" fill="#D0CDE1"/>
<path d="M54.5894 28.0994L53.1927 29.4259C51.7543 28.7032 50.3649 26.756 49.9728 25.1602L51.8053 24.3936C51.925 26.0212 53.0823 27.1033 54.5894 28.0994Z" fill="white"/>
<path d="M54.9376 25.0884C54.9321 25.0884 54.9265 25.0881 54.921 25.0873L51.673 24.6241C51.6579 24.6219 51.6434 24.6168 51.6303 24.6091C51.6172 24.6014 51.6057 24.5911 51.5966 24.579C51.5874 24.5668 51.5808 24.553 51.577 24.5382C51.5732 24.5235 51.5723 24.5082 51.5745 24.4931C51.5766 24.478 51.5817 24.4635 51.5894 24.4505C51.5972 24.4374 51.6075 24.4259 51.6196 24.4168C51.6318 24.4076 51.6457 24.401 51.6604 24.3972C51.6752 24.3934 51.6906 24.3926 51.7056 24.3947L54.9537 24.8579C54.9827 24.862 55.0091 24.877 55.0276 24.8998C55.046 24.9225 55.0552 24.9514 55.0531 24.9807C55.0511 25.0099 55.038 25.0372 55.0166 25.0572C54.9952 25.0772 54.9669 25.0884 54.9376 25.0884V25.0884Z" fill="white"/>
<path d="M54.4734 28.0995C54.4531 28.0995 54.4332 28.0942 54.4156 28.0842C54.3981 28.0741 54.3834 28.0596 54.3732 28.0422C54.363 28.0247 54.3575 28.0049 54.3574 27.9846C54.3572 27.9644 54.3624 27.9445 54.3723 27.9269L55.4485 26.0143C55.456 26.001 55.466 25.9893 55.4779 25.9798C55.4899 25.9704 55.5036 25.9634 55.5183 25.9593C55.533 25.9552 55.5484 25.954 55.5635 25.9558C55.5787 25.9576 55.5933 25.9624 55.6066 25.9698C55.6199 25.9773 55.6316 25.9873 55.641 25.9993C55.6504 26.0113 55.6574 26.025 55.6614 26.0397C55.6655 26.0544 55.6667 26.0697 55.6648 26.0848C55.663 26.0999 55.6581 26.1145 55.6506 26.1278L54.5744 28.0404C54.5644 28.0584 54.5497 28.0733 54.5319 28.0837C54.5142 28.094 54.494 28.0995 54.4734 28.0995V28.0995Z" fill="white"/>
<path d="M58.2396 27.1784C57.7872 26.9396 57.2616 26.8903 56.7719 26.7419C55.0198 26.2108 53.8461 24.2335 54.2208 22.4442C54.2901 22.2147 54.3211 21.9754 54.3128 21.7358C54.2473 21.2059 53.7042 20.864 53.1833 20.7425C52.6625 20.6211 52.1083 20.6387 51.6105 20.4435C50.8419 20.142 50.3313 19.3534 50.2206 18.5364C50.1099 17.7194 50.3528 16.8861 50.7477 16.1621L50.9359 16.7026C51.2228 16.4601 51.4358 16.1421 51.5506 15.7847C51.7644 15.8206 51.9654 15.9107 52.1343 16.0463C52.3033 16.1819 52.4345 16.3586 52.5155 16.5594C52.8175 16.7372 52.861 16.0071 53.1946 15.8994C53.3342 15.8543 53.4779 15.94 53.6109 16.0019C54.2831 16.3149 55.064 16.0473 55.785 15.8738C57.0335 15.5748 58.335 15.5733 59.5842 15.8693C60.4142 16.067 61.2357 16.4111 61.8295 17.0227C62.3173 17.525 62.6211 18.1745 62.8799 18.8245C63.5168 20.4249 63.9376 22.1566 63.7274 23.8658C63.5523 25.2645 62.9661 26.5801 62.0429 27.6466C61.562 28.1997 59.9929 30.1297 59.1325 29.8006C58.0515 29.3872 59.5134 27.8508 58.2396 27.1784Z" fill="#1B1B1B"/>
</g>
<defs>
<clipPath id="clip0_201_203">
<rect width="141.083" height="120.584" fill="white" transform="translate(33)"/>
</clipPath>
</defs>
</svg>
