<svg width="410" height="200" viewBox="0 0 410 200" fill="none" xmlns="http://www.w3.org/2000/svg">
<path d="M409.71 184C291.495 146.753 184.301 148.738 115.194 156.961C40.3241 165.87 -7.18445 183.811 -7.6554 183.991L-8 183.098C-7.52764 182.918 40.0927 164.935 115.08 156.012C159.189 150.77 203.693 149.637 248.013 152.628C303.034 156.334 357.414 166.56 410 183.089L409.71 184Z" fill="#3F3D56"/>
<path d="M120.824 135.017C134.389 135.017 145.385 112.617 145.385 84.9848C145.385 57.353 134.389 34.953 120.824 34.953C107.259 34.953 96.2621 57.353 96.2621 84.9848C96.2621 112.617 107.259 135.017 120.824 135.017Z" fill="#5BC2F1"/>
<path d="M120.598 85.5037C121.823 63.7253 124.292 49.0146 124.317 48.8685L123.781 48.778C123.756 48.9241 121.283 63.6584 120.056 85.4649C118.924 105.591 118.65 136.033 123.781 166.764L124.317 166.675C119.195 135.996 119.468 105.6 120.598 85.5037Z" fill="#3F3D56"/>
<path d="M142.776 74.8384L120.568 86.7047L120.825 87.1829L143.032 75.3167L142.776 74.8384Z" fill="#3F3D56"/>
<path d="M97.381 80.7857L97.1247 81.264L119.335 93.1243L119.592 92.646L97.381 80.7857Z" fill="#3F3D56"/>
<path d="M291.136 129.815C308.734 129.815 323 100.755 323 64.9077C323 29.0602 308.734 0 291.136 0C273.537 0 259.271 29.0602 259.271 64.9077C259.271 100.755 273.537 129.815 291.136 129.815Z" fill="#5BC2F1"/>
<path d="M290.749 65.5726C292.338 37.3142 295.541 18.2267 295.574 18.0371L295.066 17.9513C295.034 18.141 291.826 37.2508 290.235 65.5358C288.766 91.6414 288.411 131.127 295.066 170.987L295.574 170.903C288.928 131.092 289.281 91.6502 290.749 65.5726Z" fill="#3F3D56"/>
<path d="M319.66 51.8279L290.849 67.2225L291.092 67.6759L319.903 52.2813L319.66 51.8279Z" fill="#3F3D56"/>
<path d="M260.678 59.5436L260.435 59.9971L289.25 75.3838L289.493 74.9304L260.678 59.5436Z" fill="#3F3D56"/>
<path d="M252.744 147.395C259.319 147.395 264.65 136.538 264.65 123.144C264.65 109.75 259.319 98.8927 252.744 98.8927C246.169 98.8927 240.839 109.75 240.839 123.144C240.839 136.538 246.169 147.395 252.744 147.395Z" fill="#E6E6E6"/>
<path d="M252.734 124.189L252.804 124.32L263.569 118.568L263.326 118.115L252.756 123.763C253.341 113.016 254.537 105.801 254.562 105.659L254.054 105.573C254.027 105.728 252.606 114.296 252.102 126.693L241.441 120.996L241.198 121.45L251.963 127.202L252.091 126.962C251.688 137.194 251.914 149.988 254.054 162.805L254.562 162.72C252.229 148.746 252.177 134.798 252.734 124.189Z" fill="#3F3D56"/>
<path d="M170.512 170.648C170.512 170.648 170.69 166.928 174.336 167.361L170.512 170.648Z" fill="#3F3D56"/>
<path d="M169.482 167.108C170.49 167.108 171.307 166.293 171.307 165.287C171.307 164.28 170.49 163.465 169.482 163.465C168.474 163.465 167.657 164.28 167.657 165.287C167.657 166.293 168.474 167.108 169.482 167.108Z" fill="#5BC2F1"/>
<path d="M169.7 168.354H169.185V171.953H169.7V168.354Z" fill="#3F3D56"/>
<path d="M236.955 171.42C236.955 171.42 237.133 167.699 240.779 168.132L236.955 171.42Z" fill="#3F3D56"/>
<path d="M235.925 167.879C236.933 167.879 237.75 167.064 237.75 166.058C237.75 165.052 236.933 164.236 235.925 164.236C234.918 164.236 234.101 165.052 234.101 166.058C234.101 167.064 234.918 167.879 235.925 167.879Z" fill="#5BC2F1"/>
<path d="M236.143 169.125H235.628V172.725H236.143V169.125Z" fill="#3F3D56"/>
<path d="M127.504 164.992C127.504 164.992 127.682 161.272 131.328 161.704L127.504 164.992Z" fill="#3F3D56"/>
<path d="M126.474 161.452C127.482 161.452 128.299 160.636 128.299 159.63C128.299 158.624 127.482 157.809 126.474 157.809C125.466 157.809 124.649 158.624 124.649 159.63C124.649 160.636 125.466 161.452 126.474 161.452Z" fill="#5BC2F1"/>
<path d="M126.692 162.698H126.177V166.297H126.692V162.698Z" fill="#3F3D56"/>
<path d="M155.575 160.107C155.575 160.107 155.753 156.387 159.399 156.819L155.575 160.107Z" fill="#3F3D56"/>
<path d="M154.545 156.567C155.553 156.567 156.37 155.751 156.37 154.745C156.37 153.739 155.553 152.924 154.545 152.924C153.537 152.924 152.72 153.739 152.72 154.745C152.72 155.751 153.537 156.567 154.545 156.567Z" fill="#5BC2F1"/>
<path d="M154.763 157.813H154.248V161.412H154.763V157.813Z" fill="#3F3D56"/>
<path d="M225.882 167.049C225.882 167.049 226.059 163.329 229.705 163.761L225.882 167.049Z" fill="#3F3D56"/>
<path d="M224.851 163.509C225.859 163.509 226.676 162.693 226.676 161.687C226.676 160.681 225.859 159.865 224.851 159.865C223.844 159.865 223.027 160.681 223.027 161.687C223.027 162.693 223.844 163.509 224.851 163.509Z" fill="#5BC2F1"/>
<path d="M225.07 164.755H224.555V168.354H225.07V164.755Z" fill="#3F3D56"/>
<path d="M305.073 159.591L315.673 175.282L305.804 185.134L304.525 182.579L306.718 177.471C306.718 177.471 306.353 172.727 305.073 171.45C303.794 170.173 298.129 162.51 298.129 162.51L305.073 159.591Z" fill="#FFB8B8"/>
<path d="M291.55 108.871C291.55 108.871 293.56 112.047 289.356 125.73C289.356 125.73 308.962 158.765 305.855 160.954C302.749 163.144 294.341 167.989 292.148 166.529C289.955 165.07 274.005 115.622 274.005 115.622L291.55 108.871Z" fill="#2F2E41"/>
<path d="M313.754 172.454L316.952 175.646C318.597 177.288 319.693 179.66 316.587 181.667C313.48 183.674 302.698 191.154 299.043 188.783C295.387 186.411 303.429 184.221 303.429 184.221C303.429 184.221 304.758 179.3 305.464 180.392C306.17 181.485 306.17 183.674 306.17 183.674L313.754 172.454Z" fill="#2F2E41"/>
<path d="M275.102 168.166C275.102 168.166 269.254 178.931 269.254 180.208C269.254 181.485 269.619 185.134 269.619 185.134L258.472 187.87L254.634 186.046L255.913 182.762C255.913 182.762 262.858 180.39 264.32 175.829C265.782 171.268 267.426 166.524 267.426 166.524L275.102 168.166Z" fill="#FFB8B8"/>
<path d="M281.864 61.07C286.103 61.07 289.539 57.6393 289.539 53.4073C289.539 49.1752 286.103 45.7445 281.864 45.7445C277.625 45.7445 274.188 49.1752 274.188 53.4073C274.188 57.6393 277.625 61.07 281.864 61.07Z" fill="#FFB8B8"/>
<path d="M279.854 59.9753L283.518 70.487L291.55 66.9083C291.55 66.9083 286.067 58.5158 286.067 57.4211L279.854 59.9753Z" fill="#FFB8B8"/>
<path d="M278.757 97.3769H288.443C288.443 97.3769 295.387 107.959 291.367 119.088C290.751 120.792 290.14 123.18 289.53 126.002C288.127 132.493 286.73 141.286 285.299 149.365C283.288 160.715 281.209 170.657 278.949 170.837C274.38 171.202 265.496 171.141 265.496 169.317C265.496 167.492 271.447 114.709 271.447 114.709L272.726 112.52L272.968 102.983C273.006 101.479 273.634 100.049 274.716 99.0003C275.798 97.9521 277.249 97.3693 278.757 97.3769Z" fill="#2F2E41"/>
<path d="M269.163 180.116C269.163 180.116 271.264 183.674 270.716 186.228C270.168 188.783 269.254 188.418 265.233 188.783C261.213 189.148 247.506 189.148 247.506 186.593C247.506 184.039 258.199 180.722 258.244 181.742C258.289 182.762 258.654 184.769 257.558 185.134C256.461 185.499 257.466 185.225 257.466 185.225L269.163 180.116Z" fill="#2F2E41"/>
<path d="M279.855 120.149C279.855 120.149 279.06 133.109 273.758 129.251C268.456 125.393 275.824 118.423 275.824 118.423L279.855 120.149Z" fill="white"/>
<path d="M290.438 103.08C290.693 103.195 290.974 103.238 291.252 103.205C291.529 103.173 291.793 103.065 292.014 102.894C292.334 102.643 292.548 102.279 292.611 101.877C293.378 97.4654 294.311 85.2341 294.849 79.0491C295.523 71.2883 292.154 65.2772 292.126 65.2406L290.14 62.5149C289.934 62.2301 289.637 62.0234 289.298 61.9284C288.959 61.8334 288.598 61.8558 288.273 61.9919C288.273 61.9919 282.074 68.4129 282.051 68.6608C281.954 69.7254 281.216 72.0845 277.371 75.9237C273.163 80.1245 273.14 83.7908 273.233 84.8145C273.239 84.8818 273.242 84.949 273.242 85.0162C273.234 85.4754 273.297 85.9332 273.427 86.3736C275.19 91.9207 273.81 98.5618 271.593 105.494C271.509 105.807 271.525 106.139 271.638 106.443C271.751 106.747 271.956 107.008 272.225 107.191C272.872 107.63 272.096 106.978 272.327 107.26C273.854 109.129 276.052 106.525 278.567 103.683C279.443 102.693 280.435 101.571 281.605 100.403C283.214 98.7968 286.288 102.462 287.717 102.462C288.658 102.473 289.585 102.684 290.438 103.08Z" fill="#575A89"/>
<path d="M291.29 68.0707C291.29 68.0707 295.305 71.4507 293.024 75.8342C290.743 80.2177 291.046 83.4507 291.046 83.4507C291.046 83.4507 290.439 113.564 283.313 112.101L280.071 121.036L274.216 118.926L277.602 111.045C277.602 111.045 274.89 110.877 275.682 109.032C276.239 107.737 279.237 93.6786 280.973 85.4248C281.708 81.9271 282.217 79.4718 282.217 79.4718C282.217 79.4718 284.523 67.1587 291.29 68.0707Z" fill="#575A89"/>
<path opacity="0.2" d="M292.132 83.3735L289.875 98.1592L291.093 82.3492L292.132 83.3735Z" fill="black"/>
<path d="M273.49 50.0121C273.49 50.0121 272.199 39.9863 282.728 43.274C282.728 43.274 290.248 41.8965 292.714 51.2869L295.211 61.1304L293.994 60.4691L293.427 61.7072L291.455 62.2058L290.611 60.5337L290.203 62.5642L274.051 64.1717C274.051 64.1717 281.285 59.9007 281.4 52.2461L280.022 53.6998L273.49 50.0121Z" fill="#2F2E41"/>
<path opacity="0.2" d="M285.501 149.942L289.102 125.984L286.173 151.848L285.501 149.942Z" fill="black"/>
<path d="M291.387 47.4267C293.63 47.4267 295.448 45.6114 295.448 43.3721C295.448 41.1329 293.63 39.3176 291.387 39.3176C289.144 39.3176 287.326 41.1329 287.326 43.3721C287.326 45.6114 289.144 47.4267 291.387 47.4267Z" fill="#2F2E41"/>
<path d="M287.202 42.3796C287.269 41.3509 287.726 40.3862 288.48 39.6822C289.234 38.9781 290.229 38.5875 291.261 38.59C291.178 38.5794 291.094 38.5665 291.009 38.561C290.477 38.5265 289.943 38.5971 289.438 38.7688C288.932 38.9404 288.466 39.2097 288.065 39.5613C287.665 39.9129 287.337 40.3398 287.102 40.8178C286.866 41.2958 286.728 41.8154 286.693 42.3469C286.659 42.8784 286.73 43.4115 286.902 43.9156C287.074 44.4198 287.344 44.8851 287.697 45.285C288.049 45.6849 288.477 46.0116 288.956 46.2464C289.435 46.4812 289.955 46.6195 290.488 46.6534C290.573 46.6589 290.657 46.6567 290.742 46.6569C289.718 46.5273 288.781 46.0128 288.123 45.2181C287.466 44.4234 287.136 43.4083 287.202 42.3796Z" fill="#2F2E41"/>
<path opacity="0.2" d="M279.797 87.981L276.224 107.1L280.855 85.9828L279.797 87.981Z" fill="black"/>
<path d="M280.02 58.9293L277.937 60.4969C275.792 59.4194 274.183 56.9262 273.599 54.5466L275.868 53.4034C276.047 55.8305 277.772 57.444 280.02 58.9293Z" fill="white"/>
<path d="M280.885 53.7488H275.695C275.649 53.7488 275.605 53.7306 275.573 53.6982C275.541 53.6658 275.522 53.6219 275.522 53.5761C275.522 53.5303 275.541 53.4864 275.573 53.454C275.605 53.4216 275.649 53.4034 275.695 53.4034H280.885C280.93 53.4034 280.974 53.4216 281.007 53.454C281.039 53.4864 281.058 53.5303 281.058 53.5761C281.058 53.6219 281.039 53.6658 281.007 53.6982C280.974 53.7306 280.93 53.7488 280.885 53.7488Z" fill="white"/>
<path d="M279.847 58.9294C279.818 58.9294 279.791 58.9225 279.766 58.9092C279.741 58.896 279.719 58.8769 279.703 58.8535C279.688 58.8301 279.678 58.8032 279.675 58.7752C279.672 58.7471 279.676 58.7188 279.686 58.6926L281.07 55.2389C281.078 55.2178 281.091 55.1985 281.107 55.1822C281.123 55.1659 281.141 55.1529 281.162 55.1439C281.183 55.135 281.206 55.1302 281.228 55.1299C281.251 55.1296 281.274 55.1338 281.295 55.1422C281.316 55.1506 281.335 55.1631 281.351 55.179C281.368 55.1949 281.381 55.2138 281.39 55.2347C281.399 55.2556 281.403 55.278 281.403 55.3007C281.404 55.3235 281.399 55.346 281.391 55.367L280.007 58.8208C279.994 58.8528 279.972 58.8803 279.944 58.8997C279.915 58.919 279.881 58.9294 279.847 58.9294Z" fill="white"/>
<path d="M281.234 55.7892C281.935 55.7892 282.503 54.995 282.503 54.0154C282.503 53.0357 281.935 52.2415 281.234 52.2415C280.533 52.2415 279.964 53.0357 279.964 54.0154C279.964 54.995 280.533 55.7892 281.234 55.7892Z" fill="#FFB8B8"/>
<path d="M191.805 59.3588L205.322 62.4469L211.033 51.6936L199.475 47.1886L191.805 59.3588Z" fill="#2F2E41"/>
<path d="M198.986 117.246C198.986 117.246 194.641 127.186 194.641 130.078C194.641 130.078 196.361 137.94 195.818 140.109L193.917 144.176L189.934 142.549L188.848 131.705L189.029 114.354L198.986 117.246Z" fill="#FFB9B9"/>
<path d="M201.43 57.7828C201.43 57.7828 201.792 63.7471 201.068 65.5545C200.344 67.3619 203.784 70.7959 203.784 70.7959L209.215 63.7471C209.215 63.7471 205.594 60.1324 206.499 56.1561L201.43 57.7828Z" fill="#FFB9B9"/>
<path d="M190.115 99.0815C190.115 99.0815 184.865 108.841 189.934 108.118C195.003 107.395 193.283 98.8104 193.283 98.8104" fill="#E6E6E6"/>
<path d="M193.283 98.8105L195.003 81.7306L194.913 71.3383L190.93 72.061V81.6401L190.115 99.0814" fill="#FFB9B9"/>
<path d="M188.938 141.284L196.723 138.211L197.628 153.574C197.628 153.574 199.258 158.273 198.715 160.081C198.715 160.081 199.077 163.153 198.172 163.334C197.266 163.515 194.732 163.876 194.551 163.695C194.37 163.515 194.37 162.973 194.37 162.973C194.37 162.973 192.559 164.238 192.378 165.684C192.378 165.684 184.775 168.033 184.594 165.864C184.412 163.695 188.395 161.888 188.395 161.888L191.473 157.189L188.938 141.284Z" fill="#2F2E41"/>
<path d="M215.189 117.246C215.189 117.246 210.844 127.186 210.844 130.078C210.844 130.078 212.564 137.94 212.021 140.109L210.12 144.176L206.137 142.549L205.051 131.705L205.232 114.354L215.189 117.246Z" fill="#FFB9B9"/>
<path d="M205.413 141.284L213.198 138.211L214.103 153.574C214.103 153.574 215.732 158.273 215.189 160.081C215.189 160.081 215.551 163.153 214.646 163.334C213.741 163.515 211.206 163.876 211.025 163.695C210.844 163.515 210.844 162.973 210.844 162.973C210.844 162.973 209.034 164.238 208.853 165.684C208.853 165.684 201.249 168.033 201.068 165.864C200.887 163.695 204.87 161.888 204.87 161.888L207.948 157.189L205.413 141.284Z" fill="#2F2E41"/>
<path d="M209.035 53.6267C209.035 55.05 208.508 56.4231 207.557 57.4833C206.606 58.5435 205.296 59.2163 203.879 59.3729C202.462 59.5296 201.037 59.1591 199.877 58.3324C198.716 57.5057 197.901 56.2808 197.589 54.8921C197.494 54.477 197.446 54.0525 197.447 53.6267C197.448 52.0932 198.059 50.6229 199.146 49.539C200.232 48.455 201.705 47.8461 203.241 47.8461C204.777 47.8461 206.25 48.455 207.337 49.539C208.423 50.6229 209.034 52.0932 209.035 53.6267Z" fill="#FFB9B9"/>
<path d="M203.965 65.193L208.461 62.8623L210.482 64.4701C210.482 64.4701 215.37 64.2893 217.181 66.4582C218.991 68.6271 219.987 74.1396 219.987 74.1396C219.987 74.1396 214.013 72.8744 214.737 77.9351L213.651 75.0433L212.655 77.4832L200.525 81.6402L195.094 72.4226C195.094 72.4226 191.473 71.3381 190.206 73.8685C190.206 73.8685 190.477 64.7412 194.008 64.4701C196.382 64.2878 198.172 64.2893 198.172 64.2893L200.163 63.9279L201.438 63.476L203.965 65.193Z" fill="#575A89"/>
<path d="M211.659 84.9839C211.659 84.9839 221.164 113.45 218.448 117.426C218.448 117.426 208.31 122.487 188.033 115.619L196.271 83.7188C201.33 82.6857 206.46 83.1074 211.659 84.9839Z" fill="#2F2E41"/>
<path d="M211.659 84.9839L214.334 75.8068C211.125 72.323 213.895 64.5977 213.895 64.5977L210.023 63.7694C210.023 63.7694 206.137 74.23 202.154 72.9648C198.172 71.6996 200.344 63.5664 200.344 63.5664L196.723 63.9279L195.094 70.2537L196.271 83.7188C201.178 83.2985 206.325 83.7875 211.659 84.9839Z" fill="#575A89"/>
<path d="M216.366 98.8105L217.633 81.6401L217.995 71.3383L214.013 72.061V81.6401L213.198 99.0814" fill="#FFB9B9"/>
<path d="M213.198 99.0815C213.198 99.0815 207.948 108.841 213.017 108.118C218.086 107.395 216.366 98.8104 216.366 98.8104" fill="white"/>
<path d="M219.987 74.1396C219.987 74.1396 219.343 64.8576 213.962 64.8898V75.6239C213.962 75.6239 217.996 73.2359 219.987 74.1396Z" fill="#575A89"/>
<path d="M205.094 55.1192C205.063 55.1192 205.033 55.1097 205.008 55.0921C204.983 55.0744 204.964 55.0494 204.954 55.0205C204.944 54.9917 204.943 54.9604 204.952 54.931C204.96 54.9016 204.977 54.8756 205.001 54.8565L207.956 52.4967C207.971 52.4845 207.989 52.4753 208.007 52.4698C208.026 52.4643 208.046 52.4625 208.065 52.4646C208.084 52.4667 208.103 52.4726 208.12 52.482C208.137 52.4913 208.152 52.504 208.165 52.5192C208.177 52.5344 208.186 52.5518 208.191 52.5705C208.197 52.5892 208.198 52.6088 208.196 52.6281C208.194 52.6475 208.188 52.6662 208.178 52.6832C208.169 52.7002 208.156 52.7151 208.141 52.7272L205.186 55.0869C205.16 55.1078 205.127 55.1192 205.094 55.1192Z" fill="white"/>
<path d="M205.317 58.6589C205.252 58.7385 205.187 58.8181 205.119 58.8919C204.335 59.2467 203.482 59.4227 202.622 59.4071C201.761 59.3915 200.915 59.1846 200.144 58.8016C199.374 58.4185 198.698 57.8689 198.167 57.1926C197.636 56.5164 197.263 55.7305 197.074 54.892L199.874 54.3778L205.317 54.892C204.07 56.4082 204.221 56.9332 205.317 58.6589Z" fill="white"/>
<path d="M199.97 45.5306C199.97 45.5306 196.975 46.0929 196.283 49.8211C196.175 50.4498 196.155 51.0906 196.224 51.7248C196.293 52.4424 196.193 53.9581 194.632 55.7429C193.614 56.9005 192.665 58.1172 191.79 59.3867L194.919 60.2182L196.317 55.043C196.995 52.534 198.039 50.1382 199.416 47.9329L199.445 47.8868C199.445 47.8868 200.484 50.6588 203.269 51.0388L202.41 49.91C202.41 49.91 205.666 51.7891 207.511 52.3631C207.721 52.4287 207.91 52.5503 208.056 52.715C208.203 52.8796 208.301 53.081 208.342 53.2975C208.382 53.5139 208.362 53.7373 208.285 53.9434C208.207 54.1495 208.075 54.3306 207.902 54.4672C207.889 54.4775 207.876 54.4878 207.862 54.4981C206.505 55.5269 203.737 57.9818 204.831 60.3565C205.924 62.7313 204.649 63.1643 204.649 63.1643L207.001 62.2712L208.077 61.8111L207.968 62.6055L213.222 62.7154C213.222 62.7154 214.642 62.7068 212.12 58.9232C212.12 58.9232 211.512 57.5045 212.011 56.4206C212.412 55.5998 212.612 54.6956 212.594 53.7826C212.435 49.968 210.825 42.2075 199.97 45.5306Z" fill="#2F2E41"/>
<path d="M126.264 154.188C126.264 154.188 126.264 178.731 120.622 185.169C120.622 185.169 119.412 188.388 119.009 189.595C118.784 190.282 118.515 190.954 118.203 191.607V193.216C118.203 193.216 107.322 192.009 106.113 189.192L108.128 186.778C108.128 186.778 108.531 186.376 108.128 185.169C107.725 183.962 108.934 183.962 108.934 183.962L111.755 177.524L111.352 150.969L113.367 114.355L130.697 113.55L126.264 154.188Z" fill="#2F2E41"/>
<path d="M117.397 190.802C117.397 190.802 120.219 199.251 117.397 199.654C114.576 200.056 89.9916 200.458 90.3946 197.239C90.7977 194.021 98.8582 194.423 98.8582 194.423L107.322 189.192L117.397 190.802Z" fill="#2F2E41"/>
<path d="M142.385 114.355C142.385 114.355 143.191 119.585 139.967 125.218C136.743 130.851 138.758 149.762 138.758 149.762L167.372 174.708C167.372 174.708 161.73 184.364 159.715 183.962C157.7 183.56 125.861 157.809 125.861 157.809L113.367 115.964L142.385 114.355Z" fill="#2F2E41"/>
<path d="M166.979 173.642C166.979 173.642 175.638 175.786 174.468 178.38C173.298 180.975 160.477 201.92 157.97 199.857C155.462 197.794 160.118 191.213 160.118 191.213L160.224 181.276L166.979 173.642Z" fill="#2F2E41"/>
<path d="M135.936 39.518C135.94 41.6377 135.21 43.6935 133.87 45.338C132.811 46.6486 131.413 47.645 129.827 48.2192C128.241 48.7934 126.528 48.9236 124.873 48.5956C124.045 48.4358 123.243 48.1603 122.492 47.7774C121.298 47.1767 120.249 46.3253 119.416 45.2816C118.583 44.2378 117.986 43.0265 117.666 41.7307C117.486 41.0069 117.396 40.2638 117.397 39.518C117.397 37.0636 118.373 34.7097 120.112 32.9742C121.85 31.2387 124.208 30.2636 126.667 30.2636C129.125 30.2636 131.483 31.2387 133.221 32.9742C134.96 34.7097 135.936 37.0636 135.936 39.518Z" fill="#A0616A"/>
<path d="M133.96 42.7825L133.55 54.6908L125.751 57.7674C125.751 57.7674 124.986 45.5741 123.906 44.8981C122.826 44.2221 133.96 42.7825 133.96 42.7825Z" fill="#A0616A"/>
<path d="M123.846 59.2326C123.846 59.2326 134.727 48.369 137.549 48.7714C140.37 49.1737 140.37 50.3808 140.37 51.1855C140.37 51.9902 139.564 52.3926 140.37 52.7949C141.176 53.1973 141.982 52.7949 141.982 54.002C141.982 55.209 149.236 67.2796 146.818 80.5572C144.4 93.8349 141.579 100.273 142.788 107.515C143.997 114.757 143.191 116.367 143.191 116.367C143.191 116.367 112.964 118.781 112.561 115.964C112.158 113.148 113.77 114.757 111.755 112.745C109.74 110.734 110.546 110.734 110.546 109.527C110.546 108.32 119.412 59.2326 123.846 59.2326Z" fill="#575A89"/>
<path d="M129.488 113.953C129.488 113.953 124.652 125.621 121.025 122.804C117.397 119.988 122.637 110.331 122.637 110.331L129.488 113.953Z" fill="white"/>
<path d="M141.176 60.0373C141.176 60.0373 150.645 61.1196 147.119 78.4831C143.594 95.8467 129.891 115.964 129.891 115.964L120.622 111.538L132.712 87.7996L129.891 72.9126C129.891 72.9126 128.279 58.8302 141.176 60.0373Z" fill="#575A89"/>
<path opacity="0.2" d="M132.914 88.0008L119.614 110.13L120.823 111.337L132.914 88.0008Z" fill="black"/>
<path opacity="0.2" d="M139.954 98.3132L129.287 115.763H132.914L139.954 98.3132Z" fill="black"/>
<path opacity="0.2" d="M115.858 130.024L115.322 130.229L125.928 157.989L126.464 157.785L115.858 130.024Z" fill="black"/>
<path d="M123.903 61.4417C124.22 61.4417 124.476 61.1855 124.476 60.8693C124.476 60.5532 124.22 60.297 123.903 60.297C123.586 60.297 123.33 60.5532 123.33 60.8693C123.33 61.1855 123.586 61.4417 123.903 61.4417Z" fill="#D0CDE1"/>
<path d="M119.03 76.8958C119.091 76.8958 119.15 76.8762 119.2 76.8399C119.249 76.8036 119.285 76.7525 119.303 76.6941L124.177 60.9539C124.188 60.918 124.192 60.8802 124.188 60.8427C124.185 60.8053 124.174 60.7688 124.157 60.7356C124.139 60.7023 124.115 60.6728 124.086 60.6487C124.057 60.6247 124.024 60.6066 123.988 60.5955C123.952 60.5844 123.914 60.5804 123.876 60.5839C123.839 60.5874 123.802 60.5983 123.769 60.6159C123.736 60.6335 123.706 60.6574 123.682 60.6864C123.658 60.7154 123.64 60.7488 123.629 60.7848L118.756 76.5253C118.743 76.5681 118.74 76.6133 118.747 76.6575C118.755 76.7016 118.772 76.7434 118.799 76.7794C118.826 76.8155 118.86 76.8448 118.9 76.865C118.94 76.8852 118.985 76.8958 119.03 76.8959V76.8958Z" fill="#D0CDE1"/>
<path d="M124.808 46.6057L122.492 48.8058C120.106 47.6072 117.801 44.3776 117.151 41.7307L120.19 40.4592C120.389 43.1588 122.308 44.9536 124.808 46.6057Z" fill="white"/>
<path d="M125.386 41.6116C125.376 41.6117 125.367 41.611 125.358 41.6098L119.971 40.8414C119.946 40.8379 119.922 40.8295 119.9 40.8166C119.878 40.8038 119.859 40.7868 119.844 40.7666C119.829 40.7465 119.818 40.7235 119.812 40.6991C119.805 40.6746 119.804 40.6492 119.808 40.6242C119.811 40.5992 119.82 40.5752 119.832 40.5535C119.845 40.5318 119.862 40.5128 119.883 40.4976C119.903 40.4825 119.926 40.4715 119.95 40.4652C119.975 40.4589 120 40.4575 120.025 40.461L125.412 41.2293C125.461 41.2362 125.504 41.2609 125.535 41.2987C125.566 41.3365 125.581 41.3844 125.577 41.4329C125.574 41.4814 125.552 41.5267 125.517 41.5599C125.481 41.5931 125.434 41.6115 125.386 41.6116Z" fill="white"/>
<path d="M124.616 46.6057C124.582 46.6057 124.549 46.5969 124.52 46.5803C124.491 46.5636 124.467 46.5396 124.45 46.5106C124.433 46.4816 124.424 46.4488 124.423 46.4152C124.423 46.3817 124.432 46.3486 124.448 46.3194L126.233 43.1471C126.245 43.1251 126.262 43.1057 126.282 43.09C126.302 43.0744 126.324 43.0628 126.349 43.056C126.373 43.0491 126.399 43.0471 126.424 43.0501C126.449 43.0531 126.473 43.0611 126.495 43.0735C126.517 43.0858 126.537 43.1025 126.552 43.1223C126.568 43.1422 126.579 43.165 126.586 43.1893C126.593 43.2137 126.595 43.2391 126.592 43.2642C126.589 43.2893 126.581 43.3135 126.568 43.3355L124.783 46.5078C124.767 46.5375 124.742 46.5622 124.713 46.5794C124.683 46.5966 124.65 46.6057 124.616 46.6057Z" fill="white"/>
<path d="M130.862 45.078C130.112 44.6819 129.24 44.6003 128.428 44.3541C125.522 43.4732 123.575 40.1936 124.197 37.2258C124.312 36.8452 124.363 36.4483 124.349 36.051C124.241 35.172 123.34 34.6049 122.476 34.4035C121.612 34.2021 120.693 34.2314 119.867 33.9075C118.593 33.4075 117.746 32.0996 117.562 30.7445C117.379 29.3894 117.781 28.0073 118.436 26.8064L118.748 27.7028C119.224 27.3007 119.578 26.7732 119.768 26.1805C120.123 26.24 120.456 26.3894 120.736 26.6143C121.016 26.8393 121.234 27.1323 121.368 27.4654C121.869 27.7602 121.941 26.5493 122.495 26.3707C122.726 26.2959 122.965 26.438 123.185 26.5407C124.3 27.0598 125.595 26.616 126.791 26.3283C128.862 25.8324 131.021 25.8298 133.093 26.3209C134.469 26.6486 135.832 27.2194 136.817 28.2338C137.626 29.0669 138.13 30.1441 138.559 31.2223C139.615 33.8767 140.313 36.7488 139.964 39.5837C139.674 41.9036 138.702 44.0856 137.171 45.8545C136.373 46.772 133.77 49.973 132.343 49.4273C130.55 48.7415 132.975 46.1932 130.862 45.078Z" fill="#2F2E41"/>
</svg>
