<svg width="291" height="214" viewBox="0 0 291 214" fill="none" xmlns="http://www.w3.org/2000/svg">
<g clip-path="url(#clip0)">
<path opacity="0.1" d="M3.14319 113.887C7.74784 133.541 17.4956 150.531 32.901 158.766C64.916 175.881 137.118 167.055 191.005 156.912C218.235 151.805 242.951 137.694 261.173 116.854L3.14319 113.887Z" fill="#5BC2F1"/>
<path opacity="0.1" d="M285.722 21.3788H256.155C255.477 21.3788 254.827 21.1099 254.348 20.6313C253.868 20.1527 253.599 19.5035 253.599 18.8267C253.599 18.1498 253.868 17.5006 254.348 17.022C254.827 16.5434 255.477 16.2745 256.155 16.2745H261.266C260.588 16.2745 259.938 16.0056 259.459 15.527C258.98 15.0484 258.71 14.3992 258.71 13.7223C258.71 13.0455 258.98 12.3963 259.459 11.9177C259.938 11.4391 260.588 11.1702 261.266 11.1702H257.616C256.939 11.1702 256.288 10.9013 255.809 10.4227C255.33 9.94404 255.061 9.29489 255.061 8.61802C255.061 7.94114 255.33 7.29199 255.809 6.81337C256.288 6.33474 256.939 6.06586 257.616 6.06586H273.048C269.624 4.47655 265.621 3.3455 261.011 2.75216C218.933 -2.64619 203.91 0.924454 198.61 4.60634C192.072 9.13587 184.777 12.4681 176.982 14.0733C151.02 19.4213 102.467 25.858 58.4599 12.0125C36.5879 5.12552 20.331 16.7592 10.5886 36.1911H290.854C290.488 30.5438 289.393 25.3309 287.382 20.7643C286.92 21.1613 286.331 21.3794 285.722 21.3788Z" fill="#5BC2F1"/>
<path opacity="0.1" d="M0.633938 72.8697C-0.501814 84.2998 -0.116511 95.8298 1.7798 107.159L261.37 116.639C268.596 108.338 274.663 99.0978 279.406 89.1706L0.633938 72.8697ZM103.305 97.3317H98.1936C98.8714 97.3317 99.5214 97.6006 100.001 98.0792C100.48 98.5579 100.749 99.207 100.749 99.8839C100.749 100.561 100.48 101.21 100.001 101.689C99.5214 102.167 98.8714 102.436 98.1936 102.436H68.6268C67.949 102.436 67.299 102.167 66.8197 101.689C66.3404 101.21 66.0712 100.561 66.0712 99.8839C66.0712 99.207 66.3404 98.5579 66.8197 98.0792C67.299 97.6006 67.949 97.3317 68.6268 97.3317H73.738C73.0602 97.3317 72.4102 97.0628 71.9309 96.5842C71.4517 96.1056 71.1824 95.4564 71.1824 94.7796C71.1824 94.1027 71.4517 93.4535 71.9309 92.9749C72.4102 92.4963 73.0602 92.2274 73.738 92.2274H70.0883C69.4105 92.2274 68.7604 91.9585 68.2812 91.4799C67.8019 91.0013 67.5326 90.3521 67.5326 89.6752C67.5326 88.9984 67.8019 88.3492 68.2812 87.8706C68.7604 87.392 69.4105 87.1231 70.0883 87.1231H99.6551C100.333 87.1231 100.983 87.392 101.462 87.8706C101.941 88.3492 102.211 88.9984 102.211 89.6752C102.211 90.3521 101.941 91.0013 101.462 91.4799C100.983 91.9585 100.333 92.2274 99.6551 92.2274H103.305C103.983 92.2274 104.633 92.4963 105.112 92.9749C105.591 93.4535 105.861 94.1027 105.861 94.7796C105.861 95.4564 105.591 96.1056 105.112 96.5842C104.633 97.0628 103.983 97.3317 103.305 97.3317Z" fill="#5BC2F1"/>
<path opacity="0.1" d="M290.867 36.366L7.45605 43.253C4.01052 52.1001 1.73737 62.1048 0.676392 72.4776H285.902C287.764 66.3859 289.142 60.1568 290.021 53.8483C290.87 47.7507 291.21 41.857 290.867 36.366ZM58.2133 58.9235H53.102C53.7798 58.9235 54.4298 59.1924 54.9091 59.671C55.3884 60.1496 55.6576 60.7988 55.6576 61.4757C55.6576 62.1525 55.3884 62.8017 54.9091 63.2803C54.4298 63.7589 53.7798 64.0278 53.102 64.0278H23.5352C22.8574 64.0278 22.2073 63.7589 21.7281 63.2803C21.2488 62.8017 20.9795 62.1525 20.9795 61.4757C20.9795 60.7988 21.2488 60.1496 21.7281 59.671C22.2073 59.1924 22.8574 58.9235 23.5352 58.9235H28.6464C27.9686 58.9235 27.3186 58.6546 26.8393 58.176C26.3601 57.6974 26.0908 57.0482 26.0908 56.3713C26.0908 55.6945 26.3601 55.0453 26.8393 54.5667C27.3186 54.0881 27.9686 53.8192 28.6464 53.8192H24.9967C24.3189 53.8192 23.6688 53.5503 23.1896 53.0717C22.7103 52.5931 22.441 51.9439 22.441 51.267C22.441 50.5902 22.7103 49.941 23.1896 49.4624C23.6688 48.9838 24.3189 48.7149 24.9967 48.7149H54.5635C55.2413 48.7149 55.8913 48.9838 56.3706 49.4624C56.8499 49.941 57.1191 50.5902 57.1191 51.267C57.1191 51.9439 56.8499 52.5931 56.3706 53.0717C55.8913 53.5503 55.2413 53.8192 54.5635 53.8192H58.2133C58.8911 53.8192 59.5411 54.0881 60.0204 54.5667C60.4996 55.0453 60.7689 55.6945 60.7689 56.3713C60.7689 57.0482 60.4996 57.6974 60.0204 58.176C59.5411 58.6546 58.8911 58.9235 58.2133 58.9235Z" fill="#5BC2F1"/>
<g opacity="0.1">
<path opacity="0.1" d="M179.717 165.097C179.717 165.097 187.196 146.688 201.164 139.859C207.044 137.035 211.847 132.383 214.854 126.601C216.258 123.843 217.406 120.961 218.283 117.993" stroke="#535461" stroke-width="2" stroke-miterlimit="10"/>
<path opacity="0.1" d="M227.06 113.635C225.604 115.463 218.068 118.138 218.068 118.138C218.068 118.138 218.975 110.192 220.432 108.377C221.155 107.575 222.157 107.078 223.234 106.989C224.311 106.899 225.382 107.223 226.228 107.895C227.074 108.567 227.632 109.536 227.787 110.604C227.942 111.672 227.683 112.759 227.063 113.643L227.06 113.635Z" fill="#5BC2F1"/>
<path opacity="0.1" d="M224.474 128.114C222.256 128.858 214.479 127.007 214.479 127.007C214.479 127.007 219.559 120.84 221.776 120.096C222.818 119.82 223.926 119.95 224.876 120.46C225.825 120.97 226.544 121.822 226.887 122.843C227.231 123.863 227.172 124.976 226.724 125.955C226.276 126.934 225.471 127.706 224.474 128.114Z" fill="#5BC2F1"/>
<path opacity="0.1" d="M210.453 145.225C208.164 144.751 202.384 139.231 202.384 139.231C202.384 139.231 209.886 136.468 212.177 136.943C213.214 137.231 214.103 137.903 214.663 138.821C215.222 139.739 215.412 140.835 215.193 141.888C214.974 142.94 214.362 143.87 213.482 144.49C212.602 145.109 211.519 145.371 210.453 145.223V145.225Z" fill="#5BC2F1"/>
<path opacity="0.1" d="M196.926 155.789C194.589 155.707 187.958 151.244 187.958 151.244C187.958 151.244 194.886 147.262 197.223 147.337C197.803 147.318 198.382 147.42 198.922 147.634C199.462 147.848 199.952 148.171 200.362 148.582C200.772 148.993 201.093 149.483 201.306 150.024C201.518 150.564 201.617 151.141 201.597 151.721C201.576 152.301 201.437 152.871 201.187 153.395C200.937 153.918 200.582 154.386 200.145 154.767C199.707 155.148 199.195 155.436 198.641 155.612C198.088 155.787 197.504 155.848 196.926 155.789Z" fill="#5BC2F1"/>
<path opacity="0.1" d="M207.238 121.834C207.538 124.151 212.602 130.328 212.602 130.328C212.602 130.328 215.936 123.071 215.639 120.753C215.432 119.697 214.83 118.759 213.956 118.13C213.082 117.5 212 117.227 210.932 117.364C209.863 117.502 208.887 118.04 208.201 118.87C207.515 119.7 207.171 120.76 207.238 121.834Z" fill="#5BC2F1"/>
<path opacity="0.1" d="M191.573 134.386C192.552 136.505 199.236 140.889 199.236 140.889C199.236 140.889 200.244 132.967 199.265 130.848C199.057 130.307 198.739 129.814 198.333 129.401C197.926 128.987 197.439 128.662 196.901 128.444C196.363 128.226 195.786 128.12 195.206 128.134C194.626 128.147 194.055 128.279 193.528 128.522C193.001 128.764 192.529 129.112 192.142 129.544C191.755 129.976 191.461 130.483 191.278 131.033C191.095 131.582 191.026 132.164 191.077 132.741C191.128 133.319 191.297 133.879 191.573 134.389V134.386Z" fill="#5BC2F1"/>
<path opacity="0.1" d="M178.024 148.674C178.629 150.931 184.478 156.377 184.478 156.377C184.478 156.377 186.812 148.74 186.204 146.484C185.857 145.466 185.135 144.618 184.185 144.111C183.235 143.605 182.128 143.478 181.088 143.757C180.048 144.035 179.153 144.698 178.584 145.611C178.015 146.524 177.815 147.619 178.024 148.674Z" fill="#5BC2F1"/>
<path opacity="0.25" d="M227.06 113.635C225.604 115.463 218.068 118.138 218.068 118.138C218.068 118.138 218.975 110.192 220.432 108.377C221.155 107.575 222.157 107.078 223.234 106.989C224.311 106.899 225.382 107.223 226.228 107.895C227.074 108.567 227.632 109.536 227.787 110.604C227.942 111.672 227.683 112.759 227.063 113.643L227.06 113.635Z" fill="#1B1B1B"/>
<path opacity="0.25" d="M224.474 128.114C222.256 128.858 214.479 127.007 214.479 127.007C214.479 127.007 219.559 120.84 221.776 120.096C222.818 119.82 223.926 119.95 224.876 120.46C225.825 120.97 226.544 121.822 226.887 122.843C227.231 123.863 227.172 124.976 226.724 125.955C226.276 126.934 225.471 127.706 224.474 128.114Z" fill="#1B1B1B"/>
<path opacity="0.25" d="M210.453 145.225C208.164 144.751 202.384 139.231 202.384 139.231C202.384 139.231 209.886 136.468 212.177 136.943C213.214 137.231 214.103 137.903 214.663 138.821C215.222 139.739 215.412 140.835 215.193 141.888C214.974 142.94 214.362 143.87 213.482 144.49C212.602 145.109 211.519 145.371 210.453 145.223V145.225Z" fill="#1B1B1B"/>
<path opacity="0.25" d="M196.926 155.789C194.589 155.707 187.958 151.244 187.958 151.244C187.958 151.244 194.886 147.262 197.223 147.337C197.803 147.318 198.382 147.42 198.922 147.634C199.462 147.848 199.952 148.171 200.362 148.582C200.772 148.993 201.093 149.483 201.306 150.024C201.518 150.564 201.617 151.141 201.597 151.721C201.576 152.301 201.437 152.871 201.187 153.395C200.937 153.918 200.582 154.386 200.145 154.767C199.707 155.148 199.195 155.436 198.641 155.612C198.088 155.787 197.504 155.848 196.926 155.789Z" fill="#1B1B1B"/>
<path opacity="0.25" d="M207.238 121.834C207.538 124.151 212.602 130.328 212.602 130.328C212.602 130.328 215.936 123.071 215.639 120.753C215.432 119.697 214.83 118.759 213.956 118.13C213.082 117.5 212 117.227 210.932 117.364C209.863 117.502 208.887 118.04 208.201 118.87C207.515 119.7 207.171 120.76 207.238 121.834Z" fill="#1B1B1B"/>
<path opacity="0.25" d="M191.573 134.386C192.552 136.505 199.236 140.889 199.236 140.889C199.236 140.889 200.244 132.967 199.265 130.848C199.057 130.307 198.739 129.814 198.333 129.401C197.926 128.987 197.439 128.662 196.901 128.444C196.363 128.226 195.786 128.12 195.206 128.134C194.626 128.147 194.055 128.279 193.528 128.522C193.001 128.764 192.529 129.112 192.142 129.544C191.755 129.976 191.461 130.483 191.278 131.033C191.095 131.582 191.026 132.164 191.077 132.741C191.128 133.319 191.297 133.879 191.573 134.389V134.386Z" fill="#1B1B1B"/>
<path opacity="0.25" d="M178.024 148.674C178.629 150.931 184.478 156.377 184.478 156.377C184.478 156.377 186.812 148.74 186.204 146.484C185.857 145.466 185.135 144.618 184.185 144.111C183.235 143.605 182.128 143.478 181.088 143.757C180.048 144.035 179.153 144.698 178.584 145.611C178.015 146.524 177.815 147.619 178.024 148.674Z" fill="#1B1B1B"/>
</g>
<g opacity="0.1">
<path opacity="0.1" d="M174.412 138.18C174.412 138.18 175.356 118.334 186.266 107.265C190.867 102.65 193.845 96.6686 194.753 90.2196C195.162 87.1544 195.289 84.0582 195.133 80.9698" stroke="#535461" stroke-width="2" stroke-miterlimit="10"/>
<path opacity="0.1" d="M201.997 73.953C201.231 76.1595 195.008 81.1738 195.008 81.1738C195.008 81.1738 193.231 73.3888 193.997 71.1823C194.149 70.6211 194.415 70.0971 194.779 69.6429C195.142 69.1887 195.596 68.8141 196.11 68.5423C196.625 68.2705 197.19 68.1074 197.771 68.0631C198.351 68.0188 198.935 68.0942 199.485 68.2848C200.035 68.4753 200.54 68.7768 200.968 69.1705C201.396 69.5643 201.739 70.0418 201.975 70.5735C202.21 71.1051 202.334 71.6795 202.338 72.2609C202.342 72.8423 202.226 73.4183 201.997 73.953Z" fill="#5BC2F1"/>
<path opacity="0.1" d="M204.353 88.4581C202.496 89.8938 194.554 90.7255 194.554 90.7255C194.554 90.7255 197.3 83.224 199.143 81.7883C199.577 81.4032 200.085 81.111 200.636 80.9298C201.187 80.7486 201.77 80.6823 202.348 80.7348C202.926 80.7874 203.487 80.9577 203.996 81.2353C204.506 81.513 204.953 81.892 205.31 82.3489C205.666 82.8059 205.926 83.3311 206.071 83.8921C206.217 84.4531 206.246 85.0379 206.156 85.6105C206.066 86.1831 205.86 86.7312 205.55 87.221C205.24 87.7108 204.832 88.1318 204.353 88.4581Z" fill="#5BC2F1"/>
<path opacity="0.1" d="M196.806 109.257C194.488 109.567 187.204 106.274 187.204 106.274C187.204 106.274 193.366 101.183 195.692 100.873C196.261 100.759 196.848 100.763 197.416 100.884C197.983 101.006 198.52 101.242 198.992 101.579C199.465 101.915 199.863 102.345 200.163 102.842C200.462 103.339 200.656 103.891 200.734 104.466C200.811 105.04 200.769 105.625 200.611 106.182C200.453 106.74 200.182 107.26 199.815 107.709C199.448 108.158 198.992 108.527 198.477 108.793C197.961 109.059 197.396 109.217 196.817 109.257H196.806Z" fill="#5BC2F1"/>
<path opacity="0.1" d="M187.552 123.701C185.319 124.398 177.581 122.377 177.581 122.377C177.581 122.377 182.791 116.319 185.024 115.622C186.072 115.367 187.178 115.519 188.118 116.049C189.057 116.579 189.759 117.446 190.081 118.475C190.403 119.503 190.32 120.615 189.851 121.585C189.381 122.555 188.559 123.309 187.552 123.696V123.701Z" fill="#5BC2F1"/>
<path opacity="0.1" d="M186.006 88.2515C187.067 90.3388 193.889 94.4895 193.889 94.4895C193.889 94.4895 194.623 86.543 193.573 84.4504C193.028 83.5204 192.149 82.8327 191.114 82.527C190.08 82.2213 188.967 82.3206 188.003 82.8048C187.039 83.289 186.296 84.1216 185.925 85.1334C185.554 86.1452 185.583 87.2601 186.006 88.2515Z" fill="#5BC2F1"/>
<path opacity="0.1" d="M175.396 105.284C177.024 106.96 184.785 108.881 184.785 108.881C184.785 108.881 183.106 101.075 181.478 99.3978C180.679 98.6725 179.634 98.2784 178.555 98.2956C177.475 98.3127 176.443 98.74 175.668 99.4903C174.893 100.241 174.434 101.258 174.383 102.334C174.332 103.411 174.695 104.467 175.396 105.286V105.284Z" fill="#5BC2F1"/>
<path opacity="0.1" d="M167.359 123.248C168.685 125.176 176.006 128.379 176.006 128.379C176.006 128.379 175.672 120.4 174.351 118.472C173.682 117.636 172.723 117.084 171.664 116.925C170.605 116.767 169.525 117.014 168.64 117.617C167.756 118.22 167.133 119.135 166.896 120.178C166.659 121.221 166.825 122.315 167.361 123.24L167.359 123.248Z" fill="#5BC2F1"/>
</g>
<path opacity="0.1" d="M79.5044 205.487C89.9338 208.988 102.658 206.859 114.49 207.105C116.111 207.139 117.824 207.24 119.124 207.844C120.424 208.448 121.063 209.433 121.954 210.268C125.27 213.391 132.063 214.395 138.001 213.865C143.94 213.335 149.386 211.582 154.977 210.247C164.664 207.937 175.738 206.888 185.292 209.404C186.17 209.635 187.093 209.9 188.032 209.81C190.127 209.603 190.751 207.929 192.215 206.973C194.867 205.246 200.605 205.714 201.764 203.439C202.445 202.115 200.878 200.737 199.172 199.826C192.642 196.34 183.3 195.765 174.754 196.303C166.208 196.841 157.805 198.324 149.213 198.329C138.511 198.329 128.169 196.054 117.57 195.122C110.228 194.475 102.215 194.555 95.3315 196.446C87.8914 198.518 86.2469 203.137 79.5044 205.487Z" fill="#5BC2F1"/>
<path d="M98.8063 48.9771H96.9496V75.2006H98.8063V48.9771Z" fill="#535461"/>
<path d="M98.8063 84.2067H96.9496V99.0402H98.8063V84.2067Z" fill="#535461"/>
<path d="M169.335 23.2833H110.769C103.869 23.2833 98.2758 28.869 98.2758 35.7594V191.988C98.2758 198.878 103.869 204.464 110.769 204.464H169.335C176.235 204.464 181.828 198.878 181.828 191.988V35.7594C181.828 28.869 176.235 23.2833 169.335 23.2833Z" fill="#535461"/>
<path d="M169.335 31.7596H110.769C103.869 31.7596 98.2758 37.3453 98.2758 44.2357V184.306C98.2758 191.197 103.869 196.783 110.769 196.783H169.335C176.235 196.783 181.828 191.197 181.828 184.306V44.2357C181.828 37.3453 176.235 31.7596 169.335 31.7596Z" fill="#5BC2F1"/>
<path d="M146.152 27.2566H134.216C133.704 27.2566 133.288 27.6717 133.288 28.1837C133.288 28.6957 133.704 29.1108 134.216 29.1108H146.152C146.665 29.1108 147.081 28.6957 147.081 28.1837C147.081 27.6717 146.665 27.2566 146.152 27.2566Z" fill="#EAEAF3"/>
<path d="M151.855 29.6406C152.588 29.6406 153.182 29.0476 153.182 28.3161C153.182 27.5847 152.588 26.9917 151.855 26.9917C151.123 26.9917 150.529 27.5847 150.529 28.3161C150.529 29.0476 151.123 29.6406 151.855 29.6406Z" fill="#EAEAF3"/>
<rect x="90.5" y="55.5" width="101" height="101" rx="9.5" fill="#FDFDFF" stroke="#5BC2F1"/>
<path d="M159.678 115.422L153.116 114.672C151.54 114.492 149.99 115.034 148.879 116.145L144.126 120.898C136.815 117.178 130.822 111.211 127.102 103.874L131.881 99.095C132.992 97.9842 133.534 96.4342 133.353 94.8583L132.604 88.3483C132.294 85.7392 130.098 83.7758 127.463 83.7758H122.994C120.075 83.7758 117.647 86.2042 117.828 89.1233C119.197 111.185 136.841 128.803 158.877 130.172C161.796 130.353 164.224 127.925 164.224 125.006V120.537C164.25 117.927 162.287 115.732 159.678 115.422Z" fill="#535461"/>
</g>
<defs>
<clipPath id="clip0">
<rect width="291" height="214" fill="white"/>
</clipPath>
</defs>
</svg>
