<svg width="81" height="68" viewBox="0 0 81 68" fill="none" xmlns="http://www.w3.org/2000/svg">
<path opacity="0.3" d="M19.899 15.0076C13.446 18.9652 9.62325 26.2299 10.224 33.8209C10.5412 37.6947 11.9722 41.4347 15.75 43.4792C25.8367 48.9192 69.8715 49.0212 76.3897 39.3992C82.908 29.7772 80.487 16.0933 66.3143 10.3813C54.027 5.43999 36.5602 4.78719 19.899 15.0076Z" fill="#E6E6E6"/>
<path opacity="0.45" d="M45 61.9978C64.6226 61.9978 80.5298 60.8288 80.5298 59.3867C80.5298 57.9445 64.6226 56.7755 45 56.7755C25.3775 56.7755 9.47028 57.9445 9.47028 59.3867C9.47028 60.8288 25.3775 61.9978 45 61.9978Z" fill="#E6E6E6"/>
<path d="M22.3987 58.8359C22.3987 58.8359 24.4057 55.9277 21.4132 55.1276C18.4207 54.3275 22.1332 50.4084 19.3477 49.8939C16.5622 49.3793 17.0257 53.5205 17.0257 53.5205C17.0257 53.5205 15.102 51.85 13.7767 53.2531C12.4515 54.6561 14.3077 56.1997 14.3077 56.1997C14.3077 56.1997 11.6257 57.12 13.2975 58.8359H22.3987Z" fill="#E6E6E6"/>
<path d="M18.3757 59.2212C18.3757 59.2212 19.6492 57.0248 21.5257 57.2968C23.4022 57.5688 23.202 59.2212 23.202 59.2212H18.3757Z" fill="#C9C9C9"/>
<path d="M66.15 44.9072C66.15 44.9072 67.257 43.3523 69.0525 44.0232C70.5488 44.5831 71.1608 45.866 72.3735 45.7957C72.4921 45.7891 72.6107 45.8093 72.7205 45.855C72.8303 45.9006 72.9285 45.9705 73.0079 46.0594C73.0874 46.1484 73.146 46.2542 73.1795 46.369C73.213 46.4838 73.2205 46.6047 73.2015 46.7228C73.0823 47.4436 72.6458 48.1712 71.298 47.8176C68.868 47.1784 69.7838 49.7579 67.5765 48.7537C65.3693 47.7496 64.863 46.9359 66.15 44.9072Z" fill="#535461"/>
<path d="M66.8857 45.186L65.2275 42.3278L67.8735 44.4358L66.8857 45.186Z" fill="#535461"/>
<path d="M67.7048 44.7394L67.1805 41.4709L68.8928 44.3972L67.7048 44.7394Z" fill="#535461"/>
<path d="M68.8455 45.4693C69.0232 45.4693 69.1673 45.3242 69.1673 45.1452C69.1673 44.9662 69.0232 44.821 68.8455 44.821C68.6678 44.821 68.5237 44.9662 68.5237 45.1452C68.5237 45.3242 68.6678 45.4693 68.8455 45.4693Z" fill="#FDFDFF"/>
<path d="M65.6213 45.9068L69.453 48.8308L68.535 49.8757L64.6268 46.9744L65.6213 45.9068Z" fill="#FFD200"/>
<path d="M64.6268 46.9744C64.6268 46.9744 61.3868 50.0548 57.4718 48.9872C53.5568 47.9196 51.8063 51.4534 53.1383 53.1239C54.4703 54.7944 70.1843 57.3671 68.535 49.8667" fill="#535461"/>
<path d="M54.8573 50.9592C54.8573 50.9592 49.4978 50.8844 49.6238 43.8555C49.6238 43.8555 45.5985 51.6823 54.8573 52.3101V50.9592Z" fill="#535461"/>
<path d="M58.95 52.8995C58.95 52.8995 60.3675 56.4241 56.619 56.508C52.8705 56.5919 53.7863 58.9107 53.7863 58.9107H52.695C52.695 58.9107 52.0425 56.2337 53.622 55.5311C55.2015 54.8284 53.136 53.1239 53.136 53.1239C53.136 53.1239 55.4535 49.037 58.95 52.8995Z" fill="#535461"/>
<path d="M68.6542 50.9592L68.9647 52.623C69.2023 53.8858 69.8797 55.0216 70.875 55.8258L72.54 57.1858L72.1237 57.6754L68.679 56.1544C68.2182 55.9525 67.8346 55.6058 67.5855 55.1662L65.961 52.317L68.6542 50.9592Z" fill="#535461"/>
<path d="M68.2651 51.8364L67.5001 53.3437C66.9172 54.4858 66.7576 55.7998 67.05 57.0497L67.5451 59.1464L66.9173 59.2778L65.1173 55.9504C64.877 55.5063 64.7839 54.9963 64.8518 54.4952L65.3018 51.2402L68.2651 51.8364Z" fill="#535461"/>
<path d="M61.2135 53.9172C61.2135 53.9172 61.4385 56.0569 60.1515 57.2197C58.8645 58.3825 59.0895 59.2778 59.0895 59.2778H58.1512C58.036 58.8028 58.036 58.3068 58.1512 57.8317C58.2464 57.3788 58.241 56.9103 58.1356 56.4597C58.0302 56.0091 57.8274 55.5875 57.5415 55.225L56.6752 54.1053L61.2135 53.9172Z" fill="#535461"/>
<path d="M40.5765 18.4756C40.6327 18.4371 40.7272 17.9067 40.9905 18.0019C41.2537 18.0971 43.3552 20.2459 43.0155 20.4748C42.6757 20.7038 42.489 20.8012 42.3022 20.6494C42.1155 20.4975 40.5765 18.4756 40.5765 18.4756Z" fill="#535461"/>
<path d="M41.4786 36.2075L40.6162 36.2898C40.1424 36.335 39.7947 36.7586 39.8395 37.2359L39.9957 38.8967C40.0406 39.3741 40.461 39.7244 40.9348 39.6792L41.7972 39.5969C42.271 39.5517 42.6188 39.1281 42.5739 38.6508L42.4178 36.9899C42.3729 36.5126 41.9524 36.1623 41.4786 36.2075Z" fill="#535461"/>
<path d="M52.2585 29.5732L52.0537 30.2305L53.8065 30.7768L54.1867 29.0405L52.2585 29.5732Z" fill="#535461"/>
<path d="M53.1 27.6919L53.325 27.1841C53.3918 27.0336 53.4904 26.8995 53.6138 26.7913C53.7373 26.6831 53.8828 26.6033 54.04 26.5576C54.1973 26.5118 54.3625 26.5012 54.5243 26.5264C54.686 26.5516 54.8404 26.6121 54.9765 26.7036L57.9015 28.6325C57.9584 28.6704 58.007 28.7196 58.0444 28.7771C58.0818 28.8345 58.1072 28.8991 58.119 28.9668C58.1307 29.0344 58.1287 29.1038 58.113 29.1707C58.0973 29.2375 58.0682 29.3004 58.0275 29.3556L57.978 29.4213C57.8527 29.5899 57.674 29.7103 57.4714 29.7627C57.2689 29.815 57.0547 29.7962 56.8643 29.7092L54.5715 28.6643L53.1 27.6919Z" fill="#535461"/>
<path d="M34.6793 25.8831C34.6793 25.8831 39.1793 35.2422 42.9345 34.8954C46.6898 34.5486 52.0988 29.4894 52.0988 29.4894L49.761 28.2744C49.761 28.2744 42.2145 34.0703 40.7768 23.8907C39.5483 15.1867 34.6793 25.8831 34.6793 25.8831Z" fill="#191BA9"/>
<path opacity="0.08" d="M34.6793 25.8831C34.6793 25.8831 39.1793 35.2422 42.9345 34.8954C46.6898 34.5486 52.0988 29.4894 52.0988 29.4894L49.761 28.2744C49.761 28.2744 42.2145 34.0703 40.7768 23.8907C39.5483 15.1867 34.6793 25.8831 34.6793 25.8831Z" fill="#535461"/>
<path d="M48.0128 58.5231L49.5878 59.0331C49.6488 59.0529 49.7022 59.0915 49.7404 59.1434C49.7787 59.1953 49.7999 59.2579 49.8012 59.3226C49.8024 59.3872 49.7836 59.4506 49.7474 59.5039C49.7111 59.5573 49.6593 59.5979 49.599 59.6201L48.051 60.1936C47.8322 60.272 47.5916 60.2606 47.3811 60.1618C47.1706 60.063 47.0071 59.8847 46.926 59.6655L46.6898 59.0172L48.0128 58.5231Z" fill="#535461"/>
<path d="M25.56 55.76L25.488 57.4237C25.4847 57.488 25.4617 57.5496 25.4221 57.6001C25.3826 57.6506 25.3284 57.6875 25.2672 57.7057C25.2059 57.7238 25.1406 57.7224 25.0802 57.7015C25.0198 57.6806 24.9673 57.6414 24.93 57.5892L23.9715 56.2292C23.8363 56.0373 23.7822 55.7993 23.821 55.5673C23.8598 55.3353 23.9884 55.1282 24.1785 54.9916L24.7365 54.5904L25.56 55.76Z" fill="#535461"/>
<path d="M37.9035 15.946L37.3635 18.4983L35.0618 18.5776L36.6188 14.5225L37.9035 15.946Z" fill="#F4A28C"/>
<path d="M37.2465 12.1199C37.4527 11.9688 37.6931 11.8721 37.9458 11.8384C38.1986 11.8047 38.4557 11.8352 38.6938 11.9271C38.9319 12.019 39.1434 12.1693 39.3091 12.3645C39.4748 12.5597 39.5895 12.7935 39.6427 13.0447C39.9082 14.2347 40.05 15.9642 38.7 16.0503C36.6165 16.184 36.36 13.4754 36.36 13.4754C36.5168 12.9456 36.8252 12.4742 37.2465 12.1199Z" fill="#F4A28C"/>
<path d="M38.3152 13.4323C38.2548 13.4328 38.1962 13.4535 38.1487 13.4912C38.129 13.5146 38.1137 13.5415 38.1037 13.5705C38.0827 13.6461 38.0828 13.726 38.1038 13.8016C38.1248 13.8771 38.1661 13.9454 38.223 13.9989C38.2806 14.0514 38.3482 14.0917 38.4216 14.1174C38.4951 14.1431 38.5729 14.1537 38.6505 14.1485C38.9002 14.1349 39.3772 13.8652 39.2917 13.5456C39.2152 13.2623 38.52 13.4073 38.3152 13.4323Z" fill="#535461"/>
<path d="M39.438 13.3733C39.3775 13.3735 39.3188 13.3942 39.2715 13.4323C39.2501 13.4554 39.2347 13.4834 39.2265 13.5139C39.2054 13.5891 39.2054 13.6687 39.2265 13.7439C39.2475 13.8191 39.2888 13.8869 39.3457 13.94C39.403 13.9924 39.4702 14.0327 39.5432 14.0584C39.6163 14.0841 39.6937 14.0947 39.771 14.0896C40.023 14.0783 40.5 13.8063 40.4122 13.4867C40.338 13.1965 39.6405 13.3439 39.438 13.3733Z" fill="#535461"/>
<path d="M38.151 13.4912L37.0485 13.6952V13.9377L38.3895 13.7609L38.151 13.4912Z" fill="#535461"/>
<path d="M28.2622 21.1231C28.6034 20.3893 29.0979 19.7384 29.7118 19.215C30.3258 18.6916 31.0447 18.3079 31.8195 18.0903C34.8075 17.2357 40.464 16.7439 42.0907 19.5727C44.3182 23.4464 40.59 37.1484 40.59 37.1484L30.582 37.7763C30.582 37.7763 25.236 27.6987 28.2622 21.1231Z" fill="#191BA9"/>
<path d="M38.3378 37.3343L38.0925 37.23C39.9083 32.9233 38.3828 18.9244 38.367 18.7839L38.6303 18.7544C38.7 19.3324 40.1805 32.9687 38.3378 37.3343Z" fill="#535461"/>
<path opacity="0.08" d="M32.688 17.8409C32.688 17.8409 27.7785 32.9415 41.2672 34.1609L40.5922 37.1529L30.5842 37.7808C30.5842 37.7808 27.1462 32.1527 27.4162 24.3281C27.4162 24.3281 27.5602 20.4589 30.2895 18.7907C31.0124 18.3049 31.8303 17.9811 32.688 17.8409Z" fill="#535461"/>
<path d="M35.847 13.8108C35.847 13.8108 35.4285 15.3589 36.4275 15.6083C37.4265 15.8576 37.3162 13.1444 37.9102 13.0719C38.5042 12.9993 40.3537 13.4096 40.3852 11.5124C40.4167 9.61521 38.4502 9.81015 37.53 10.5876C36.6097 11.3651 35.2237 10.9231 35.847 13.8108Z" fill="#535461"/>
<path d="M34.3575 17.8069C34.3575 17.8069 33.957 16.5671 37.6335 17.2176C38.3103 17.3307 38.9707 17.5271 39.6 17.8024C40.3065 18.1197 40.3132 18.6093 39.4425 18.6932C38.493 18.7884 37.4175 18.8791 36.468 18.6932C35.7547 18.5708 34.9965 18.1583 34.3575 17.8069Z" fill="#191BA9"/>
<path opacity="0.08" d="M34.3575 17.8069C34.3575 17.8069 33.957 16.5671 37.6335 17.2176C38.3103 17.3307 38.9707 17.5271 39.6 17.8024C40.3065 18.1197 40.3132 18.6093 39.4425 18.6932C38.493 18.7884 37.4175 18.8791 36.468 18.6932C35.7547 18.5708 34.9965 18.1583 34.3575 17.8069Z" fill="#535461"/>
<path d="M36.648 18.5119C36.648 18.5119 47.799 23.7252 53.4465 27.9684L52.2585 29.5732C52.2585 29.5732 39.5167 26.4701 34.2427 25.9465C28.9687 25.4229 28.728 15.2207 36.648 18.5119Z" fill="#191BA9"/>
<path opacity="0.46" d="M36.648 18.5119C36.648 18.5119 47.799 23.7252 53.4465 27.9684L52.2585 29.5732C52.2585 29.5732 39.5167 26.4701 34.2427 25.9465C28.9687 25.4229 28.728 15.2207 36.648 18.5119Z" fill="#FDFDFF"/>
<path d="M40.59 37.1484L42.75 41.3372C44.4285 44.5898 48.3953 58.3803 48.3953 58.3803L46.413 59.1147C46.413 59.1147 40.1985 46.385 38.5673 44.175C36.7703 41.7405 34.4395 39.757 31.7565 38.3792L30.5798 37.7762L40.59 37.1484Z" fill="#191BA9"/>
<path d="M30.582 37.7762C30.582 37.7762 31.932 45.9362 31.5608 48.0329L24.525 54.2889L25.7783 56.0592L34.9493 51.3196C36.4455 49.9936 36.9068 39.1362 36.9068 39.1362L30.582 37.7762Z" fill="#191BA9"/>
<path d="M53.4465 27.9684C53.4465 27.9684 54.9225 27.9344 54.9225 29.0586C54.9225 30.1829 54 30.5093 52.0988 29.4893L53.4465 27.9684Z" fill="#F4A28C"/>
<path d="M37.575 14.0737C37.575 14.0737 37.3815 13.5252 36.9427 13.8788C36.504 14.2324 37.0485 14.8535 37.3927 14.7424C37.737 14.6313 37.575 14.0737 37.575 14.0737Z" fill="#F4A28C"/>
<path d="M40.9751 36.4388L30.2261 37.0101L30.3012 38.4452L41.0503 37.8739L40.9751 36.4388Z" fill="#535461"/>
<path d="M39.4332 36.3175L36.886 36.4668L36.9892 38.2522L39.5364 38.1029L39.4332 36.3175Z" fill="#FFD200"/>
<path d="M32.6341 36.4617L31.7717 36.5439C31.2979 36.5891 30.9501 37.0127 30.995 37.4901L31.1511 39.1509C31.196 39.6282 31.6165 39.9785 32.0903 39.9333L32.9527 39.851C33.4265 39.8058 33.7742 39.3822 33.7294 38.9049L33.5732 37.2441C33.5284 36.7668 33.1079 36.4165 32.6341 36.4617Z" fill="#535461"/>
<path d="M34.3575 17.8069C34.3575 17.8069 31.3785 20.1733 30.9285 19.9467C30.4785 19.72 29.3918 19.4933 29.8395 19.1352C30.2873 18.7771 33.0503 17.1292 33.3878 17.1496C33.7253 17.17 34.3575 17.8069 34.3575 17.8069Z" fill="#535461"/>
<path d="M72.306 59.16C72.5312 58.6435 72.8102 58.1527 73.1385 57.6957C73.299 57.4174 73.5564 57.209 73.8608 57.1109C74.2748 57.0271 74.6595 57.3376 74.9858 57.6141C75.0185 57.2952 75.1308 56.9897 75.3121 56.7262C75.4935 56.4626 75.738 56.2496 76.023 56.1068C76.1944 56.0114 76.3909 55.9718 76.5855 55.9935C76.7237 56.0249 76.852 56.0902 76.9591 56.1835C77.0663 56.2768 77.1489 56.3952 77.1998 56.5284C77.3005 56.7945 77.3568 57.0756 77.3663 57.3603C77.6655 56.9999 78.1358 56.6032 78.5363 56.8435C78.6628 56.9308 78.7619 57.0527 78.822 57.1948C79.137 57.8431 79.0853 58.6001 79.0268 59.3187H78.8018L72.306 59.16Z" fill="#E6E6E6"/>
</svg>
