<svg width="292" height="184" viewBox="0 0 292 184" fill="none" xmlns="http://www.w3.org/2000/svg">
<path opacity="0.1" d="M4.14307 114.887C8.74772 134.541 18.4955 151.531 33.9009 159.766C65.9159 176.881 138.118 168.055 192.005 157.912C219.235 152.805 243.95 138.694 262.173 117.854L4.14307 114.887Z" fill="#5BC2F1"/>
<path opacity="0.1" d="M286.722 22.3788H257.155C256.477 22.3788 255.827 22.1099 255.348 21.6313C254.868 21.1527 254.599 20.5035 254.599 19.8267C254.599 19.1498 254.868 18.5006 255.348 18.022C255.827 17.5434 256.477 17.2745 257.155 17.2745H262.266C261.588 17.2745 260.938 17.0056 260.459 16.527C259.98 16.0484 259.71 15.3992 259.71 14.7223C259.71 14.0455 259.98 13.3963 260.459 12.9177C260.938 12.4391 261.588 12.1702 262.266 12.1702H258.616C257.939 12.1702 257.289 11.9013 256.809 11.4227C256.33 10.944 256.061 10.2949 256.061 9.61802C256.061 8.94114 256.33 8.29199 256.809 7.81337C257.289 7.33474 257.939 7.06586 258.616 7.06586H274.048C270.624 5.47655 266.621 4.3455 262.011 3.75216C219.933 -1.64619 204.91 1.92445 199.61 5.60634C193.072 10.1359 185.778 13.4681 177.982 15.0733C152.02 20.4213 103.467 26.858 59.46 13.0125C37.5879 6.12552 21.3311 17.7592 11.5886 37.1911H291.854C291.488 31.5438 290.393 26.3309 288.382 21.7643C287.92 22.1613 287.331 22.3794 286.722 22.3788Z" fill="#5BC2F1"/>
<path opacity="0.1" d="M1.63388 73.8697C0.498125 85.2998 0.883428 96.8298 2.77973 108.159L262.369 117.639C269.596 109.338 275.663 100.098 280.406 90.1706L1.63388 73.8697ZM104.305 98.3317H99.1936C99.8713 98.3317 100.521 98.6006 101.001 99.0792C101.48 99.5579 101.749 100.207 101.749 100.884C101.749 101.561 101.48 102.21 101.001 102.689C100.521 103.167 99.8713 103.436 99.1936 103.436H69.6267C68.9489 103.436 68.2989 103.167 67.8196 102.689C67.3403 102.21 67.0711 101.561 67.0711 100.884C67.0711 100.207 67.3403 99.5579 67.8196 99.0792C68.2989 98.6006 68.9489 98.3317 69.6267 98.3317H74.738C74.0602 98.3317 73.4101 98.0628 72.9309 97.5842C72.4516 97.1056 72.1824 96.4564 72.1824 95.7796C72.1824 95.1027 72.4516 94.4535 72.9309 93.9749C73.4101 93.4963 74.0602 93.2274 74.738 93.2274H71.0882C70.4104 93.2274 69.7604 92.9585 69.2811 92.4799C68.8018 92.0013 68.5326 91.3521 68.5326 90.6752C68.5326 89.9984 68.8018 89.3492 69.2811 88.8706C69.7604 88.392 70.4104 88.1231 71.0882 88.1231H100.655C101.333 88.1231 101.983 88.392 102.462 88.8706C102.941 89.3492 103.211 89.9984 103.211 90.6752C103.211 91.3521 102.941 92.0013 102.462 92.4799C101.983 92.9585 101.333 93.2274 100.655 93.2274H104.305C104.983 93.2274 105.633 93.4963 106.112 93.9749C106.591 94.4535 106.86 95.1027 106.86 95.7796C106.86 96.4564 106.591 97.1056 106.112 97.5842C105.633 98.0628 104.983 98.3317 104.305 98.3317Z" fill="#5BC2F1"/>
<path opacity="0.1" d="M291.867 37.366L8.45592 44.253C5.01039 53.1001 2.73725 63.1048 1.67627 73.4776H286.902C288.764 67.3859 290.142 61.1568 291.021 54.8483C291.87 48.7507 292.209 42.857 291.867 37.366ZM59.2132 59.9235H54.1019C54.7797 59.9235 55.4297 60.1924 55.909 60.671C56.3883 61.1496 56.6575 61.7988 56.6575 62.4757C56.6575 63.1525 56.3883 63.8017 55.909 64.2803C55.4297 64.7589 54.7797 65.0278 54.1019 65.0278H24.5351C23.8573 65.0278 23.2072 64.7589 22.728 64.2803C22.2487 63.8017 21.9794 63.1525 21.9794 62.4757C21.9794 61.7988 22.2487 61.1496 22.728 60.671C23.2072 60.1924 23.8573 59.9235 24.5351 59.9235H29.6463C28.9685 59.9235 28.3185 59.6546 27.8392 59.176C27.3599 58.6974 27.0907 58.0482 27.0907 57.3713C27.0907 56.6945 27.3599 56.0453 27.8392 55.5667C28.3185 55.0881 28.9685 54.8192 29.6463 54.8192H25.9966C25.3188 54.8192 24.6687 54.5503 24.1895 54.0717C23.7102 53.5931 23.4409 52.9439 23.4409 52.267C23.4409 51.5902 23.7102 50.941 24.1895 50.4624C24.6687 49.9838 25.3188 49.7149 25.9966 49.7149H55.5634C56.2412 49.7149 56.8912 49.9838 57.3705 50.4624C57.8498 50.941 58.119 51.5902 58.119 52.267C58.119 52.9439 57.8498 53.5931 57.3705 54.0717C56.8912 54.5503 56.2412 54.8192 55.5634 54.8192H59.2132C59.8909 54.8192 60.541 55.0881 61.0203 55.5667C61.4995 56.0453 61.7688 56.6945 61.7688 57.3713C61.7688 58.0482 61.4995 58.6974 61.0203 59.176C60.541 59.6546 59.8909 59.9235 59.2132 59.9235Z" fill="#5BC2F1"/>
<g opacity="0.1">
<path opacity="0.1" d="M180.717 166.097C180.717 166.097 188.196 147.688 202.164 140.859C208.044 138.035 212.847 133.383 215.854 127.601C217.258 124.843 218.406 121.961 219.283 118.993" stroke="#535461" stroke-width="2" stroke-miterlimit="10"/>
<path opacity="0.1" d="M228.06 114.635C226.604 116.463 219.068 119.138 219.068 119.138C219.068 119.138 219.975 111.192 221.432 109.377C222.155 108.575 223.157 108.078 224.234 107.989C225.311 107.899 226.382 108.223 227.228 108.895C228.074 109.567 228.632 110.536 228.787 111.604C228.942 112.672 228.683 113.759 228.063 114.643L228.06 114.635Z" fill="#5BC2F1"/>
<path opacity="0.1" d="M225.474 129.114C223.256 129.858 215.479 128.007 215.479 128.007C215.479 128.007 220.559 121.84 222.776 121.096C223.818 120.82 224.926 120.95 225.876 121.46C226.825 121.97 227.544 122.822 227.887 123.843C228.231 124.863 228.172 125.976 227.724 126.955C227.276 127.934 226.471 128.706 225.474 129.114Z" fill="#5BC2F1"/>
<path opacity="0.1" d="M211.453 146.225C209.164 145.751 203.384 140.231 203.384 140.231C203.384 140.231 210.885 137.468 213.177 137.943C214.214 138.231 215.102 138.903 215.662 139.821C216.222 140.739 216.412 141.835 216.193 142.888C215.974 143.94 215.362 144.87 214.482 145.49C213.602 146.109 212.519 146.371 211.453 146.223V146.225Z" fill="#5BC2F1"/>
<path opacity="0.1" d="M197.926 156.789C195.589 156.707 188.958 152.244 188.958 152.244C188.958 152.244 195.886 148.262 198.223 148.337C198.803 148.318 199.382 148.42 199.922 148.634C200.462 148.848 200.952 149.171 201.362 149.582C201.772 149.993 202.093 150.483 202.306 151.024C202.518 151.564 202.617 152.141 202.597 152.721C202.576 153.301 202.437 153.871 202.187 154.395C201.937 154.918 201.582 155.386 201.145 155.767C200.707 156.148 200.195 156.436 199.641 156.612C199.088 156.787 198.504 156.848 197.926 156.789Z" fill="#5BC2F1"/>
<path opacity="0.1" d="M208.238 122.834C208.538 125.151 213.602 131.328 213.602 131.328C213.602 131.328 216.936 124.071 216.639 121.753C216.432 120.697 215.83 119.759 214.956 119.13C214.082 118.5 213 118.227 211.932 118.364C210.863 118.502 209.887 119.04 209.201 119.87C208.515 120.7 208.171 121.76 208.238 122.834Z" fill="#5BC2F1"/>
<path opacity="0.1" d="M192.573 135.386C193.552 137.505 200.236 141.889 200.236 141.889C200.236 141.889 201.244 133.967 200.265 131.848C200.057 131.307 199.739 130.814 199.333 130.401C198.926 129.987 198.439 129.662 197.901 129.444C197.363 129.226 196.786 129.12 196.206 129.134C195.626 129.147 195.055 129.279 194.528 129.522C194.001 129.764 193.529 130.112 193.142 130.544C192.755 130.976 192.461 131.483 192.278 132.033C192.095 132.582 192.026 133.164 192.077 133.741C192.128 134.319 192.297 134.879 192.573 135.389V135.386Z" fill="#5BC2F1"/>
<path opacity="0.1" d="M179.024 149.674C179.629 151.931 185.478 157.377 185.478 157.377C185.478 157.377 187.812 149.74 187.204 147.484C186.857 146.466 186.135 145.618 185.185 145.111C184.235 144.605 183.128 144.478 182.088 144.757C181.048 145.035 180.153 145.698 179.584 146.611C179.015 147.524 178.815 148.619 179.024 149.674Z" fill="#5BC2F1"/>
<path opacity="0.25" d="M228.06 114.635C226.604 116.463 219.068 119.138 219.068 119.138C219.068 119.138 219.975 111.192 221.432 109.377C222.155 108.575 223.157 108.078 224.234 107.989C225.311 107.899 226.382 108.223 227.228 108.895C228.074 109.567 228.632 110.536 228.787 111.604C228.942 112.672 228.683 113.759 228.063 114.643L228.06 114.635Z" fill="#1B1B1B"/>
<path opacity="0.25" d="M225.474 129.114C223.256 129.858 215.479 128.007 215.479 128.007C215.479 128.007 220.559 121.84 222.776 121.096C223.818 120.82 224.926 120.95 225.876 121.46C226.825 121.97 227.544 122.822 227.887 123.843C228.231 124.863 228.172 125.976 227.724 126.955C227.276 127.934 226.471 128.706 225.474 129.114Z" fill="#1B1B1B"/>
<path opacity="0.25" d="M211.453 146.225C209.164 145.751 203.384 140.231 203.384 140.231C203.384 140.231 210.885 137.468 213.177 137.943C214.214 138.231 215.102 138.903 215.662 139.821C216.222 140.739 216.412 141.835 216.193 142.888C215.974 143.94 215.362 144.87 214.482 145.49C213.602 146.109 212.519 146.371 211.453 146.223V146.225Z" fill="#1B1B1B"/>
<path opacity="0.25" d="M197.926 156.789C195.589 156.707 188.958 152.244 188.958 152.244C188.958 152.244 195.886 148.262 198.223 148.337C198.803 148.318 199.382 148.42 199.922 148.634C200.462 148.848 200.952 149.171 201.362 149.582C201.772 149.993 202.093 150.483 202.306 151.024C202.518 151.564 202.617 152.141 202.597 152.721C202.576 153.301 202.437 153.871 202.187 154.395C201.937 154.918 201.582 155.386 201.145 155.767C200.707 156.148 200.195 156.436 199.641 156.612C199.088 156.787 198.504 156.848 197.926 156.789Z" fill="#1B1B1B"/>
<path opacity="0.25" d="M208.238 122.834C208.538 125.151 213.602 131.328 213.602 131.328C213.602 131.328 216.936 124.071 216.639 121.753C216.432 120.697 215.83 119.759 214.956 119.13C214.082 118.5 213 118.227 211.932 118.364C210.863 118.502 209.887 119.04 209.201 119.87C208.515 120.7 208.171 121.76 208.238 122.834Z" fill="#1B1B1B"/>
<path opacity="0.25" d="M192.573 135.386C193.552 137.505 200.236 141.889 200.236 141.889C200.236 141.889 201.244 133.967 200.265 131.848C200.057 131.307 199.739 130.814 199.333 130.401C198.926 129.987 198.439 129.662 197.901 129.444C197.363 129.226 196.786 129.12 196.206 129.134C195.626 129.147 195.055 129.279 194.528 129.522C194.001 129.764 193.529 130.112 193.142 130.544C192.755 130.976 192.461 131.483 192.278 132.033C192.095 132.582 192.026 133.164 192.077 133.741C192.128 134.319 192.297 134.879 192.573 135.389V135.386Z" fill="#1B1B1B"/>
<path opacity="0.25" d="M179.024 149.674C179.629 151.931 185.478 157.377 185.478 157.377C185.478 157.377 187.812 149.74 187.204 147.484C186.857 146.466 186.135 145.618 185.185 145.111C184.235 144.605 183.128 144.478 182.088 144.757C181.048 145.035 180.153 145.698 179.584 146.611C179.015 147.524 178.815 148.619 179.024 149.674Z" fill="#1B1B1B"/>
</g>
<g opacity="0.1">
<path opacity="0.1" d="M175.412 139.18C175.412 139.18 176.356 119.334 187.265 108.265C191.866 103.65 194.845 97.6686 195.753 91.2196C196.162 88.1544 196.289 85.0582 196.133 81.9698" stroke="#535461" stroke-width="2" stroke-miterlimit="10"/>
<path opacity="0.1" d="M202.997 74.953C202.231 77.1595 196.008 82.1738 196.008 82.1738C196.008 82.1738 194.231 74.3888 194.997 72.1823C195.149 71.6211 195.415 71.0971 195.779 70.6429C196.142 70.1887 196.596 69.8141 197.11 69.5423C197.625 69.2705 198.19 69.1074 198.771 69.0631C199.351 69.0188 199.935 69.0942 200.485 69.2848C201.035 69.4753 201.54 69.7768 201.968 70.1705C202.396 70.5643 202.739 71.0418 202.975 71.5735C203.21 72.1051 203.334 72.6795 203.338 73.2609C203.342 73.8423 203.226 74.4183 202.997 74.953Z" fill="#5BC2F1"/>
<path opacity="0.1" d="M205.352 89.4581C203.496 90.8938 195.554 91.7255 195.554 91.7255C195.554 91.7255 198.299 84.224 200.143 82.7883C200.577 82.4032 201.085 82.111 201.636 81.9298C202.187 81.7486 202.77 81.6823 203.348 81.7348C203.926 81.7874 204.487 81.9577 204.996 82.2353C205.505 82.513 205.952 82.892 206.309 83.3489C206.666 83.8059 206.925 84.3311 207.071 84.8921C207.217 85.4531 207.246 86.0379 207.156 86.6105C207.066 87.1831 206.86 87.7312 206.55 88.221C206.239 88.7108 205.832 89.1318 205.352 89.4581Z" fill="#5BC2F1"/>
<path opacity="0.1" d="M197.806 110.257C195.488 110.567 188.204 107.274 188.204 107.274C188.204 107.274 194.366 102.183 196.692 101.873C197.261 101.759 197.848 101.763 198.415 101.884C198.983 102.006 199.52 102.242 199.992 102.579C200.465 102.915 200.863 103.345 201.163 103.842C201.462 104.339 201.656 104.891 201.733 105.466C201.81 106.04 201.769 106.625 201.611 107.182C201.453 107.74 201.182 108.26 200.815 108.709C200.448 109.158 199.992 109.527 199.476 109.793C198.961 110.059 198.396 110.217 197.817 110.257H197.806Z" fill="#5BC2F1"/>
<path opacity="0.1" d="M188.552 124.701C186.318 125.398 178.581 123.377 178.581 123.377C178.581 123.377 183.791 117.319 186.024 116.622C187.072 116.367 188.178 116.519 189.117 117.049C190.057 117.579 190.759 118.446 191.081 119.475C191.403 120.503 191.32 121.615 190.851 122.585C190.381 123.555 189.559 124.309 188.552 124.696V124.701Z" fill="#5BC2F1"/>
<path opacity="0.1" d="M187.005 89.2515C188.066 91.3388 194.888 95.4895 194.888 95.4895C194.888 95.4895 195.623 87.543 194.573 85.4504C194.028 84.5204 193.149 83.8327 192.114 83.527C191.079 83.2213 189.967 83.3206 189.003 83.8048C188.039 84.289 187.296 85.1216 186.925 86.1334C186.554 87.1452 186.583 88.2601 187.005 89.2515Z" fill="#5BC2F1"/>
<path opacity="0.1" d="M176.396 106.284C178.024 107.96 185.785 109.881 185.785 109.881C185.785 109.881 184.106 102.075 182.478 100.398C181.679 99.6725 180.634 99.2784 179.555 99.2956C178.475 99.3127 177.443 99.74 176.668 100.49C175.893 101.241 175.434 102.258 175.383 103.334C175.332 104.411 175.695 105.467 176.396 106.286V106.284Z" fill="#5BC2F1"/>
<path opacity="0.1" d="M168.359 124.248C169.685 126.176 177.006 129.379 177.006 129.379C177.006 129.379 176.671 121.4 175.351 119.472C174.682 118.636 173.723 118.084 172.664 117.925C171.604 117.767 170.525 118.014 169.64 118.617C168.756 119.22 168.133 120.135 167.896 121.178C167.659 122.221 167.825 123.315 168.361 124.24L168.359 124.248Z" fill="#5BC2F1"/>
</g>
<g clip-path="url(#clip0)">
<path d="M148.366 184C211.124 184 262 180.053 262 175.185C262 170.316 211.124 166.37 148.366 166.37C85.6075 166.37 34.7317 170.316 34.7317 175.185C34.7317 180.053 85.6075 184 148.366 184Z" fill="#3F3D56"/>
<path d="M244.892 158.809L245.957 166.564L238.501 167.269L239.567 157.751L244.892 158.809Z" fill="#A0616A"/>
<path d="M209.745 52.3487C209.745 52.3487 210.455 61.8666 210.455 62.2191C210.455 62.5717 205.485 86.8953 205.485 86.8953C205.485 86.8953 198.384 100.291 205.485 99.9384C212.585 99.5859 210.455 87.2478 210.455 87.2478L217.91 66.8019L214.715 52.3487L209.745 52.3487Z" fill="#A0616A"/>
<path d="M221.461 158.809L220.396 166.564L227.851 167.269L226.786 157.751L221.461 158.809Z" fill="#A0616A"/>
<path d="M213.295 86.1903L211.52 88.6579C211.52 88.6579 210.455 99.2334 211.52 102.759C212.585 106.284 214.715 122.5 214.715 123.557C214.715 124.615 215.07 125.32 214.715 125.672C214.36 126.025 213.295 126.025 214.005 126.73C214.715 127.435 214.715 129.55 214.715 129.55V131.312L219.331 157.399C219.331 157.399 216.49 160.571 218.621 160.571C220.751 160.571 228.561 160.571 228.206 157.046L227.496 156.694C227.496 156.694 226.431 133.428 226.786 132.37C227.141 131.312 226.786 129.197 226.786 129.197C226.786 129.197 226.076 128.14 226.786 127.787C227.496 127.435 227.496 124.615 227.496 124.615L230.691 103.111C230.691 103.111 233.531 117.564 235.306 118.974C237.081 120.384 236.726 123.91 236.726 123.91L238.146 154.931C238.146 154.931 236.726 158.456 238.146 159.161C239.566 159.866 245.602 162.334 245.957 158.809C246.312 155.284 248.087 124.615 248.087 123.205C248.087 121.794 247.732 121.089 248.087 120.032C248.442 118.974 247.732 118.974 248.087 118.974C248.442 118.974 247.377 117.917 247.377 117.212V99.9384C247.377 99.9384 247.732 96.4133 248.087 95.7082C248.442 95.0032 247.732 94.2982 248.087 93.2406C248.442 92.1831 247.377 88.6579 247.377 88.6579L231.401 84.4277L213.295 86.1903Z" fill="#2F2E41"/>
<path d="M225.721 165.154C225.721 165.154 227.496 163.391 225.011 163.391C223.415 163.424 221.844 163.784 220.396 164.449L218.621 170.794C218.621 170.794 211.343 176.611 219.508 175.906C227.674 175.201 226.431 175.729 226.431 175.729C226.431 175.729 228.916 175.024 229.271 174.319C229.626 173.614 228.561 163.391 228.561 163.391C228.561 163.391 227.496 166.212 225.721 165.154Z" fill="#2F2E41"/>
<path d="M240.986 165.154C240.986 165.154 239.211 163.391 241.696 163.391C243.292 163.424 244.863 163.784 246.312 164.449L248.087 170.794C248.087 170.794 255.365 176.611 247.199 175.906C239.034 175.201 239.211 175.729 239.211 175.729C239.211 175.729 236.726 175.024 236.371 174.319C236.016 173.614 238.146 163.391 238.146 163.391C238.146 163.391 239.211 166.212 240.986 165.154Z" fill="#2F2E41"/>
<path d="M217.91 24.4999C223.008 24.4999 227.141 20.3964 227.141 15.3345C227.141 10.2725 223.008 6.16904 217.91 6.16904C212.813 6.16904 208.68 10.2725 208.68 15.3345C208.68 20.3964 212.813 24.4999 217.91 24.4999Z" fill="#A0616A"/>
<path d="M214.715 22.0323C214.715 22.0323 216.135 29.0826 216.135 30.1401C216.135 31.1977 222.171 34.3703 222.171 34.3703L228.916 25.9099C228.916 25.9099 224.656 19.9172 224.656 18.5071L214.715 22.0323Z" fill="#A0616A"/>
<path d="M220.04 31.1977C220.04 31.1977 216.946 30.3799 216.008 29.0262C216.008 29.0262 206.195 38.6006 206.195 40.3631L214.005 54.1113C214.005 54.1113 214.005 59.0465 214.715 59.399C215.425 59.7516 214.715 59.399 214.715 60.8091C214.715 62.2192 212.585 71.3846 213.295 72.7947C214.005 74.2048 214.715 73.1472 214.005 75.2623C213.295 77.3774 211.52 88.6579 211.52 88.6579C211.52 88.6579 217.91 86.5428 227.141 90.068C236.371 93.5931 247.377 88.6579 247.377 88.6579C247.377 88.6579 244.537 82.3126 245.247 80.1975C245.957 78.0824 243.472 74.2047 243.472 74.2047L241.696 41.7732C241.696 41.7732 244.182 27.32 242.406 26.615L238.856 25.2049L227.487 23.8175C227.487 23.8175 224.656 30.8452 220.04 31.1977Z" fill="#D0CDE1"/>
<path d="M209.745 37.8955L206.195 40.3631C206.195 40.3631 204.42 45.6509 206.195 48.1185C207.97 50.5861 208.68 54.1113 208.68 54.1113L215.78 53.4063L209.745 37.8955Z" fill="#D0CDE1"/>
<path d="M210.863 5.64818L209.262 5.01169C209.262 5.01169 212.61 1.3519 217.268 1.67015L215.958 0.238039C215.958 0.238039 219.16 -1.03492 222.071 2.30662C223.601 4.06319 225.372 6.12795 226.476 8.45388H228.191L227.475 10.0186L229.98 11.5833L227.409 11.3022C227.652 12.653 227.569 14.042 227.166 15.3546L227.235 16.5913C227.235 16.5913 224.254 12.013 224.254 11.3765V12.9677C224.254 12.9677 222.653 11.5357 222.653 10.5809L221.78 11.6948L221.343 9.94444L215.958 11.6948L216.831 10.2627L213.483 10.7401L214.793 8.98973C214.793 8.98973 211.009 11.0583 210.863 12.8087C210.718 14.559 208.825 16.7867 208.825 16.7867L207.952 15.1955C207.952 15.1955 206.642 8.03499 210.863 5.64818Z" fill="#2F2E41"/>
<path d="M213.004 76.7142H71.9275V175.118H213.004V76.7142Z" fill="#F2F2F2"/>
<path d="M119.226 114.26H83.8032V175.661H119.226V114.26Z" fill="#3F3D56"/>
<path d="M99.8974 117.943H90.3555V126.776H99.8974V117.943Z" fill="#F2F2F2"/>
<path d="M112.674 117.943H103.132V126.776H112.674V117.943Z" fill="#F2F2F2"/>
<path d="M99.8974 129.987H90.3555V139.141H99.8974V129.987Z" fill="#F2F2F2"/>
<path d="M112.674 129.987H103.132V139.141H112.674V129.987Z" fill="#F2F2F2"/>
<path d="M114.721 151.33C115.965 151.33 116.974 150.329 116.974 149.094C116.974 147.859 115.965 146.857 114.721 146.857C113.477 146.857 112.469 147.859 112.469 149.094C112.469 150.329 113.477 151.33 114.721 151.33Z" fill="#5BC2F1"/>
<path d="M201.128 108.431H131.102V166.782H201.128V108.431Z" fill="#3F3D56"/>
<path d="M227.746 95.2402H57.1851L68.5572 71.6312L71.1022 66.3451L74.4318 59.4324L76.9768 54.1463L79.9272 48.0226H214.308L216.051 54.1463L217.556 59.4324L219.524 66.3451L221.028 71.6312L227.746 95.2402Z" fill="#3F3D56"/>
<path d="M136.016 132.626H133.559V147.671H136.016V132.626Z" fill="#5BC2F1"/>
<path d="M136.016 134.862H133.559V136.692H136.016V134.862Z" fill="#F2F2F2"/>
<path d="M136.016 143.604H133.559V145.434H136.016V143.604Z" fill="#F2F2F2"/>
<path d="M143.182 132.626H137.244V147.671H143.182V132.626Z" fill="#5BC2F1"/>
<path d="M143.182 134.862H137.244V136.692H143.182V134.862Z" fill="#F2F2F2"/>
<path d="M143.182 143.604H137.244V145.434H143.182V143.604Z" fill="#F2F2F2"/>
<path d="M147.073 132.626H144.615V147.671H147.073V132.626Z" fill="#5BC2F1"/>
<path d="M147.073 134.862H144.615V136.692H147.073V134.862Z" fill="#F2F2F2"/>
<path d="M147.073 143.604H144.615V145.434H147.073V143.604Z" fill="#F2F2F2"/>
<path d="M150.758 132.626H148.301V147.671H150.758V132.626Z" fill="#5BC2F1"/>
<path d="M150.758 134.862H148.301V136.692H150.758V134.862Z" fill="#F2F2F2"/>
<path d="M150.758 143.604H148.301V145.434H150.758V143.604Z" fill="#F2F2F2"/>
<path d="M153.126 132.679L150.827 133.539L156.171 147.617L158.471 146.757L153.126 132.679Z" fill="#5BC2F1"/>
<path d="M153.92 134.771L151.621 135.632L152.271 137.344L154.57 136.484L153.92 134.771Z" fill="#F2F2F2"/>
<path d="M157.026 142.952L154.727 143.813L155.377 145.525L157.676 144.664L157.026 142.952Z" fill="#F2F2F2"/>
<path d="M198.876 132.626H192.938V147.671H198.876V132.626Z" fill="#5BC2F1"/>
<path d="M198.876 134.862H192.938V136.692H198.876V134.862Z" fill="#F2F2F2"/>
<path d="M198.876 143.604H192.938V145.434H198.876V143.604Z" fill="#F2F2F2"/>
<path d="M191.505 132.626H189.048V147.671H191.505V132.626Z" fill="#5BC2F1"/>
<path d="M191.505 134.862H189.048V136.692H191.505V134.862Z" fill="#F2F2F2"/>
<path d="M191.505 143.604H189.048V145.434H191.505V143.604Z" fill="#F2F2F2"/>
<path d="M187.819 132.626H185.362V147.671H187.819V132.626Z" fill="#5BC2F1"/>
<path d="M187.819 134.862H185.362V136.692H187.819V134.862Z" fill="#F2F2F2"/>
<path d="M187.819 143.604H185.362V145.434H187.819V143.604Z" fill="#F2F2F2"/>
<path d="M182.994 132.679L177.65 146.757L179.949 147.618L185.293 133.539L182.994 132.679Z" fill="#5BC2F1"/>
<path d="M182.2 134.771L181.55 136.484L183.849 137.344L184.499 135.632L182.2 134.771Z" fill="#F2F2F2"/>
<path d="M179.094 142.952L178.444 144.664L180.743 145.525L181.393 143.813L179.094 142.952Z" fill="#F2F2F2"/>
<path d="M201.128 147.671H131.102V149.094H201.128V147.671Z" fill="#F2F2F2"/>
<path d="M174.51 132.626H161.61V147.671H174.51V132.626Z" fill="#5BC2F1"/>
<path d="M171.336 135.878H164.784V138.725H171.336V135.878Z" fill="#F2F2F2"/>
<path d="M166.729 108.431H165.501V121.443H166.729V108.431Z" fill="#F2F2F2"/>
<path d="M166.115 123.476C167.246 123.476 168.163 122.566 168.163 121.443C168.163 120.32 167.246 119.41 166.115 119.41C164.984 119.41 164.067 120.32 164.067 121.443C164.067 122.566 164.984 123.476 166.115 123.476Z" fill="#F2F2F2"/>
<path d="M217.556 59.4324H74.4319L76.9769 54.1463H216.051L217.556 59.4324Z" fill="#5BC2F1"/>
<path d="M221.028 71.6312H68.5571L71.1022 66.3451H219.523L221.028 71.6312Z" fill="#5BC2F1"/>
<path d="M236.016 41.0682C236.016 41.0682 233.96 46.3174 234.39 51.511C234.468 52.4409 234.784 53.3357 235.306 54.1113L210.12 65.9844C210.12 65.9844 198.74 67.1544 201.58 72.0896C204.42 77.0249 214.715 69.622 214.715 69.622C214.715 69.622 241.697 65.7443 243.827 61.8667C245.957 57.989 247.377 41.7732 247.377 41.7732L236.016 41.0682Z" fill="#A0616A"/>
<path d="M237.081 26.615H242.407C242.407 26.615 246.312 27.32 247.377 34.3704C248.442 41.4207 249.507 43.1833 248.442 43.1833C247.377 43.1833 234.596 42.8308 234.596 42.4782C234.596 42.1257 237.081 26.615 237.081 26.615Z" fill="#D0CDE1"/>
<path d="M59.3159 131.923C74.4021 131.923 86.6318 119.779 86.6318 104.799C86.6318 89.8192 74.4021 77.6755 59.3159 77.6755C44.2298 77.6755 32 89.8192 32 104.799C32 119.779 44.2298 131.923 59.3159 131.923Z" fill="#5BC2F1"/>
<path opacity="0.1" d="M59.3159 128.125C72.29 128.125 82.8076 117.682 82.8076 104.799C82.8076 91.9164 72.29 81.4728 59.3159 81.4728C46.3418 81.4728 35.8242 91.9164 35.8242 104.799C35.8242 117.682 46.3418 128.125 59.3159 128.125Z" fill="#1B1B1B"/>
<path d="M58.1902 118.564V115.169C56.4618 115.135 54.6738 114.53 53.6309 113.69L54.346 111.438C55.5854 112.36 57.0885 112.866 58.6372 112.883C60.753 112.883 62.1834 111.505 62.1834 109.589C62.1834 107.74 61.0211 106.597 58.816 105.588C55.7764 104.244 53.899 102.698 53.899 99.7732C53.899 96.9831 55.6572 94.8654 58.3988 94.3612V90.9661H60.2464V94.2268C61.6241 94.2454 62.9679 94.6535 64.1204 95.4032L63.3753 97.6218C62.2699 96.8705 60.9601 96.4718 59.6206 96.4789C57.3261 96.4789 56.4618 98.0251 56.4618 99.3698C56.4618 101.118 57.5644 101.992 60.157 103.202C63.2263 104.614 64.776 106.362 64.776 109.353C64.776 112.009 63.137 114.496 60.0675 115.068V118.564H58.1902Z" fill="#F2F2F2"/>
</g>
<defs>
<clipPath id="clip0">
<rect width="230" height="184" fill="white" transform="translate(32)"/>
</clipPath>
</defs>
</svg>
